<svg xmlns="http://www.w3.org/2000/svg" width="295" height="308" viewBox="0 0 295 308">
    <path fill="#1747FF" fill-rule="nonzero" d="M120.22 245.85c-8.846 3.383-16.219 8.822-17.376 15.402-1.06 6.026.182 11.27 3.272 14.206a2.942 2.942 0 0 0-.112-.183.5.5 0 0 1 .833-.553c.336.506.56 1.12.68 1.826 1.269.798 2.76 1.282 4.453 1.384 7.072.43 15.13-2.46 24.547-8.07 1.646-.98 2.944-2.09 3.928-3.306.944-1.166 1.563-2.355 1.925-3.512a.5.5 0 0 1 .232-.893 8.66 8.66 0 0 0 .121-2.796 3.587 3.587 0 0 0-.046-.302.5.5 0 1 1 .976-.216c.017.077.04.211.063.397.11.911.094 1.886-.09 2.894.38-.032.809-.092 1.277-.192a10.633 10.633 0 0 0 3.878-1.674c1.132-.786 3.58-3.844 6.873-8.457.307-.43.62-.871.938-1.323a399.403 399.403 0 0 0 6.522-9.61c-1.995-.769-3.744-2.1-4.951-4.103-3.14-5.212-2.004-11.653 1.977-14.671 3.8-2.882 7.979-4.205 12.061-4.057a.498.498 0 0 1-.089-.325c.08-1.04.499-2.206 1.203-3.483.607-1.098 1.412-2.255 2.368-3.444a41.554 41.554 0 0 1 3.47-3.79l2.281-3.847.003-.141c.004-.224.01-.483.021-.775.03-.832.082-1.759.16-2.757.223-2.852.615-5.705 1.218-8.373.263-1.162.56-2.265.897-3.3 3.241-9.99 14.693-18.306 20.7-14.177a.5.5 0 1 1-.566.825c-5.3-3.644-16.117 4.211-19.183 13.66a36.477 36.477 0 0 0-.873 3.213c-.591 2.615-.977 5.422-1.196 8.23a64.933 64.933 0 0 0-.157 2.715c-.018.49-.025.838-.025 1.022a.5.5 0 0 1-.07.253l-2.385 4.023-.088.11a38.648 38.648 0 0 0-1.068 1.066 40.569 40.569 0 0 0-2.36 2.67c-.922 1.147-1.696 2.258-2.271 3.3-.642 1.163-1.015 2.202-1.082 3.076a.498.498 0 0 1-.126.295c1.876.155 3.726.621 5.503 1.39 3.384 1.465 5.973 8.33 4.664 11.63a.5.5 0 0 1-.93-.37c1.115-2.81-1.257-9.098-4.131-10.342-5.547-2.4-11.838-1.676-17.345 2.5-3.568 2.705-4.605 8.578-1.725 13.358 2.479 4.114 7.638 5.1 12.13 4.054.858-.2 1.69-.482 3.512-1.157l.046-.017c2.584-.958 3.621-1.288 4.681-1.385.442-.04.812-.054 1.639-.069 2.76-.049 4.15-.259 6.103-1.186.193-.091.39-.2.59-.324 1.628-1.015 2.267-1.736 6.338-6.779 1.259-1.558 2.167-2.62 3.107-3.597.627-.65 1.432-1.382 2.555-2.34.594-.506 2.787-2.335 3.116-2.612a72.68 72.68 0 0 0 2.83-2.489c1.851-1.732 3.069-3.173 3.653-4.414.938-1.993 1.205-4.55 1.416-11.216.304-9.634.694-14.08 2.18-19.854 1.434-5.573 8.188-16.893 26.506-45.68l.152-.24c7.112-11.176 9.648-15.184 12.925-20.469 6.658-10.737 9.777-23.815 9.968-37.686.137-9.994-1.436-20.08-3.123-23.763-2.352-5.134-19.351-12.68-28.784-13.132-8.207-.394-13.313-3.272-20.523-10.54-1.953-1.968-5.065-3.184-9.02-3.753-3.22-.464-6.664-.464-9.892-.185a41.104 41.104 0 0 0-1.713.185.5.5 0 0 1-.142-.99 42.099 42.099 0 0 1 1.769-.191c3.297-.285 6.814-.285 10.12.19 4.15.598 7.453 1.889 9.588 4.04 7.05 7.106 11.945 9.865 19.861 10.245 9.766.47 27.103 8.164 29.645 13.715 1.758 3.838 3.353 14.063 3.214 24.193-.193 14.039-3.353 27.29-10.118 38.2-3.28 5.289-5.817 9.298-12.931 20.479l-.152.238c-18.182 28.575-24.99 39.983-26.382 45.393-1.461 5.68-1.847 10.075-2.149 19.637-.215 6.837-.488 9.436-1.51 11.61-.652 1.383-1.938 2.906-3.875 4.718a73.597 73.597 0 0 1-2.868 2.523c-.333.28-2.524 2.108-3.113 2.61-1.1.937-1.884 1.65-2.483 2.272-.915.95-1.807 1.994-3.049 3.532-4.183 5.18-4.814 5.893-6.587 6.999a6.867 6.867 0 0 1-.69.38c-2.114 1.002-3.623 1.23-6.514 1.281-.802.014-1.156.027-1.565.064-.933.086-1.944.407-4.426 1.327l-.045.017c-1.866.692-2.72.981-3.633 1.194-2.393.557-4.961.582-7.281-.081l-.385.586a400.337 400.337 0 0 1-6.3 9.271c-.32.454-.634.897-.942 1.329-3.383 4.74-5.845 7.814-7.117 8.697a11.628 11.628 0 0 1-4.24 1.832c-.646.137-1.228.207-1.725.23-.389 1.334-1.082 2.704-2.164 4.04-1.06 1.309-2.448 2.497-4.193 3.537-9.575 5.702-17.8 8.654-25.12 8.209-1.6-.098-3.033-.5-4.288-1.158.067 5.672-4.859 15.466-11.643 23.245-6.983 8.006-16.299 7.698-24.142 1.14-5.656-4.728-5.363-14.525-1.592-24.8.163-.442.357-.89.582-1.345 1.334-2.694 3.696-5.533 6.857-8.503a74.726 74.726 0 0 1 3.523-3.096c.215-.824.493-1.79.837-2.917a258.07 258.07 0 0 1 1.178-3.733l.321-.999.329-1.018c.27-.84.47-1.462.667-2.08.285-.892.538-1.694.776-2.46.435-1.401.813-2.664 1.15-3.847.846-2.971 2.637-5.81 5.088-8.464.434-.47.88-.924 1.332-1.36-.522-7.376 4.23-21.003 10.99-29.078 5.507-6.577 7.91-10.61 8.805-16.046a.5.5 0 0 1 .112-.746c.247-1.805.343-3.775.343-6.045 0-.26.004-.52.013-.781-2.584-.868-6.11-.408-9.054 1.491-4.19 2.703-8.873 17.915-8.157 25.1.406 4.08-1.33 6.766-5.286 9.918.23-.183-2.278 1.768-2.853 2.265-.271.235-.51.456-.723.669-4.109 4.12-8.515 9.593-8.05 10.06a.5.5 0 0 1-.707.706c-1.205-1.208 2.906-6.315 8.049-11.472.231-.232.488-.47.777-.72.598-.516 3.134-2.49 2.884-2.29 3.717-2.962 5.279-5.376 4.914-9.036-.75-7.52 4.046-23.095 8.61-26.04 3.083-1.989 6.792-2.538 9.65-1.688.69-9.63 6.683-20.984 14.552-27.163 6.978-5.479 8.713-8.525 9.188-13.764a.5.5 0 0 1 .996.09c-.412 4.55-1.76 7.588-6.244 11.675 3.22-.563 6.5.203 9.813 2.021 2.587 1.42 4.625 3.06 7.37 5.629a.5.5 0 1 1-.684.73c-2.687-2.516-4.672-4.113-7.167-5.482-3.51-1.926-6.93-2.59-10.248-1.666a.499.499 0 0 1-.413-.067 70.11 70.11 0 0 1-1.993 1.62c-7.73 6.07-13.626 17.336-14.192 26.738 1.463.656 2.61 1.742 3.189 3.25.331.865.405 2.017.256 3.421 4.763-.067 11.328.984 13.675 2.795a.5.5 0 0 1-.611.792c-2.175-1.678-8.695-2.665-13.2-2.597-.184 1.125-.488 2.385-.896 3.767a58.388 58.388 0 0 1-1.255 3.735 81.669 81.669 0 0 1-2.343 5.639.5.5 0 1 1-.904-.427l.196-.427a80.68 80.68 0 0 0 2.113-5.132 57.403 57.403 0 0 0 1.234-3.672c.374-1.264.654-2.42.833-3.448-1.166.067-2.134.219-2.76.465-.893 5.75-3.36 9.96-9.065 16.775-6.357 7.592-10.915 20.28-10.796 27.542a35.58 35.58 0 0 1 1.533-1.294c.457-.364.882-.684 1.264-.957.23-.165.397-.279.488-.339a.5.5 0 1 1 .548.837c-.08.053-.235.158-.454.315a29.71 29.71 0 0 0-1.222.926 34.38 34.38 0 0 0-2.08 1.798l.012.102a.5.5 0 0 1-.667.529c-.332.329-.66.668-.98 1.015-2.353 2.548-4.063 5.26-4.861 8.06-.34 1.19-.72 2.461-1.157 3.869-.238.769-.492 1.574-.778 2.469-1.56 4.888-2.451 7.674-2.972 9.373.835-.667 2.425-1.92 2.662-2.119a.5.5 0 0 1 .641.768c-.282.236-2.302 1.826-2.965 2.362-.283.228-.56.454-.833.68-.27 1.004-.267 1.28-.353 2.057a.5.5 0 0 1-.994-.11c.03-.277.08-.59.15-.943a69.588 69.588 0 0 0-2.459 2.198c-3.082 2.896-5.375 5.652-6.646 8.219-.21.423-.39.839-.539 1.246-3.637 9.908-3.918 19.33 1.294 23.688 7.459 6.236 16.159 6.524 22.747-1.03 6.938-7.956 11.893-18.162 11.384-23.201-4.203-2.91-5.986-9.046-4.749-16.081 1.222-6.946 8.63-12.5 17.608-16.01-.991-2.978-8.463-7.697-12.032-7.697a.5.5 0 0 1 0-1c3.947 0 11.707 4.863 12.964 8.35 1.758-.606 3.761-.978 5.806-1.114.964-.743 2.18-1.604 2.266-1.673 1.608-1.283 2.645-2.618 3.15-4.343.255-.868.607-1.913 1.12-3.345.255-.713 1.247-3.436 1.446-3.986.259-.72.485-1.357.696-1.965 1.144-3.295 1.846-5.745 2.132-7.658.74-4.942 4.67-13.076 7.76-16.174 1.159-1.163.886-3.708-.482-5.607-1.393-1.935-3.07-2.164-4.4-.162-1.533 2.306-2.502 5.622-3.224 10.302-.144.933-.277 1.908-.424 3.077-.081.646-.338 2.767-.361 2.955-.211 1.711-.37 2.835-.555 3.839-.356 1.94-1.136 6.844-1.2 7.205-.33 1.857-.635 2.947-1.102 3.766a.5.5 0 1 1-.869-.495c.394-.692.675-1.696.987-3.447.061-.347.842-5.254 1.2-7.21.18-.979.337-2.087.546-3.78.023-.187.28-2.31.362-2.957.148-1.178.282-2.162.428-3.106.742-4.812 1.745-8.244 3.378-10.703 1.767-2.659 4.284-2.315 6.046.132 1.62 2.25 1.95 5.32.378 6.897-2.935 2.943-6.77 10.88-7.479 15.616-.297 1.99-1.013 4.489-2.176 7.838-.213.612-.44 1.253-.7 1.976-.2.553-1.192 3.274-1.446 3.984-.506 1.415-.853 2.444-1.1 3.289-.573 1.95-1.733 3.443-3.488 4.844-.093.074-.573.418-1.139.832 4.34-.004 8.606 1.052 10.881 3.192a.5.5 0 0 1-.685.729c-2.305-2.168-7.023-3.13-11.587-2.88-.347.27-.618.497-.714.612l-.003.003a.5.5 0 0 1-.858-.479c-1.69.2-3.317.571-4.743 1.115a.496.496 0 0 1-.027.01zm-66.487-30.847c4.118-2.309 11.176-4.078 13.93-3.074a.5.5 0 1 1-.343.94c-2.784-1.016-11.196 1.389-14.462 3.862l-1.26 2.487-.336.663c-6.662 13.156-9.935 20.022-10.726 22.91a.5.5 0 0 1-.964-.265c.818-2.988 4.08-9.83 10.798-23.097l.336-.663.372-.735a.5.5 0 0 1-.176-.688c.244-.408.638-.822 1.148-1.23 7.611-15.025 8.338-16.512 9.437-19.269.597-1.498 1.476-3.128 2.613-4.893 1.052-1.632 2.302-3.348 3.772-5.21.757-.959 6.924-8.274 7.076-8.782.245-.822.497-1.785.74-2.826a.498.498 0 0 1-.134-.912c.126-.076.255-.15.386-.221.654-3.066 1.177-6.57 1.177-9.08 0-2.84 1.103-5.25 3.63-9.006.08-.12.992-1.463 1.246-1.844.451-.679.794-1.224 1.084-1.734.545-.956 1.045-2.04 1.548-3.313.42-1.064 1.81-5.07 2.138-5.864.179-.434.35-.804.52-1.12.493-.92 2.679-4.58 6.039-10.139l.07-.117a3762.553 3762.553 0 0 1 6.12-10.085l-.16-3.396a.5.5 0 0 1 .998-.047l.168 3.549a.5.5 0 0 1-.072.283 2347.023 2347.023 0 0 0-1.937 3.185 3761.24 3761.24 0 0 0-4.26 7.029l-.071.116c-3.342 5.529-5.534 9.199-6.015 10.094-.152.284-.308.624-.476 1.029-.045.11-.113.289-.197.516 6.45-2.436 12.198-1.91 17.227.91 3.609 2.024 6.41 4.92 8.661 8.22a.5.5 0 0 1-.826.563c-2.172-3.184-4.872-5.975-8.324-7.911-4.896-2.746-10.489-3.2-16.849-.666a.498.498 0 0 1-.303.021c-.534 1.486-1.236 3.475-1.52 4.197-.52 1.314-1.04 2.44-1.61 3.441a30.521 30.521 0 0 1-1.12 1.792c-.257.387-1.171 1.733-1.25 1.85-2.421 3.6-3.46 5.867-3.46 8.447 0 2.388-.45 5.609-1.044 8.547 5.793-2.356 15.148-1.065 19.487 2.744a.5.5 0 1 1-.66.751c-4.216-3.701-13.744-4.876-19.082-2.289a52.007 52.007 0 0 1-.911 3.572c-.222.741-6.77 8.509-7.25 9.116-1.45 1.838-2.683 3.53-3.715 5.131-1.105 1.716-1.954 3.291-2.525 4.723-1.077 2.7-1.774 4.147-8.683 17.788zm62.879-24.135c.153-1.316.102-2.366-.178-3.095-.424-1.107-1.24-1.947-2.297-2.51l-.003.358c0 2.083-.08 3.924-.281 5.62.733-.194 1.68-.317 2.759-.373zm65.71-163.66c4.07 1.547 7.779 4.02 11.5 7.48 8.575 7.975 7.314 19.53-1.064 34.311-5.935 10.473-31.725 34.163-44.18 42.009a.5.5 0 0 1-.534-.846c12.328-7.766 38.004-31.35 43.844-41.656 8.176-14.425 9.387-25.521 1.253-33.085-9.674-8.996-19.186-11.127-35.69-7.548-2.606.566-5.335 1.371-8.205 2.407-5.42 1.957-11.056 4.603-17.928 8.269-2.628 1.402-11.088 6.068-10.998 6.018-3.973 2.164-6.636 3.507-8.882 4.43-2.503 1.026-5.07 1.898-8 2.753-1.145.333-2.306.654-3.762 1.043-.365.097-2.857.756-3.56.946-5.026 1.353-7.848 2.35-10.326 3.823-1.618.963-3.49 2.681-5.681 5.136a100.73 100.73 0 0 0-3.388 4.033c-.63.784-4.128 5.233-5.014 6.314-1.266 1.543-2.224 2.6-2.99 3.253l.872-.158a118.236 118.236 0 0 1 2.67-.445.5.5 0 0 1 .144.99c-.118.017-.35.052-.686.106-.563.09-1.216.202-1.952.333-2.104.376-4.45.842-6.976 1.404-7.217 1.605-14.434 3.653-21.165 6.182-5.397 2.027-10.255 4.285-14.438 6.782C8.818 102.456 1.469 110.231 1.02 119.208c-.507 10.169 7.69 15.672 23.275 12.963 18.725-3.257 27.152-6.091 30.73-10.736 3.662-4.755 2.742-19.334-.976-21.088a.5.5 0 0 1 .427-.904c3.415 1.61 4.756 11.267 3.287 17.918.034.021.067.046.096.076.146.146.46.385.938.63 1.966 1.01 4.537 1.01 7.736-.717.007-.004 6.367-3.37 8.439-4.515a127.167 127.167 0 0 0 3.815-2.184c4.365-2.613 6.984-4.69 7.43-6.034 1.55-4.658.22-15.57-3.267-17.779a.5.5 0 1 1 .535-.845c3.048 1.93 4.573 9.079 4.36 14.58a.498.498 0 0 1 .133.145c.027.044.088.134.18.254.16.205.347.41.561.6.992.882 2.147 1.149 3.517.461a.5.5 0 0 1 .449.894c-1.775.89-3.356.525-4.63-.607a5.78 5.78 0 0 1-.31-.297c-.113 1.095-.305 2.086-.578 2.91-.557 1.676-3.257 3.816-7.867 6.576a128.14 128.14 0 0 1-3.844 2.202c-2.082 1.15-8.447 4.519-8.447 4.519-3.493 1.886-6.413 1.886-8.669.727a5.936 5.936 0 0 1-.847-.522c-.407 1.436-.963 2.683-1.677 3.61-3.796 4.928-12.354 7.807-31.35 11.111C8.307 135.966-.52 130.04.022 119.16c.47-9.418 8.018-17.403 26.651-28.525 4.24-2.53 9.15-4.813 14.6-6.86 6.78-2.548 14.04-4.607 21.299-6.222a177.84 177.84 0 0 1 4.653-.97.5.5 0 0 1 .225-.594c.73-.418 1.839-1.571 3.483-3.577.879-1.071 4.373-5.515 5.009-6.307a101.674 101.674 0 0 1 3.42-4.072c2.255-2.525 4.192-4.303 5.917-5.33 2.579-1.532 5.468-2.553 10.577-3.929.706-.19 3.199-.85 3.562-.946 1.45-.388 2.603-.706 3.74-1.037 2.9-.846 5.433-1.707 7.9-2.719 2.203-.904 4.84-2.234 8.783-4.382-.095.052 8.371-4.617 11.007-6.022 6.91-3.687 12.585-6.351 18.058-8.327 2.91-1.05 5.682-1.869 8.333-2.444 10.029-2.175 17.58-2.267 24.148-.026a.504.504 0 0 1 .021-.068 26.157 26.157 0 0 1 .532-1.17c.445-.918.993-1.94 1.647-3.038a48.715 48.715 0 0 1 7.098-9.2c8.389-8.537 19.42-13.588 33.38-13.387 26.974.39 50.485 11.46 62.685 31.93 11.568 19.408 9.152 35.62-3.643 52.165a53.68 53.68 0 0 1-2.33 2.812c-4.177 4.703-8.658 8.06-13.143 10.293a30.845 30.845 0 0 1-4.353 1.79c-.463.148-.875.264-1.231.353-.218.053-.37.086-.454.101a.5.5 0 0 1-.181-.983c.064-.012.197-.04.395-.09.335-.082.726-.192 1.168-.333a29.85 29.85 0 0 0 4.21-1.733c4.374-2.178 8.751-5.458 12.842-10.062a52.68 52.68 0 0 0 2.286-2.76c12.562-16.244 14.912-32.019 3.575-51.04-12.004-20.142-35.188-31.058-61.84-31.443-13.672-.197-24.446 4.737-32.653 13.088a47.722 47.722 0 0 0-6.952 9.01 39.623 39.623 0 0 0-1.606 2.963 25.166 25.166 0 0 0-.518 1.14zm-22.223 133.037c8.002-4.415 14.696-2.142 18.858 3.171a.5.5 0 1 1-.787.617c-3.902-4.98-10.118-7.078-17.679-2.862a.5.5 0 0 1-.743-.464c-.559.713-1.116 1.307-1.675 1.782-4.016 3.409-6.826 19.073-3.819 26.365a.5.5 0 1 1-.924.381c-3.164-7.673-.27-23.802 4.096-27.508 2.868-2.435 5.83-8.564 9.466-17.947 2.207-5.691 12.592-10.265 25.6-10.81a12.32 12.32 0 0 1 1.632.042c1.885.171 3.804.754 5.748 1.702-.348-5.81-.15-13.089.59-23.385.956-13.297 7.23-26.267 17.085-38.443a116.508 116.508 0 0 1 11.805-12.531 100.225 100.225 0 0 1 3.894-3.396 64.227 64.227 0 0 1 1.85-1.47c.3-.228.644-.48 1.03-.753a43.469 43.469 0 0 1 3.59-2.277c2.465-1.397 4.89-2.434 7.175-2.96.504-.117.999-.207 1.482-.27a.5.5 0 1 1 .13.991 14.65 14.65 0 0 0-1.387.253c-2.178.502-4.52 1.503-6.907 2.856a42.478 42.478 0 0 0-4.51 2.957c-.173.131-.293.224-.364.281a63.231 63.231 0 0 0-1.453 1.163 99.229 99.229 0 0 0-3.854 3.362 115.517 115.517 0 0 0-11.704 12.423c-9.738 12.031-15.926 24.823-16.864 37.886-.763 10.627-.95 18-.553 23.852 3.648 2.013 7.372 5.279 11.1 9.506 2.257 2.56 4.358 5.302 6.248 8.043.661.96 1.25 1.85 1.757 2.651a55.961 55.961 0 0 1 .627 1.012.5.5 0 1 1-.86.51l-.154-.255a82.744 82.744 0 0 0-2.193-3.35c-1.87-2.71-3.946-5.421-6.175-7.95-3.46-3.923-6.908-6.99-10.258-8.96.467 5.525 1.493 9.711 3.08 14.183l.21.59.324.919c1.159.348 2.338.869 3.536 1.549 3.131 1.779 6.072 4.407 9.334 7.977a.5.5 0 0 1-.739.674c-4.221-4.62-8.107-7.808-11.758-9.114.13.387.245.746.363 1.128a.5.5 0 0 1-.955.296 55.001 55.001 0 0 0-.586-1.781c-2.46-.61-4.817-.32-7.101 1.018-7.62 4.46-15.85 22.232-13.617 29.77a.5.5 0 0 1-.959.284c-2.371-8.003 6.072-26.236 14.071-30.917 2.289-1.34 4.715-1.69 7.248-1.177l-.103-.29-.21-.59c-1.68-4.733-2.74-9.153-3.187-15.102-2.018-1.054-3.997-1.695-5.917-1.87a11.32 11.32 0 0 0-1.5-.038c-12.653.53-22.683 4.947-24.709 10.173-2.895 7.47-5.34 12.858-7.725 16.103zM65.16 263.947a283.364 283.364 0 0 0 2.886-5.409c1.464-2.83 2.525-5.053 3.038-6.423 1.84-4.922 5.22-10.107 8.76-12.732 3.574-2.65 11.741-10.716 13.362-13.064a.5.5 0 1 1 .823.568c-1.688 2.446-9.932 10.587-13.59 13.299-3.362 2.494-6.64 7.522-8.419 12.279-.53 1.42-1.604 3.669-3.086 6.533l-.47.902a289.525 289.525 0 0 1-3.888 7.168.5.5 0 0 1-.49.252 66.962 66.962 0 0 1-3.205 7.5c-5.958 11.957-19.412 18.882-26.356 13.524-6.659-5.14-8.681-14.7-5.909-26.87 1.048-4.6 3.322-8.766 6.451-12.467a37.414 37.414 0 0 1 4.852-4.775c.58-.475 1.118-.886 1.603-1.232.293-.21.504-.352.62-.426a.5.5 0 1 1 .538.843c-.102.065-.298.197-.577.396-.467.334-.988.732-1.55 1.193a36.42 36.42 0 0 0-4.722 4.646c-3.033 3.587-5.23 7.614-6.24 12.043-2.694 11.828-.755 20.994 5.545 25.857 6.329 4.883 19.135-1.709 24.85-13.178 5.495-11.025 7.003-20.972 4.54-26.442a.5.5 0 0 1 .912-.41c1.734 3.85 1.631 9.658-.278 16.425zm82.83-67.476a.5.5 0 1 1-.887-.463c3.264-6.25 16.952-10.189 26.789-7.447a.5.5 0 0 1-.269.963c-9.423-2.626-22.616 1.17-25.633 6.947zm-11.737 34.553a.5.5 0 0 1-.915-.405c1.612-3.638 9.73-6.945 16.11-5.555a.5.5 0 0 1-.214.978c-5.944-1.296-13.577 1.813-14.981 4.982z"/>
</svg>
