<svg xmlns="http://www.w3.org/2000/svg" width="322" height="270" viewBox="0 0 322 270">
    <path fill="#1747FF" fill-rule="nonzero" d="M144.436 205.832c-.554.232-1.193.49-1.913.765a92.205 92.205 0 0 1-7.168 2.405c-10.101 2.946-20.396 4.27-30.02 3.059a50.444 50.444 0 0 1-3.599-.584c-20.798-4.159-28.939-8.787-32.85-18.576-.97-2.429-1.655-4.57-2.919-8.911a268.735 268.735 0 0 0-1.118-3.786c-2.226-7.294-4.422-12.035-8.12-16.446-9.62-11.478-12.816-17.18-12.165-24.445-4.064 4.05-8.146 8.17-12.218 12.326a.498.498 0 0 1 .152.32c.464 5.612 2.434 9.613 6.63 14.617.253.302 6.282 7.08 8.156 9.468a60.215 60.215 0 0 1 4.955 7.317c10.04 17.518 19.412 27.754 35.407 36.28 4.43 2.36 9.697 4.07 15.628 5.2 9.071 1.729 18.71 1.982 27.455 1.377.724-.05 1.385-.103 1.975-.156-1.37-2.134-1.595-5.872-.566-9.248 1.345-4.414 4.4-6.99 8.425-6.159.79.164 1.467.5 2.024.977l1.85-5.8zm.402-1.262l3.218-10.095a95.672 95.672 0 0 1-1.044.245 326.01 326.01 0 0 1-13.246 2.758 245.596 245.596 0 0 1-10.886 1.794c-9.346 1.307-16.592 1.633-20.973.688-15.635-3.374-24.219-8.874-26.95-20.118-2.793-11.496-8.302-23.76-14.03-32.205-1.42-2.094-2.472-4.687-3.201-7.666-1.043-4.26-1.33-8.699-1.203-12.419a1236.05 1236.05 0 0 0-11.198 11.003.5.5 0 0 1 .269.498c-.752 7.072 2.295 12.6 11.901 24.062 3.801 4.535 6.05 9.386 8.31 16.797.314 1.03.474 1.572 1.122 3.798 1.256 4.31 1.932 6.43 2.887 8.82 3.755 9.397 11.618 13.867 32.118 17.967 1.156.23 2.332.421 3.527.572 9.47 1.19 19.635-.117 29.616-3.027a91.21 91.21 0 0 0 7.09-2.378 64.899 64.899 0 0 0 1.95-.782 29.031 29.031 0 0 0 .723-.312zm8.303-26.05l1.969-6.177c-5.253.57-11.16 1.028-18.102 1.417-22.748 1.274-33.208 1.015-41.585-1.678-9.621-3.094-15.132-9.633-18.325-21.861-3.883-14.87-5-27.836-4.516-37.873a781.889 781.889 0 0 0-6.837 6.379c-.838 6.039.5 13.762 3.363 21.687.716 1.981 4.064 10.686 4.862 12.845 2.125 5.746 3.694 10.564 4.88 15.234 2.294 9.047 9.594 14.815 17.706 15.868 2.499.325 7.496.071 14.219-.621 1.82-.187 3.73-.404 5.7-.643a424.868 424.868 0 0 0 10.45-1.404.5.5 0 0 1 .15.989l-.824.121a425.865 425.865 0 0 1-9.657 1.287c-1.975.24-3.89.457-5.717.645-6.804.7-11.846.956-14.45.618-8.498-1.104-16.145-7.146-18.547-16.614-1.175-4.63-2.734-9.417-4.848-15.134-.794-2.149-4.144-10.858-4.864-12.851-2.729-7.553-4.1-14.935-3.551-20.96l-.03.027a963.603 963.603 0 0 0-7.159 6.855.498.498 0 0 1 .119.356c-.006.09-.014.265-.023.518-.127 3.644.152 8.013 1.173 12.183.703 2.872 1.71 5.357 3.057 7.343 5.794 8.543 11.353 20.916 14.174 32.53 2.618 10.775 10.89 16.074 26.19 19.376 4.23.913 11.39.59 20.624-.7a244.611 244.611 0 0 0 10.84-1.786 325.016 325.016 0 0 0 13.204-2.75 173.876 173.876 0 0 0 1.097-.258.5.5 0 0 1 .45.114l4.48-14.055-9.715 1.943a.5.5 0 1 1-.196-.98l10-2a.498.498 0 0 1 .239.01zm-88.335-60.282c.07-.457.153-.906.249-1.344a.5.5 0 0 1 .982.183 762.987 762.987 0 0 1 6.626-6.162l.008-.125c.037-.562.077-1.052.118-1.467.024-.25.043-.42.054-.51a.5.5 0 1 1 .992.125 39.8 39.8 0 0 0-.097.99c7.471-6.834 14.295-12.763 20.376-17.67a.5.5 0 0 1-.571-.285 5.694 5.694 0 0 0-.127-.26 13.475 13.475 0 0 0-2.072-2.931c-.805-.862-1.705-1.585-2.7-2.123-.828-.449-7.027-5.17-8.992-6.517-4.54-3.112-8.62-5.21-12.468-6.138-1.929-.465-3.75-.614-5.457-.423-4.819.538-7.334 6.803-8.03 17.142-.274 4.072-.248 8.167-.035 13.108-.006-.157.145 3.105.158 3.635.158 6.154 2.147 14.11 4.416 16.163a.5.5 0 0 1-.67.742c-2.539-2.297-4.582-10.468-4.745-16.88-.014-.517-.164-3.76-.158-3.617-.215-4.974-.24-9.102.036-13.218.727-10.806 3.396-17.452 8.917-18.07 1.83-.204 3.766-.045 5.802.446 3.99.961 8.168 3.11 12.8 6.285 2.021 1.387 8.154 6.058 8.902 6.462 1.096.594 2.08 1.383 2.954 2.32a14.466 14.466 0 0 1 2.232 3.157c.074.146.125.252.151.313a.499.499 0 0 1-.006.417 253.32 253.32 0 0 1 2.544-2.02 232.387 232.387 0 0 1-.862-1.501 262.99 262.99 0 0 1-2.605-4.676l-.002-.004c-1.247-2.306-1.256-3.615-.61-13.887.125-1.98.214-3.62.282-5.327.058-1.448.09-2.827.143-5.619.057-3.05.079-4.062.125-5.614.337-11.14 1.39-17.105 4.267-18.883 4.169-2.577 12.043.5 17.375 5.284l.014.012c1.607 1.442 4.65 2.995 9.002 4.744 1.98.795 8.675 3.26 9.54 3.64 1.026.452 2.26 1.416 3.698 2.816.582.567 1.19 1.199 1.825 1.893 1.306 1.427 4.07 4.727 4.113 4.76.02.014.038.03.055.047 1.093-.695 2.15-1.356 3.174-1.984a37.02 37.02 0 0 0-.355-1.32 37.214 37.214 0 0 0-1.338-3.885c-.474-1.15-.98-2.16-1.51-2.993-1.117-1.749-1.073-4.688-.053-9.729.422-2.082 1-4.498 1.907-8.05.204-.796 2.065-7.971 2.674-10.371 3.86-15.213 4.689-16.623 10.738-18.5 2.754-.854 5.478.02 8.164 2.224 1.877 1.54 3.376 3.328 5.358 6.087.745 1.038 2.296 2.56 4.452 4.42.427.368.874.747 1.34 1.134a169.619 169.619 0 0 0 5.627 4.456 11.614 11.614 0 0 1 1.736-3.037c4.746-5.916 9.492-7.907 13.444-7.599l.084-.145.324-.564c1.495-2.618 2.603-3.683 5.128-4.16 1.739-.328 3.145-.048 4.22.627l.154.1c.456-.52 1.053-.969 1.802-1.334 5.801-2.83 11.615-2.014 16.226 4.119 4.51 5.996 6.899 13.183 5.394 18.14-1.31 4.318-7.27 6.183-11.673 4.803a14.95 14.95 0 0 1-.419 2.153c22.905-5.266 45.538-9.98 52.088-10.398 10.323-.659 20.308-.462 28.812 1.104 11.846 2.18 19.189 6.798 20.464 14.443 2.736 16.415-26.31 40.656-55.494 47.171-2.999.67-6.115 1.383-9.339 2.135-3.02.706-6.122 1.444-9.296 2.21a1732.078 1732.078 0 0 0-28.452 7.147c13.344-1.718 29.241-.05 46.923 6.94 20.38 8.058 31.64 13.651 36.952 19.593.139.029.264.117.337.251.056.103.107.21.155.32 3.447 4.168 4.042 8.549 2.864 14.101-1.706 8.045-12.533 14.495-29.564 19.146-13.505 3.688-30.302 5.922-41.84 5.922-4.381 0-8.083-.3-14.23-1.023-11.607-1.365-15.258-1.47-20.476.1a244.62 244.62 0 0 0-6.034 1.908c-1.077.354-4.837 1.606-5.608 1.86-10.6 3.493-19.447 5.619-32.017 7.049l-12.835 40.27c1.453 2.077 1.542 5.575.11 9.333-1.31 3.435-3.12 5.73-5.14 6.448l-8.097 25.407c-.04.131-.121.369-.247.697a22.316 22.316 0 0 1-.781 1.793 25.653 25.653 0 0 1-3.542 5.422c-5.654 6.625-13.978 9.62-25.395 6.953-26.975-6.3-52.34-18.14-64.753-31.924-2.02-2.244-17.936-19.19-21.66-23.658-3.853-4.62-6.824-8.848-9.293-13.355C.359 191.934-.29 186.61 1.18 183.266c.266-.603.541-.996.73-1.183a256.709 256.709 0 0 1 1.102-1.19 1453.738 1453.738 0 0 1 6.488-6.928.5.5 0 0 1 .434-.46 1659.232 1659.232 0 0 1 10.869-11.408c-3.2-4.446-3.993-12.332-2.76-30.953.611-9.208 2.276-15.024 4.778-18.085 1.868-2.286 3.971-2.866 6.25-2.429 1.403.269 2.552.966 7.609 4.342l.74.493c2.573 1.702 4.255 2.695 5.658 3.269 5.87 2.4 13.099 5.991 13.402 7.056a.5.5 0 1 1-.962.274c-.162-.568-7.677-4.303-12.818-6.405-1.483-.606-3.205-1.623-5.83-3.36l-.746-.496c-4.833-3.226-6.045-3.962-7.241-4.19-1.944-.374-3.673.104-5.288 2.079-2.343 2.867-3.956 8.498-4.553 17.518-1.205 18.179-.46 25.93 2.467 30.153 1.328-1.38 2.659-2.758 3.992-4.134a18.38 18.38 0 0 1 .02-1.264.5.5 0 0 1 .997.07 5.704 5.704 0 0 0-.008.154c8.987-9.256 18.07-18.396 26.968-27.072a1001.046 1001.046 0 0 1 11.327-10.879zm68.684 108.753l-.293.03c-.695.066-1.498.133-2.399.195-8.824.61-18.543.355-27.712-1.392-6.023-1.148-11.384-2.888-15.91-5.3-16.183-8.627-25.68-18.997-35.805-36.666a59.221 59.221 0 0 0-4.874-7.197c-1.851-2.359-7.864-9.119-8.136-9.443-4.213-5.024-6.276-9.128-6.821-14.755a1623.637 1623.637 0 0 0-5.026 5.16c.031.785.11 1.679.253 2.653.356 2.418 1.048 4.803 2.153 7.03 1.29 2.595 1.061 2.303 9.96 13.21a208.603 208.603 0 0 1 2.833 3.54c2.318 2.969 4.072 5.458 5.386 7.719.369.634 1.832 3.204 2.134 3.728a133.636 133.636 0 0 0 2.672 4.465c2.315 3.69 4.719 7.012 7.45 10.16 6.6 7.607 14.574 13.533 24.497 17.46 10.103 3.996 21.418 5.816 33.038 5.908 7.897.063 15.603-.753 18.988-1.606a.498.498 0 0 1 .252.002l1.08-3.386c-1.207.075-2.465-.402-3.72-1.515zm.37-1.044l.08-.01a.5.5 0 0 1 .552.587c1.036.804 2.07 1.085 3.064.894l4.688-14.708a3.425 3.425 0 0 0-1.883-1.075c-3.438-.71-6.056 1.498-7.266 5.47-1.034 3.392-.687 7.165.765 8.842zm1.937 6.992c-3.617.844-11.177 1.619-18.915 1.557-11.735-.093-23.168-1.932-33.398-5.979-10.08-3.988-18.184-10.01-24.885-17.734-2.767-3.19-5.2-6.552-7.541-10.283-.891-1.42-1.732-2.83-2.692-4.498-.304-.528-1.766-3.095-2.132-3.725-1.287-2.214-3.017-4.67-5.309-7.605a207.645 207.645 0 0 0-2.82-3.523c-9.012-11.047-8.738-10.696-10.08-13.4-1.156-2.327-1.877-4.812-2.247-7.328a27.163 27.163 0 0 1-.207-1.825 1732.643 1732.643 0 0 0-15.04 15.734c.65 6.861 4.356 12.98 16.784 28.76.609.772 3.46 4.404 4.245 5.398 13.41 17.01 22.082 25.928 36.011 35.327 4.517 3.048 9.87 5.328 15.886 6.92 9.784 2.589 20.119 3.155 29.188 2.577a66.61 66.61 0 0 0 2.025-.16c.403-1.94 1.506-3.906 3.166-5.598 3.55-3.618 8.015-4.275 10.245-.63 1.187 1.939-.305 6.149-3.055 9.59-3.026 3.787-6.458 5.247-8.755 2.786-1.358-1.454-1.897-3.255-1.748-5.129l-.083.008c-.499.044-1.078.089-1.732.13-9.167.585-19.602.013-29.507-2.608-6.118-1.618-11.572-3.941-16.19-7.057-14.032-9.47-22.768-18.453-36.236-35.536-.785-.996-3.638-4.628-4.246-5.4-12.047-15.296-16.002-21.64-16.897-28.424a1439.627 1439.627 0 0 0-5.886 6.289c-.315.339-.589.634-.82.885l-.295.318c-.117.117-.32.407-.534.893-1.333 3.03-.723 8.036 3.345 15.459 2.435 4.445 5.37 8.621 9.184 13.195 3.702 4.44 19.597 21.366 21.635 23.629 12.249 13.6 37.443 25.361 64.238 31.62 11.04 2.58 18.989-.28 24.406-6.63a24.66 24.66 0 0 0 3.404-5.21c.302-.62.55-1.196.746-1.711.117-.306.19-.522.226-.638l6.516-20.444zm2.959-5.992c1.435-.86 2.74-2.743 3.782-5.478 1.166-3.059 1.245-5.838.409-7.671l-4.191 13.149zm164.742-101.5a6.683 6.683 0 0 1-.913 3.167c-1.312 2.208-3.789 3.374-7.184 3.031-1.37-.138-11.58-2.066-14.273-2.516-15.959-2.668-30.25-3.46-44.048-1.433a87.397 87.397 0 0 0-9.02 1.8c-20.719 5.314-32.66 5.031-38.144 1.286-1.556-1.062-2.245-2.162-2.406-2.942a.5.5 0 0 1 .175-.489c.124-.101.377-.334.742-.717a27.184 27.184 0 0 0 2.093-2.517c2.218-2.978 4.54-6.984 6.848-12.163 4.28-9.601 6.033-12.997 6.502-13.353a.5.5 0 0 1 .744.164.501.501 0 0 1 .106-.042l.9-.243 2.561-.684c2.77-.738 5.888-1.56 9.286-2.444 9.71-2.528 19.72-5.056 29.486-7.415a1258.35 1258.35 0 0 1 9.304-2.212 980.915 980.915 0 0 1 9.348-2.138c28.733-6.414 57.349-30.296 54.726-46.03-1.187-7.113-8.182-11.512-19.659-13.624-8.407-1.548-18.32-1.744-28.567-1.09-6.551.418-29.456 5.2-52.51 10.51-1.047 2.793-2.977 4.825-5.652 5.673a9.793 9.793 0 0 1-2.824.476.499.499 0 0 1 .264.334c.017.07.04.19.061.354a7.022 7.022 0 0 1-.949 4.571c-1.571 2.622-4.855 4.322-10.217 4.712-5.025.366-9.683-3.234-12.977-8.335-7.723 1.964-14.183 3.708-18.336 4.984a74.645 74.645 0 0 0-5.438 1.903c-4.891 1.926-9.847 4.462-15.943 8.17a.5.5 0 0 1-.498.304c-1.894 1.16-3.9 2.433-6.047 3.835-7.219 4.713-5.662 3.63-35.825 24.756-8.455 5.922-19.128 14.863-31.579 26.29-.606 10.072.442 23.312 4.43 38.588 3.112 11.916 8.39 18.18 17.664 21.162 8.215 2.641 18.606 2.899 41.224 1.631 24.235-1.358 35.776-3.538 50.95-8.538.768-.253 4.528-1.505 5.608-1.86a245.58 245.58 0 0 1 6.058-1.916c5.4-1.625 9.127-1.518 20.88-.136 6.111.72 9.781 1.017 14.114 1.017 11.45 0 28.157-2.222 41.577-5.887 16.684-4.556 27.25-10.85 28.849-18.388.948-4.47.675-8.149-1.491-11.607zm-1.242-1.71c-4.938-5.965-16.048-11.542-36.965-19.812-19.997-7.906-37.66-8.936-51.869-5.962-1.525.32-2.859.661-3.99 1.003-.395.118-.736.229-1.021.327-.17.059-.282.1-.336.12a.5.5 0 0 1-.672-.375 1070.787 1070.787 0 0 0-2.421.65.5.5 0 0 1-.547-.204l-.04.065c-.187.297-.464.793-.845 1.531-1.1 2.132-2.813 5.774-5.268 11.281-2.339 5.245-4.697 9.315-6.96 12.353a28.17 28.17 0 0 1-2.172 2.61c-.228.24-.419.427-.57.568.05.11.122.247.22.404.35.558.894 1.124 1.68 1.66 5.189 3.544 16.865 3.82 37.331-1.43a88.395 88.395 0 0 1 9.124-1.82c13.92-2.043 28.306-1.247 44.358 1.437 2.734.457 12.888 2.374 14.209 2.507 3.018.305 5.115-.683 6.224-2.547.817-1.374.98-3.128.53-4.367zM142.505 58.193c-.693-.782-2.996-3.518-4.056-4.675a45.418 45.418 0 0 0-1.785-1.851c-1.358-1.323-2.514-2.226-3.403-2.617-.83-.366-7.505-2.822-9.51-3.628-4.458-1.792-7.574-3.382-9.283-4.916l-.014-.012c-5.047-4.528-12.533-7.453-16.195-5.19-2.43 1.503-3.47 7.394-3.793 18.063a431.496 431.496 0 0 0-.125 5.603c-.052 2.798-.086 4.182-.144 5.64a226.784 226.784 0 0 1-.283 5.35c-.626 9.95-.617 11.3.491 13.348l.002.003c.112.208.227.418.344.632a262.018 262.018 0 0 0 3.04 5.401 174.46 174.46 0 0 1 6.85-5.074c30.18-21.139 28.618-20.052 35.852-24.774.684-.447 1.355-.881 2.012-1.303zm4.917-3.07c5.98-3.62 10.886-6.118 15.739-8.03a75.645 75.645 0 0 1 5.51-1.927c4.113-1.265 10.474-2.984 18.077-4.92-3.666-6.16-5.387-14.18-3.562-20.114a156.701 156.701 0 0 1-1.496-1.142 154.448 154.448 0 0 1-4.424-3.538c-.47-.391-.922-.774-1.353-1.146-2.213-1.91-3.806-3.473-4.611-4.594-4.498-6.26-8.155-9.26-12.413-7.939-5.61 1.74-6.284 2.89-10.066 17.79-.61 2.404-2.47 9.58-2.674 10.375-.904 3.535-1.478 5.938-1.896 8-.969 4.788-1.01 7.542-.085 8.992.567.887 1.097 1.95 1.593 3.15a38.19 38.19 0 0 1 1.374 3.99c.107.374.203.726.287 1.052zm36.659-34.513c-1.673 5.705.093 13.485 3.678 19.378a1325.67 1325.67 0 0 1 16.007-3.942c-1.762-1.812-3.433-4.347-5.008-7.634-4.146-8.65-2.19-17.25 3.087-19.426l.054-.019a14.358 14.358 0 0 1 1.07-.236c1.174-.21 2.376-.296 3.509-.183.404.04.79.105 1.155.197-.193-.918-.196-1.861.085-2.766a4.46 4.46 0 0 1 .334-.796 3.836 3.836 0 0 0-.114-.075c-.865-.543-2.016-.772-3.504-.49-2.17.41-3.08 1.283-4.445 3.672l-.204.357c.173.034.302.067.383.093a.5.5 0 0 1-.302.953 3.577 3.577 0 0 0-.423-.092c-3.769-.644-8.515 1.045-13.393 7.127a10.79 10.79 0 0 0-1.691 3.04.5.5 0 0 1-.278.842zm34.12-2.237a18.55 18.55 0 0 1 1.73 4.653c.478 2.14.649 4.178.534 6.046.021.004.043.01.064.017 3.943 1.319 9.424-.354 10.56-4.094 1.392-4.587-.9-11.48-5.238-17.248-4.296-5.714-9.585-6.456-14.988-3.821-.634.31-1.127.679-1.495 1.102l.036.047a.5.5 0 0 1-.565.768 3.5 3.5 0 0 0-.166.433c-.269.866-.21 1.814.055 2.725.015.053.03.104.046.152.056.027.11.055.165.084a23.18 23.18 0 0 1 5.48 4.063l.101-.104c.974-.976 2.758-.884 4.232-.01 1.564.928 2.256 2.44 1.346 3.8a3.343 3.343 0 0 1-1.898 1.387zm-.515-.91a2.37 2.37 0 0 0 1.581-1.032c.528-.79.105-1.714-1.025-2.385-1.125-.667-2.426-.734-3.014-.144-.04.04-.08.081-.116.122a21.437 21.437 0 0 1 2.574 3.439zm-.556 1.04a4.157 4.157 0 0 1-2.047-.616c-1.45-.883-1.992-2.363-1.259-3.763a22.206 22.206 0 0 0-5.085-3.859.5.5 0 0 1-.695-.223 3.129 3.129 0 0 1-.063-.143 6.245 6.245 0 0 0-1.602-.356c-1.029-.102-2.143-.023-3.232.173-.43.077-.76.154-.948.206-4.657 1.947-6.453 9.893-2.54 18.058 1.671 3.485 3.417 6.062 5.243 7.793 4.554-1.09 9.243-2.192 13.932-3.273.824-2.54.908-5.734.121-9.256a17.605 17.605 0 0 0-1.825-4.74zm-.663-1.1a20.627 20.627 0 0 0-1.894-2.479c-.243.804.145 1.57 1.03 2.108.278.17.57.293.864.371zm1.933 16.224c-4.226.976-8.447 1.968-12.565 2.952 2.453 1.914 5.05 2.365 7.806 1.492 2.15-.68 3.773-2.252 4.76-4.444zm-13.772 3.24a1344.776 1344.776 0 0 0-16.305 4.01c3.09 4.667 7.349 7.928 11.882 7.598 5.061-.368 8.044-1.913 9.433-4.229a6.049 6.049 0 0 0 .815-3.926 2.98 2.98 0 0 0-.043-.256.5.5 0 0 1 .274-.567c-2.121-.077-4.141-.943-6.056-2.63zm15.6-28.965c-1.138 1.14-.882 2.365.375 3.13 1.282.78 2.862.599 3.664-.601.528-.79.105-1.714-1.025-2.385-1.125-.667-2.426-.734-3.014-.144zm3.524-.716c1.564.927 2.256 2.44 1.346 3.8-1.127 1.688-3.31 1.939-5.015.9-1.778-1.081-2.19-3.061-.563-4.69.974-.976 2.758-.884 4.232-.01zm-91.65 169.79c-.418.469-.652 1.158-.593 2.143.217 3.579 3.38 10.13 6.345 11.13 3.342 1.127 5.394-1.81 4.403-6.365-.886-4.065-6.8-8.07-9.643-7.309-.114.047-.309.173-.512.4zm.183-1.345l.039-.013c3.41-.949 9.904 3.437 10.91 8.054 1.134 5.212-1.477 8.949-5.7 7.525-3.447-1.162-6.785-8.077-7.023-12.018-.076-1.249.248-2.2.845-2.869.333-.374.675-.586.929-.68zm-13.736 72.623c-3.235 3.298-4.112 7.616-1.547 10.363 1.724 1.848 4.545.648 7.243-2.728 2.51-3.14 3.873-6.99 2.983-8.445-1.808-2.956-5.52-2.41-8.679.81z"/>
</svg>
