<svg xmlns="http://www.w3.org/2000/svg" width="97" height="89" viewBox="0 0 97 89">
    <g fill="#FFF" fill-rule="evenodd">
        <path d="M80.682 48.34c0-17.687-14.437-32.076-32.182-32.076-17.745 0-32.182 14.39-32.182 32.076h13.598c0-10.213 8.337-18.523 18.584-18.523s18.584 8.31 18.584 18.523c0 14.698-11.997 26.655-26.743 26.655-14.746 0-26.743-11.957-26.743-26.655 0-19.182 15.657-34.786 34.902-34.786S83.402 29.158 83.402 48.34H97C97 21.686 75.243 0 48.5 0S0 21.686 0 48.34c0 22.17 18.097 40.208 40.341 40.208S80.682 70.511 80.682 48.34"/>
        <path d="M64.364 48.34c0-8.733-7.102-15.812-15.864-15.812s-15.864 7.08-15.864 15.812c0 8.733 7.102 15.813 15.864 15.813s15.864-7.08 15.864-15.813"/>
    </g>
</svg>
