<svg xmlns="http://www.w3.org/2000/svg" width="34" height="34" viewBox="0 0 34 34">
    <path fill="#FFF" fill-rule="nonzero" d="M33.172 29.143l-6.856-7.429L25.23 22.8l-1.256-1.257c.085-.114.2-.257.285-.372a13.393 13.393 0 0 0 2.485-7.8 13.35 13.35 0 0 0-3.913-9.457A13.31 13.31 0 0 0 13.376 0C9.806 0 6.434 1.4 3.92 3.943c-5.228 5.228-5.228 13.714 0 18.914a13.31 13.31 0 0 0 9.455 3.914c2.742 0 5.37-.828 7.598-2.371.2-.143.372-.257.571-.4l1.229 1.229-1.229 1.228 7.57 6.714a2.827 2.827 0 0 0 2.028.829A2.827 2.827 0 0 0 34 31.143a2.81 2.81 0 0 0-.828-2zm-13.255-9.2a9.257 9.257 0 0 1-13.111 0c-3.628-3.6-3.6-9.486 0-13.114a9.237 9.237 0 0 1 13.083 0 9.24 9.24 0 0 1 2.713 6.542 9.11 9.11 0 0 1-2.685 6.572z"/>
</svg>
