<svg xmlns="http://www.w3.org/2000/svg" width="251" height="310" viewBox="0 0 251 310">
    <path fill="#1747FF" fill-rule="nonzero" d="M168.7 283.08c3.319-2.464 5.993-4.71 7.666-6.48 2.631-2.783 6.99-8.362 11.892-15.172a.499.499 0 0 1-.385.056c-.68-.18-1.451-.247-3.266-.33a85.55 85.55 0 0 1-1.377-.068c-3.325-.197-5.174-.725-6.072-2.208l-1.056-1.744c-2.725 1.046-5.24 1.495-7.736 1.184a346.002 346.002 0 0 0-11.136-1.18l-.288.131a74.276 74.276 0 0 1-4.872 1.984c-1.3.476-2.56.891-3.758 1.23-1.947.55-3.66.88-5.08.945-1.245.056-2.696.09-4.311.101-1.096.009-2.233.007-3.383-.002a12.09 12.09 0 0 1 1.737 1.16c.435.346.84.85 1.265 1.545.285.467 3.294 6.7 4.665 8.822 3.868 5.986 9.23 9.567 17.582 10.312 2.792.25 5.447.138 7.913-.286zm-1.707 1.245c-2.004.213-4.11.232-6.295.037-8.676-.774-14.306-4.533-18.333-10.766-1.414-2.188-4.43-8.435-4.678-8.842-.37-.604-.707-1.024-1.034-1.285-1.396-1.11-2.787-1.723-4.074-1.981a315.111 315.111 0 0 1-2.594-.06c-.59-.017-.667-.865-.09-.988a3.57 3.57 0 0 1 .314-.048 8.232 8.232 0 0 1 2.48.098c2.104.038 4.231.054 6.224.04 1.604-.013 3.042-.045 4.274-.1 1.331-.061 2.973-.378 4.852-.91 1.172-.33 2.41-.739 3.688-1.206a73.286 73.286 0 0 0 5.201-2.138.5.5 0 0 1 .256-.046l.955.086a347.053 347.053 0 0 1 10.35 1.11c2.258.28 4.568-.117 7.086-1.062l-.003-.005a.5.5 0 0 1 .856-.518l.09.148c.332-.14.669-.288 1.01-.445.755-.348 3.478-1.742 3.935-1.913a.5.5 0 0 1 .35.938c-.393.146-3.065 1.514-3.867 1.884-.304.14-.606.274-.905.4l.972 1.607c.658 1.087 2.284 1.55 5.276 1.728.373.022.607.034 1.363.068 1.895.085 2.699.156 3.475.36a.5.5 0 0 1 .361.592 405.578 405.578 0 0 0 2.226-3.13c-3.159-4.314-5.924-10.2-5.924-12.918 0-.404-.311-.617-1.098-.67-.799-.052-1.929.106-3.292.437-.641.156-1.318.347-2.018.564a46.403 46.403 0 0 0-2.923 1.02.5.5 0 0 1-.378-.004l-7.403-3.098a.5.5 0 0 1-.282-.617l.123-.367a80.183 80.183 0 0 1 1.428-3.88c.274-.678.539-1.297.793-1.843.725-1.557 1.297-2.44 1.89-2.64.854-.289 2.51-2.157 4.056-4.49-1.881.12-3.325-.097-4.245-.737l-.147-.161a7.21 7.21 0 0 0-.168-.27 17.134 17.134 0 0 0-2.495-3.005c-1.869-1.783-3.972-2.943-6.271-3.197-2.513-.278-4.777.609-6.753 2.27a12.78 12.78 0 0 0-1.602 1.613 8.472 8.472 0 0 0-.543.716.5.5 0 0 1-.612.188l-10.018-4.178a.5.5 0 0 1-.301-.38 36.638 36.638 0 0 1-.22-1.714c-.232-2.214-.302-4.508-.113-6.66.369-4.177 1.653-7.124 4.178-8.24.72-.318 1.473-.602 2.257-.853 2.085-.667 4.309-1.082 6.56-1.295a33.205 33.205 0 0 1 3.624-.156l.037-.119.42-1.362a28715.618 28715.618 0 0 1 6.054-19.619l.033-.107c3.775-12.212 6.188-19.974 6.6-21.2 1.148-3.43 2.25-10.1 1.942-15.93-.21-4.004-1.023-7.469-2.514-10.281a.5.5 0 0 1-.55.159 107.712 107.712 0 0 0-1.363-.447 179.747 179.747 0 0 0-3.852-1.184 241.21 241.21 0 0 0-13.638-3.596c-8.979-2.092-17.904-3.656-26.486-4.506-8.582.85-17.507 2.414-26.486 4.506a241.21 241.21 0 0 0-13.638 3.596c-1.448.428-2.737.826-3.851 1.183a107.716 107.716 0 0 0-1.363.448.5.5 0 0 1-.551-.16c-1.491 2.813-2.303 6.278-2.514 10.282-.307 5.83.794 12.5 1.942 15.93.412 1.226 2.825 8.988 6.599 21.2l.033.107a25138.551 25138.551 0 0 1 6.054 19.619l.42 1.362.037.12c.97-.017 2.208.021 3.622.155 2.25.212 4.473.627 6.557 1.293.786.252 1.541.536 2.263.855 2.525 1.116 3.81 4.063 4.178 8.24.19 2.152.12 4.446-.112 6.66a36.638 36.638 0 0 1-.221 1.715.5.5 0 0 1-.3.379l-10.02 4.178a.5.5 0 0 1-.611-.188 8.47 8.47 0 0 0-.543-.716c-.456-.55-.992-1.1-1.602-1.612-1.977-1.662-4.241-2.549-6.754-2.271-2.299.254-4.401 1.414-6.27 3.197a17.136 17.136 0 0 0-2.495 3.005c-.085.132-.141.224-.168.27l-.147.16c-.92.64-2.364.858-4.245.739 1.547 2.332 3.202 4.2 4.056 4.49.593.2 1.165 1.084 1.89 2.642.255.545.52 1.163.792 1.84a72.306 72.306 0 0 1 1.43 3.88l.122.367a.5.5 0 0 1-.282.617l-7.404 3.098a.5.5 0 0 1-.378.004 46.395 46.395 0 0 0-2.923-1.02 33.58 33.58 0 0 0-2.018-.564c-1.363-.331-2.492-.49-3.291-.436-.787.052-1.098.265-1.098.67 0 2.717-2.766 8.603-5.924 12.918a405.46 405.46 0 0 0 2.226 3.13.5.5 0 0 1 .36-.593c.777-.204 1.58-.275 3.476-.36.756-.034.991-.046 1.364-.068 2.991-.178 4.618-.642 5.276-1.728l.971-1.606c-.299-.127-.6-.261-.905-.401-.802-.37-3.474-1.738-3.867-1.884a.5.5 0 0 1 .35-.938c.457.17 3.18 1.565 3.935 1.913.34.157.678.306 1.01.445l.09-.148a.5.5 0 1 1 .856.518l-.003.005c2.518.945 4.828 1.343 7.085 1.062a346.962 346.962 0 0 1 11.307-1.196.5.5 0 0 1 .256.046l.397.182a73.262 73.262 0 0 0 4.803 1.957c1.278.467 2.516.874 3.688 1.206 1.878.532 3.52.848 4.852.908 1.231.056 2.67.088 4.274.1 1.992.015 4.12-.001 6.224-.04a8.235 8.235 0 0 1 2.48-.097c.146.017.251.034.313.048.578.123.502.97-.089.988a273.098 273.098 0 0 1-2.595.06c-1.287.258-2.678.871-4.074 1.981-.327.261-.664.681-1.034 1.285-.248.407-3.264 6.653-4.678 8.842-4.027 6.233-9.656 9.992-18.333 10.766a32.34 32.34 0 0 1-6.294-.037c5.557 3.989 12.568 8.414 19.63 12.261 8.007 4.363 15.465 7.698 21.863 9.715 6.398-2.017 13.856-5.352 21.863-9.715 7.062-3.847 14.073-8.272 19.63-12.261zm4.034-1.753c6.387-1.701 11.24-5.633 13.515-10.853a.5.5 0 1 1 .916.4c-2.654 6.094-8.614 10.501-16.352 11.903-5.812 4.299-13.507 9.216-21.264 13.442-7.492 4.083-14.51 7.275-20.663 9.343 4.652 1.335 8.682 1.914 11.876 1.617 11.264-1.052 17.502-1.988 23.18-3.757 6.98-2.176 11.909-5.487 15.202-10.532 2.05-3.141 4.827-5.914 11.137-11.488 8.77-7.746 11.36-10.142 15.826-14.975 6.508-7.04 11.891-14.527 16.309-23.156 4.306-8.41 8.03-19.835 11.208-33.518 2.5-10.773 4.522-22.318 6.105-33.864a422.454 422.454 0 0 0 1.383-11.161 294.546 294.546 0 0 0 .434-4.229.5.5 0 0 1 .125-.288c.067-.076.201-.237.392-.484a23.78 23.78 0 0 0 1.072-1.523c1.116-1.715 2.235-3.803 3.28-6.275 1.652-3.907 2.93-8.261 3.752-13.074-.01-.128-.02-.278-.03-.461-.13-2.206-.26-3.162-.764-4.492-1.785-4.72-7.086-6.89-17.93-5.215.799 5.552 1.32 10.94 1.576 16.17.063 1.269.11 2.52.142 3.755a9.519 9.519 0 0 1 1.046 4.374.5.5 0 0 1-.994.077c-.037 11.792-1.482 22.14-4.012 32.11-.867 3.418-3.434 12.003-3.69 13.138-2.24 9.909-10.329 25.544-21.922 43.616a435.744 435.744 0 0 1-9.933 14.788c.794 1.035 1.604 1.953 2.388 2.671a.5.5 0 0 1-.674.738c-.764-.698-1.547-1.571-2.316-2.553-5.834 8.272-11.188 15.228-14.254 18.472-1.407 1.488-3.496 3.297-6.066 5.284zm5.928-53.221c-1.782 2.812-3.856 5.17-5.005 5.558-.205.07-.722.868-1.303 2.115a37.3 37.3 0 0 0-.772 1.795 71.257 71.257 0 0 0-1.382 3.747l6.787 2.841a47.393 47.393 0 0 1 2.805-.971 34.57 34.57 0 0 1 2.079-.58c1.454-.354 2.671-.524 3.594-.463 1.248.082 2.032.62 2.032 1.667 0 2.429 2.575 7.926 5.532 12.053a434.642 434.642 0 0 0 9.719-14.481c11.532-17.977 19.582-33.536 21.788-43.296.265-1.176 2.837-9.779 3.696-13.165 2.805-11.056 4.266-22.577 3.935-36.054-.274-.51-.61-1.017-1.014-1.521-2.214-2.757-6.135-4.828-12.172-5.9-6.08-1.079-11.692 2.284-16.667 8.605a42.697 42.697 0 0 0-1.449 1.955c.174-.199.347-.393.518-.581.925-1.016 2.171-1.844 3.658-2.51a19.588 19.588 0 0 1 3.582-1.18c.427-.098.823-.176 1.18-.236.216-.037.372-.06.459-.07a.5.5 0 0 1 .544.625 18.16 18.16 0 0 0-.14.585c-.107.472-.214 1-.314 1.571-.304 1.734-.477 3.474-.454 5.09.038 2.69.622 4.727 1.835 5.856 3.554 3.303 11.602 2.945 14.441-.642.676-.854 1.233-1.855 1.692-2.992.444-1.101.773-2.256 1.06-3.595.048-.224.42-2.149.515-2.468.14-.48.28-.72.696-.72.497 0 .615.295.822 1.2.16.703.328 1.787.5 3.159a122.882 122.882 0 0 1 .425 3.938l-.013.166c-.021.085-.063.238-.127.449-.105.348-.235.735-.391 1.151a19.502 19.502 0 0 1-1.706 3.49c-1.619 2.59-3.695 4.377-6.287 4.972-5.584 1.284-12.064.023-19.663-3.275l-6.305-2.735a4.519 4.519 0 0 0-1.104.302c-1.23.535-1.532 1.443-.37 3.215 2.976 4.54 10.98 11.431 16.377 13.512a.5.5 0 0 1-.36.934c-5.603-2.162-13.768-9.19-16.854-13.898-1.51-2.303-.976-3.904.808-4.68a5.162 5.162 0 0 1 1.051-.322c.215-.043.385-.065.49-.073a.5.5 0 0 1 .238.04l6.427 2.788c7.421 3.22 13.708 4.444 19.041 3.218 2.296-.527 4.173-2.144 5.663-4.527a18.517 18.517 0 0 0 1.617-3.311 18.02 18.02 0 0 0 .464-1.412 97.742 97.742 0 0 0-.111-1.133c-.094-.916-.196-1.832-.303-2.685-.111-.89-.22-1.656-.326-2.264-.106.525-.208 1.045-.237 1.179-.297 1.39-.641 2.597-1.11 3.76-.493 1.22-1.096 2.304-1.835 3.237-3.21 4.057-11.935 4.445-15.906.754-1.46-1.358-2.112-3.637-2.154-6.574-.024-1.686.155-3.485.469-5.276.094-.54.195-1.042.296-1.499-.255.048-.527.105-.815.17-1.16.269-2.32.637-3.399 1.12-1.37.613-2.505 1.367-3.326 2.269-.418.459-.842.948-1.272 1.465a63.537 63.537 0 0 0-2.867 3.744 65.597 65.597 0 0 0-1.168 1.699c-.335.515-1.124.087-.876-.475.065-.147.19-.416.374-.791.306-.623.667-1.315 1.081-2.06a47.472 47.472 0 0 1 4.133-6.248c5.18-6.58 11.101-10.129 17.628-8.97 6.26 1.111 10.4 3.297 12.776 6.257.06.075.12.15.176.225-.024-.676-.054-1.357-.087-2.043a172.208 172.208 0 0 0-1.565-16.059c-14.103 2.387-22.058 4.558-28.659 8.523-8.347 5.015-12.723 12.482-12.909 23.582-.021 1.27-.018 2.561.008 3.873.177 8.852 1.342 17.985 3.406 29.009.523 2.794 2.332 11.847 2.641 13.533.76 4.14.988 6.378.66 7.522l-.08.16-8.057 10.79a.5.5 0 0 1-.235.172l-.287.098a56.65 56.65 0 0 1-3.445 1.022c-1.24.325-2.448.594-3.59.789-.43.073-.847.135-1.247.186zm-.592-.94c1.33-2.176 2.468-4.589 2.773-6.454.154-.934.012-1.353-.367-1.547-.365-.187-.842-.223-2.162-.203-1.144.018-1.712.003-2.411-.096-2.422-.345-4.116-1.686-5.057-4.559-1.152-3.512-1.894-6.61-2.306-9.265a31.494 31.494 0 0 1-.29-2.433 12.537 12.537 0 0 1-.043-.854.5.5 0 0 1 1 0c0 .126.01.387.04.779.05.661.14 1.447.28 2.354.405 2.602 1.134 5.647 2.269 9.108.82 2.5 2.192 3.587 4.248 3.88.63.09 1.161.103 2.255.087 1.518-.024 2.056.017 2.633.312.826.423 1.115 1.278.898 2.599-.295 1.798-1.28 4.03-2.497 6.127l.409-.067c1.11-.19 2.29-.452 3.504-.77a55.658 55.658 0 0 0 3.511-1.047l7.906-10.588c.231-.97 0-3.149-.703-6.982-.308-1.676-2.116-10.726-2.64-13.53-2.074-11.073-3.245-20.255-3.424-29.172-.026-1.324-.03-2.627-.008-3.91.192-11.448 4.753-19.23 13.394-24.422 6.745-4.052 14.793-6.248 29.029-8.655-2.305-15.44-6.768-32.163-13.721-50.338-8.54-22.323-28.244-42.893-53.86-57.643C149.533 14.504 137.4 9.398 125.5 6.056c-11.9 3.342-24.032 8.448-35.524 15.066-25.615 14.75-45.319 35.32-53.859 57.643-6.953 18.175-11.416 34.898-13.72 50.338 14.235 2.407 22.283 4.603 29.028 8.655 8.641 5.192 13.202 12.974 13.394 24.422.021 1.283.018 2.586-.008 3.91-.179 8.917-1.35 18.1-3.423 29.173-.525 2.803-2.333 11.853-2.64 13.53-.704 3.832-.935 6.01-.704 6.981l7.905 10.588a33.852 33.852 0 0 0 .895.292c.817.257 1.7.514 2.616.754 1.215.319 2.395.582 3.505.77.138.024.275.047.41.068-1.219-2.097-2.203-4.329-2.498-6.127-.217-1.32.072-2.176.898-2.599.577-.295 1.115-.336 2.633-.312 1.094.016 1.625.003 2.255-.087 2.056-.293 3.429-1.38 4.248-3.88 1.135-3.46 1.864-6.506 2.268-9.108.141-.907.232-1.693.282-2.354.03-.392.039-.653.039-.779a.5.5 0 0 1 1 0c0 .15-.01.437-.042.854-.052.688-.146 1.5-.29 2.433-.413 2.655-1.155 5.753-2.307 9.265-.941 2.873-2.635 4.214-5.057 4.559-.699.1-1.267.114-2.41.096-1.321-.02-1.798.016-2.163.203-.38.194-.52.613-.367 1.547.305 1.865 1.443 4.278 2.773 6.454 1.966.201 3.447.069 4.265-.44.034-.057.078-.126.13-.208a18.127 18.127 0 0 1 2.646-3.188c2.015-1.922 4.307-3.185 6.851-3.467 2.818-.311 5.339.676 7.507 2.5a13.771 13.771 0 0 1 2.097 2.205l9.391-3.917.024-.169c.05-.358.1-.765.147-1.213.225-2.156.294-4.39.11-6.469-.339-3.85-1.488-6.486-3.585-7.414a21.66 21.66 0 0 0-2.163-.816c-2.01-.643-4.163-1.045-6.347-1.25a31.683 31.683 0 0 0-3.87-.142.5.5 0 0 1-.502-.352l-.148-.482-.42-1.363a28733.295 28733.295 0 0 0-6.054-19.617l-.033-.108c-3.767-12.187-6.184-19.963-6.592-21.178-1.186-3.54-2.307-10.333-1.993-16.3.492-9.333 4.188-15.976 12.015-18.414 8.111-2.527 17.821-3.451 28.794-3 2.818.117 5.686.321 8.593.607a151.47 151.47 0 0 1 8.593-.606c10.973-.452 20.683.472 28.794 2.999 7.827 2.438 11.523 9.08 12.015 18.414.314 5.967-.807 12.76-1.993 16.3-.408 1.215-2.825 8.991-6.592 21.178l-.033.108a25163.7 25163.7 0 0 0-6.055 19.617l-.42 1.363-.148.482a.5.5 0 0 1-.502.352 31.672 31.672 0 0 0-3.872.142c-2.184.206-4.34.609-6.35 1.252-.75.24-1.47.511-2.157.814-2.097.928-3.246 3.564-3.585 7.414-.184 2.08-.115 4.313.11 6.469a35.642 35.642 0 0 0 .17 1.382l9.392 3.917a13.772 13.772 0 0 1 2.096-2.206c2.17-1.823 4.69-2.81 7.507-2.5 2.545.283 4.837 1.546 6.852 3.468a18.125 18.125 0 0 1 2.646 3.188l.13.207c.818.51 2.3.642 4.265.44zm-70.681-64.748a31.384 31.384 0 0 1-6.119-3.162c-3.355-2.23-5.625-4.637-4.71-5.5 2.134-2.014 6.717-5.105 11.73-8.04.21-.123.418-.245.625-.364.262-1.087.543-2.03.845-2.805.161-.415.324-.81.491-1.185-7.763 2.94-14.772 6.66-17.148 9.75a.5.5 0 1 1-.792-.61c2.597-3.379 10.27-7.393 18.584-10.45 2.174-3.967 5.282-5.161 13.057-4.727a36.95 36.95 0 0 1 3.255.34 36.947 36.947 0 0 1 3.255-.34c7.775-.434 10.883.76 13.057 4.727 8.313 3.057 15.988 7.071 18.584 10.45a.5.5 0 1 1-.792.61c-2.376-3.091-9.385-6.81-17.148-9.75.167.375.33.77.491 1.185.302.776.583 1.717.845 2.804l.626.364c5.013 2.936 9.596 6.027 11.73 8.04.915.864-1.355 3.272-4.71 5.5a31.385 31.385 0 0 1-6.12 3.164c-.34 1.522-1.13 3.073-2.5 4.57-2.378 2.594-6.308 4.723-12.043 6.25a.5.5 0 0 1-.257-.967c5.563-1.48 9.326-3.52 11.562-5.959 1.054-1.15 1.725-2.324 2.091-3.482a26.858 26.858 0 0 1-6.146 1.314c-4.481.402-8.685.5-12.525.29-3.84.21-8.043.112-12.524-.29a26.857 26.857 0 0 1-6.147-1.314c.366 1.158 1.037 2.332 2.091 3.482 2.236 2.44 6 4.479 11.562 5.959a.5.5 0 1 1-.257.966c-5.734-1.526-9.665-3.655-12.042-6.25-1.372-1.497-2.162-3.047-2.501-4.57zm-.174-1.143c-.075-.935.01-1.85.224-2.73.09-.362.18-.627.245-.779a.5.5 0 0 1 .795-.173c3.763 3.417 10.332 5.371 18.728 5.838 8.396-.467 14.965-2.42 18.728-5.838a.5.5 0 0 1 .795.173c.065.152.156.417.245.78.214.878.3 1.795.224 2.73a30.47 30.47 0 0 0 5.393-2.853c1.494-.993 2.77-2.042 3.618-2.942.372-.395.64-.74.78-.994.024-.045.043-.084.057-.117-2.09-1.927-6.463-4.875-11.25-7.688.068.329.135.668.201 1.016.314 1.67.575 3.417.811 5.3.039.308.075.603.114.935l.081.676c.048.17.067.309.067.438 0 .033 0 .033-.003.08-.002.031-.002.031-.023.115-.02.069-.02.069-.143.22-.329.166-.329.166-.634.028-.204-.278-.204-.278-.194-.306l-.012-.068a9.143 9.143 0 0 1-.04-.297c-.139-.422-.584-1.302-1.46-2.925l-.01-.016c-.58-1.075-.84-1.571-1.091-2.09-.98-2.036-2.75-4.862-3.997-6.509a14.167 14.167 0 0 0-.098-.042c.327 1.102.308 2.684-.007 4.394.034.889.017 1.736-.06 2.582-.37 4.029-2.1 6.95-5.638 8.322-2.344.91-4.499 1.295-6.454 1.233-1.955.062-4.11-.323-6.453-1.233-3.538-1.373-5.27-4.293-5.639-8.322a19.736 19.736 0 0 1-.06-2.588c-.314-1.708-.333-3.287-.007-4.388l-.098.043c-1.248 1.647-3.017 4.473-3.997 6.507-.25.52-.512 1.016-1.092 2.09l-.009.017c-.876 1.623-1.321 2.503-1.46 2.925-.018.148-.03.239-.04.297l-.012.068c.01.028.01.028-.194.306-.305.138-.305.138-.634-.028-.123-.151-.123-.151-.143-.22-.02-.084-.02-.084-.023-.116-.003-.046-.003-.046-.003-.08 0-.128.02-.267.067-.435l.08-.678c.04-.332.076-.627.115-.936.236-1.882.497-3.63.81-5.299.067-.348.134-.687.202-1.015-4.787 2.812-9.16 5.76-11.25 7.687.015.033.034.072.058.117.14.254.408.599.78.994.849.9 2.124 1.949 3.618 2.942a30.469 30.469 0 0 0 5.392 2.852zm27.928 2.178c1.464-.065 2.965-.166 4.5-.304 2.203-.198 4.395-.71 6.502-1.47a7.483 7.483 0 0 0-.128-2.838c-2.63 2.143-6.334 3.678-10.874 4.612zm9.482-17.451a93.842 93.842 0 0 0-3.28-1.804c1.101 1.612 2.246 3.554 3.017 5.155.241.5.498.99 1.07 2.05l.01.016.2.372a79.281 79.281 0 0 0-.627-3.908 48.963 48.963 0 0 0-.39-1.881zm-6.59 5.861c-.573 2.548-1.893 4.416-4.15 5.488 1.372-1.086 2.537-2.501 3.484-4.174.24-.423.461-.863.665-1.314zm-7.258-15.553c3.545.75 7.43 1.867 11.237 3.202-1.936-2.753-4.8-3.538-11.237-3.202zm12.043 4.553c-5.371-1.95-10.992-3.497-15.613-4.187-4.62.69-10.242 2.237-15.613 4.188-.313.61-.609 1.29-.902 2.045a18.253 18.253 0 0 0-.567 1.752c1.42-.8 2.699-1.478 3.678-1.952.199-.096.384-.183.556-.26.653-.808 1.216-1.358 1.573-1.462.459-.135.722.186.77.576.022.169.013.383-.021.687-.037.337-.291 2.018-.309 2.14a32.86 32.86 0 0 0-.313 3.16c.328 1.695.962 3.555 1.856 5.134 2.058 3.634 5.174 5.937 9.292 6.082 4.118-.145 7.235-2.448 9.292-6.082.894-1.577 1.527-3.435 1.856-5.128a32.854 32.854 0 0 0-.314-3.165c-.017-.12-.271-1.804-.308-2.14-.034-.305-.043-.52-.022-.688.05-.39.313-.71.77-.576.357.104.92.654 1.574 1.46.172.079.357.166.556.262.98.473 2.257 1.152 3.678 1.952a18.25 18.25 0 0 0-.567-1.752 21.86 21.86 0 0 0-.902-2.046zm-19.183-4.553c-6.437-.336-9.301.449-11.237 3.202 3.808-1.335 7.693-2.453 11.237-3.202zm-13.848 9.692a48.965 48.965 0 0 0-.39 1.881 79.281 79.281 0 0 0-.627 3.908l.2-.372.01-.017c.572-1.06.829-1.548 1.07-2.049.771-1.6 1.916-3.543 3.017-5.155a93.863 93.863 0 0 0-3.28 1.804zm6.589 5.856c.204.453.427.895.667 1.319.948 1.673 2.113 3.089 3.484 4.174-2.258-1.072-3.579-2.942-4.151-5.493zm2.893 11.595c-4.54-.934-8.244-2.47-10.874-4.612a7.483 7.483 0 0 0-.128 2.837c2.107.76 4.3 1.273 6.503 1.471 1.535.138 3.036.24 4.5.304zm13.053-39.9c7.064.907 14.313 2.258 21.596 3.955a242.206 242.206 0 0 1 13.694 3.61c1.457.432 2.753.832 3.873 1.191a108.637 108.637 0 0 1 1.108.362c-1.85-3.022-4.58-5.194-8.299-6.353-7.988-2.488-17.588-3.402-28.455-2.954-1.164.048-2.337.111-3.517.189zm-10.234 0c-1.18-.078-2.353-.141-3.517-.19-10.867-.447-20.467.467-28.456 2.955-3.718 1.159-6.447 3.33-8.298 6.353a77.91 77.91 0 0 1 1.108-.362c1.12-.36 2.416-.76 3.873-1.19a242.206 242.206 0 0 1 13.694-3.61c7.283-1.698 14.532-3.049 21.596-3.956zm129.084 15.342c.009.092.018.169.028.24a.5.5 0 0 1-.144.426c-.837 4.677-2.103 8.927-3.722 12.757-1.069 2.528-2.215 4.668-3.364 6.431-.403.62-.779 1.149-1.117 1.588-.134.174-.244.311-.328.411a113.943 113.943 0 0 1-.092.953c-.09.905-.199 1.954-.329 3.136a423.443 423.443 0 0 1-1.386 11.188c-1.587 11.574-3.613 23.148-6.122 33.954-3.194 13.756-6.942 25.251-11.292 33.748-4.461 8.714-9.898 16.274-16.464 23.379-4.498 4.866-7.103 7.276-15.899 15.045-6.24 5.512-8.978 8.248-10.962 11.286-3.432 5.258-8.556 8.699-15.742 10.94-5.765 1.796-12.052 2.74-23.384 3.797-3.645.34-8.286-.406-13.648-2.07-5.362 1.664-10.004 2.41-13.648 2.07-11.332-1.058-17.62-2-23.384-3.798-7.186-2.24-12.31-5.681-15.742-10.94-1.984-3.037-4.723-5.773-10.962-11.285-8.796-7.77-11.4-10.179-15.899-15.045-6.566-7.105-12.003-14.665-16.464-23.38-4.35-8.496-8.098-19.991-11.292-33.747-2.509-10.806-4.535-22.38-6.122-33.954a423.448 423.448 0 0 1-1.386-11.188 295.536 295.536 0 0 1-.421-4.089c-.084-.1-.194-.237-.328-.411-.338-.44-.714-.968-1.117-1.588-1.149-1.763-2.295-3.903-3.364-6.43-1.62-3.831-2.885-8.08-3.722-12.758a.5.5 0 0 1-.144-.426c.01-.071.02-.148.028-.24-1.295-7.67-1.447-16.472-.134-26.443 1.118-8.49 1.997-14.02 3.704-21.83 2.524-11.545 5.925-22.68 10.428-33.137C29.965 25.213 53.171 3.994 87.347.838c11.611-1.073 24.737.44 38.153 4.18 13.416-3.74 26.541-5.253 38.151-4.18 34.178 3.156 57.384 24.375 71.818 57.892 4.503 10.457 7.904 21.592 10.428 33.137 1.707 7.81 2.586 13.34 3.704 21.83 1.313 9.971 1.161 18.773-.134 26.443zm-19.876-11.197c11.267-1.735 17.035.626 19.01 5.85.18.472.314.898.42 1.337.749-6.633.674-14.059-.412-22.303-1.114-8.464-1.989-13.97-3.689-21.746-2.51-11.487-5.894-22.563-10.37-32.956-14.302-33.21-37.228-54.174-70.99-57.291-11.028-1.019-23.456.323-36.204 3.714 11.472 3.366 23.115 8.343 34.167 14.707 25.8 14.857 45.663 35.594 54.294 58.153 6.976 18.236 11.458 35.025 13.774 50.535zM62.741 261.428c4.903 6.81 9.262 12.389 11.893 15.173 1.673 1.77 4.347 4.015 7.666 6.479 2.466.424 5.12.535 7.912.286 8.352-.745 13.714-4.326 17.582-10.312 1.371-2.123 4.38-8.355 4.665-8.822.425-.695.83-1.2 1.265-1.545.58-.461 1.16-.845 1.737-1.16-1.15.01-2.286.01-3.382.002a117.026 117.026 0 0 1-4.312-.1c-1.42-.065-3.132-.395-5.078-.946a53.198 53.198 0 0 1-3.76-1.23 74.251 74.251 0 0 1-5.159-2.115l-.817.074a345.968 345.968 0 0 0-10.32 1.106c-2.496.31-5.01-.138-7.735-1.184l-1.055 1.744c-.898 1.483-2.747 2.01-6.071 2.208-.38.023-.617.034-1.38.069-1.814.082-2.585.15-3.265.329a.499.499 0 0 1-.386-.056zm17.233 21.144c-2.57-1.987-4.66-3.796-6.067-5.284-3.066-3.244-8.42-10.2-14.255-18.472-.769.982-1.551 1.855-2.314 2.553a.5.5 0 0 1-.676-.738c.785-.718 1.595-1.636 2.388-2.67a435.67 435.67 0 0 1-9.933-14.79c-11.592-18.07-19.682-33.706-21.921-43.615-.256-1.135-2.823-9.72-3.69-13.139-2.53-9.97-3.975-20.317-4.012-32.11a.5.5 0 0 1-.994-.076c0-1.43.3-2.908 1.046-4.374.032-1.235.08-2.486.142-3.755.257-5.23.777-10.618 1.576-16.17-10.844-1.675-16.145.495-17.93 5.215-.504 1.33-.633 2.286-.763 4.492-.011.183-.021.333-.031.46.822 4.814 2.1 9.168 3.752 13.075 1.045 2.472 2.164 4.56 3.28 6.275.39.597.75 1.104 1.072 1.523.191.247.325.408.392.484a.5.5 0 0 1 .125.288l.026.281.08.823c.09.9.198 1.947.328 3.125.37 3.367.83 7.12 1.383 11.161 1.583 11.546 3.604 23.091 6.105 33.864 3.177 13.683 6.902 25.107 11.208 33.518 4.418 8.629 9.801 16.115 16.309 23.156 4.466 4.833 7.056 7.229 15.826 14.975 6.31 5.574 9.087 8.347 11.137 11.488 3.293 5.045 8.223 8.356 15.203 10.532 5.677 1.77 11.915 2.705 23.18 3.757 3.193.297 7.223-.282 11.875-1.617-6.154-2.068-13.17-5.26-20.663-9.343-7.757-4.226-15.452-9.143-21.264-13.442-7.738-1.402-13.698-5.809-16.352-11.903a.5.5 0 0 1 .916-.4c2.274 5.22 7.128 9.152 13.516 10.853zm-58.565-153.63c2.316-15.51 6.798-32.298 13.774-50.534 8.63-22.56 28.494-43.296 54.294-58.153 11.052-6.364 22.695-11.34 34.167-14.707-12.749-3.39-25.177-4.733-36.205-3.714-33.762 3.117-56.687 24.08-70.99 57.291-4.475 10.393-7.858 21.469-10.37 32.956-1.699 7.776-2.574 13.282-3.688 21.746-1.086 8.244-1.16 15.67-.412 22.303.106-.44.24-.865.42-1.337 1.975-5.224 7.743-7.585 19.01-5.85zm.842 1.15a172.208 172.208 0 0 0-1.565 16.06c-.033.685-.063 1.366-.087 2.042.057-.075.116-.15.175-.224 2.377-2.961 6.516-5.147 12.776-6.258 6.527-1.159 12.45 2.39 17.629 8.97a47.469 47.469 0 0 1 4.133 6.248c.414.745.775 1.437 1.08 2.06.185.375.31.644.375.79.248.563-.54.99-.876.476a65.78 65.78 0 0 0-1.168-1.699 63.699 63.699 0 0 0-2.868-3.744 42.954 42.954 0 0 0-1.271-1.465c-.821-.902-1.956-1.656-3.326-2.27a18.608 18.608 0 0 0-3.4-1.118c-.287-.066-.56-.123-.814-.17.101.456.202.958.296 1.498.314 1.79.493 3.59.47 5.276-.043 2.937-.696 5.216-2.156 6.574-3.97 3.69-12.695 3.303-15.905-.754-.74-.933-1.342-2.017-1.835-3.238-.469-1.162-.813-2.37-1.11-3.76-.03-.133-.131-.653-.237-1.178a50.669 50.669 0 0 0-.326 2.264 121.911 121.911 0 0 0-.414 3.818 18.02 18.02 0 0 0 .464 1.412c.423 1.13.96 2.26 1.617 3.31 1.49 2.384 3.367 4 5.663 4.528 5.333 1.226 11.62.003 19.04-3.218l6.428-2.789a.5.5 0 0 1 .239-.04c.104.009.274.031.489.074.356.07.713.175 1.051.322 1.784.776 2.317 2.377.808 4.68-3.086 4.708-11.251 11.736-16.855 13.898a.5.5 0 0 1-.36-.934c5.398-2.081 13.402-8.971 16.378-13.512 1.162-1.772.86-2.68-.37-3.215a4.519 4.519 0 0 0-1.105-.302l-6.304 2.735c-7.599 3.298-14.08 4.56-19.663 3.275-2.592-.595-4.668-2.382-6.287-4.971a19.502 19.502 0 0 1-1.706-3.49 19.017 19.017 0 0 1-.391-1.152 10.163 10.163 0 0 1-.127-.45l-.013-.165.032-.34a139.822 139.822 0 0 1 .394-3.598c.171-1.372.339-2.456.5-3.16.206-.904.324-1.2.821-1.2.416 0 .556.242.696.72.094.32.467 2.245.515 2.47.287 1.338.616 2.493 1.06 3.594.46 1.137 1.016 2.138 1.692 2.992 2.839 3.587 10.887 3.945 14.44.642 1.214-1.13 1.798-3.166 1.836-5.857.023-1.615-.15-3.355-.454-5.089-.1-.57-.207-1.099-.313-1.571a18.16 18.16 0 0 0-.14-.585.5.5 0 0 1 .543-.625c.087.01.243.033.459.07.357.06.753.138 1.18.236 1.219.282 2.44.669 3.582 1.18 1.487.666 2.733 1.494 3.658 2.51.172.189.345.383.518.581a42.696 42.696 0 0 0-1.45-1.955c-4.975-6.32-10.586-9.684-16.667-8.604-6.036 1.071-9.958 3.142-12.17 5.898a10.05 10.05 0 0 0-1.015 1.521c-.331 13.478 1.13 25 3.935 36.055.86 3.386 3.43 11.989 3.696 13.165 2.206 9.76 10.256 25.319 21.788 43.296a434.57 434.57 0 0 0 9.719 14.481c2.956-4.128 5.532-9.624 5.532-12.053 0-1.047.784-1.585 2.032-1.667.922-.061 2.14.11 3.594.463.663.16 1.36.357 2.078.58a47.384 47.384 0 0 1 2.805.971l6.788-2.841a80.12 80.12 0 0 0-1.382-3.747 37.368 37.368 0 0 0-.77-1.792c-.582-1.249-1.1-2.048-1.305-2.118-1.15-.389-3.222-2.746-5.005-5.558-.4-.05-.817-.113-1.248-.186a42.414 42.414 0 0 1-3.59-.79 56.662 56.662 0 0 1-3.446-1.021l-.286-.098a.5.5 0 0 1-.235-.173l-8.056-10.788-.08-.161c-.328-1.144-.1-3.382.66-7.522.31-1.686 2.118-10.739 2.64-13.533 2.065-11.024 3.23-20.157 3.407-29.009.026-1.312.03-2.603.008-3.873-.186-11.1-4.562-18.567-12.91-23.582-6.6-3.965-14.555-6.136-28.658-8.523zm64.01 114.055a16.778 16.778 0 0 1-2.295 1.767c-2.047 1.315-4.36 2.208-6.912 2.484a.5.5 0 0 1-.108-.995c2.387-.258 4.556-1.095 6.48-2.33a15.783 15.783 0 0 0 2.158-1.662c.365-.336.61-.594.73-.735a.5.5 0 0 1 .532-.153c.13.042.365.126.69.258.537.216 1.136.49 1.783.826a26.673 26.673 0 0 1 5.513 3.824c3.738 3.348 15.015 8.51 17.058 8.05a.5.5 0 0 1 .22.975c-2.439.55-13.99-4.737-17.945-8.28a25.678 25.678 0 0 0-5.306-3.68 20.118 20.118 0 0 0-2.02-.914 12.89 12.89 0 0 1-.577.565zm77.578-.44c-.508.206-1.079.467-1.698.788a25.679 25.679 0 0 0-5.306 3.68c-3.955 3.544-15.506 8.832-17.945 8.28a.5.5 0 0 1 .22-.975c2.043.462 13.32-4.7 17.058-8.05a26.673 26.673 0 0 1 5.513-3.823c.647-.336 1.246-.61 1.782-.826.326-.132.56-.216.69-.258a.5.5 0 0 1 .533.153c.12.141.365.4.73.735a15.783 15.783 0 0 0 2.159 1.661c1.923 1.236 4.092 2.073 6.479 2.331a.5.5 0 0 1-.108.995c-2.552-.276-4.865-1.17-6.912-2.484a16.778 16.778 0 0 1-2.296-1.767 12.89 12.89 0 0 1-.578-.565c-.091.034-.199.076-.321.126z"/>
</svg>
