<svg xmlns="http://www.w3.org/2000/svg" width="291" height="236" viewBox="0 0 291 236">
    <path fill="#1747FF" fill-rule="nonzero" d="M205.613 42.242c3.523 6.522-3.407 13.264-13.506 12.125-4.95-.558-7.803-2.978-8.466-6.519-.304-1.628-.096-3.405.486-4.99-3.397.868-6.024 1.985-6.743 3.118-1.944 3.06-5.153 4.845-7.226 4.153-.776-.26-1.352-.82-1.756-1.576a4.89 4.89 0 0 1-.537-1.637.5.5 0 0 1 .14-.413c.087-.09.253-.259.485-.5.387-.4.819-.853 1.284-1.347a139.16 139.16 0 0 0 3.895-4.307c.475-.55.929-1.086 1.358-1.605a60.194 60.194 0 0 0 1.773-2.246c4.119-5.505 17.692-8.861 28.848-5.81 3.445.941 6.463 2.133 9.08 3.516 2.422 1.281 4.375 2.657 5.899 4.036.537.485.982.938 1.342 1.346.22.25.364.432.438.536a.5.5 0 1 1-.814.58 6.498 6.498 0 0 0-.374-.455c-.335-.38-.754-.806-1.263-1.266-1.463-1.324-3.348-2.65-5.696-3.893-2.551-1.349-5.501-2.513-8.875-3.436-10.79-2.95-23.935.3-27.784 5.445a61.174 61.174 0 0 1-1.803 2.283 94.13 94.13 0 0 1-1.372 1.623 140.138 140.138 0 0 1-3.924 4.338 147.273 147.273 0 0 1-1.603 1.677 4.128 4.128 0 0 0 .385 1.063c.293.548.685.93 1.19 1.1 1.56.52 4.341-1.027 6.066-3.74.904-1.427 4.098-2.764 8.092-3.731a8.25 8.25 0 0 1 1.49-2.065.5.5 0 0 1 .703.71 6.722 6.722 0 0 0-.856 1.05c4.868-1.036 10.614-1.523 14.836-1.01 4.72.573 8.51 1.643 11.468 3.068 1.621.781 2.895 1.622 3.86 2.468.591.518.953.931 1.123 1.184a.5.5 0 0 1 .078.362c-.062.372-.266.982-.695 1.75-.7 1.251-1.787 2.496-3.337 3.65-3.899 2.9-10.055 4.762-18.94 5.118-9.796.394-16.821-.494-21.54-2.226-2.173-.797-3.47-1.612-4.099-2.233a10.428 10.428 0 0 0-1.154.186c-.46.103-.815.228-1.002.357-.09.062-.071-.004-.041.036.363.487.95 1.18 1.71 1.965a32.776 32.776 0 0 0 3.912 3.442c4.06 3.045 8.82 5.242 14.266 6.166 7.55 1.278 14.348.98 20.108-.288 1.089-.24 2.046-.496 2.862-.752.486-.153.814-.27.977-.335a.5.5 0 0 1 .37.929 21.099 21.099 0 0 1-1.048.36c-.843.264-1.828.529-2.946.775-5.88 1.295-12.807 1.598-20.49.296-5.613-.951-10.518-3.215-14.7-6.351a33.773 33.773 0 0 1-4.031-3.547 22.846 22.846 0 0 1-1.791-2.06c-.4-.535-.249-1.097.273-1.458.319-.22.777-.382 1.353-.511a11.4 11.4 0 0 1 1.531-.23.5.5 0 0 1 .422.177c.09.107.333.327.767.622.752.512 1.771 1.03 3.096 1.516 4.584 1.682 11.481 2.553 21.156 2.165 8.696-.349 14.66-2.152 18.382-4.922 1.436-1.07 2.43-2.206 3.061-3.336a6.319 6.319 0 0 0 .533-1.228 8.029 8.029 0 0 0-.825-.827c-.897-.786-2.095-1.577-3.635-2.319-1.755-.845-3.823-1.564-6.226-2.122zm-1.134-.247a48.644 48.644 0 0 0-3.794-.607c-4.347-.529-10.459.066-15.36 1.18-.711 1.565-1.013 3.43-.7 5.096.578 3.09 3.063 5.199 7.594 5.71 9.578 1.08 15.828-5.197 12.318-11a.498.498 0 0 1-.058-.379zM78.283 46.001c.393-1.1.935-2.2 1.635-3.274a.5.5 0 0 1 .837.546c-.519.796-.945 1.606-1.282 2.417a22.488 22.488 0 0 1 3.815-.54c5.258-.297 10.934.048 15.91.82a.5.5 0 0 1 .55 0c.055.037.11.075.163.114 6.255 1.037 11.286 2.752 12.778 4.706 1.458 1.909 3.451 2.195 3.764 1.054.456-1.661-1.93-4.924-7.345-8.719-6.798-4.762-15.926-7.239-24.457-6.494-9.453.826-17.37 5.434-22.22 13.668a.5.5 0 0 1-.862-.507c5.022-8.525 13.232-13.304 22.995-14.157 8.767-.766 18.129 1.775 25.117 6.671 5.734 4.018 8.345 7.587 7.737 9.802-.598 2.18-3.65 1.742-5.524-.711-1.239-1.622-5.499-3.12-10.948-4.116 1.043 1.92.602 4.915-1.216 7.564-2.613 3.809-7.305 6.048-13.123 5.597-6.917-.536-10.392-6.762-8.681-13.284-2.835.927-5.39 2.435-7.668 4.392a25.41 25.41 0 0 0-3.558 3.747 20.47 20.47 0 0 0-.965 1.357l.073.07c.291.277.636.586 1.033.92a30.526 30.526 0 0 0 3.95 2.81c4.975 2.983 10.57 4.553 16.616 3.964 5.993-.583 11.256-2.084 15.785-4.219 2.075-.979 3.857-2.026 5.343-3.072.518-.364.961-.702 1.33-1.004.218-.179.362-.305.43-.368l.128-.087a8.006 8.006 0 0 1 1.488-.512c1.087-.238 1.913-.03 1.984.95.064.878-.707 2.303-2.454 4.512-5.59 7.074-15.782 11.57-26.73 11.854-5.022.13-8.702-.189-11.251-.805-1.33-.321-2.098-.654-2.438-.899a.5.5 0 1 1 .584-.812c.041.03.17.102.403.203.416.18.972.363 1.686.536 2.456.594 6.05.905 10.99.777 10.667-.277 20.577-4.648 25.972-11.474 1.59-2.01 2.28-3.286 2.24-3.819-.008-.12-.205-.17-.773-.046a5.564 5.564 0 0 0-.635.184 7.49 7.49 0 0 0-.574.225c-.091.082-.23.202-.416.355-.388.317-.85.67-1.389 1.048-1.532 1.078-3.363 2.155-5.492 3.159-4.63 2.182-10.004 3.714-16.114 4.31-6.28.611-12.082-1.016-17.226-4.102a31.52 31.52 0 0 1-4.081-2.903c-.413-.347-.773-.67-1.079-.961a11.363 11.363 0 0 1-.38-.375.5.5 0 0 1-.07-.593c.055-.096.16-.267.316-.504.257-.39.564-.824.924-1.29a26.403 26.403 0 0 1 3.698-3.895c2.553-2.192 5.445-3.848 8.677-4.79zm21.21 1.03c-5-.802-10.808-1.184-16.149-.883-1.49.083-2.918.313-4.284.675-1.942 6.176 1.195 12.124 7.624 12.622 5.463.423 9.81-1.652 12.222-5.166 1.922-2.801 2.092-5.905.587-7.247zm75.32 99.848a34.18 34.18 0 0 0-.782-.817c-3.3-3.333-6.711-5.385-10.033-5.546-3.485-.17-6.568.99-9.215 3.033a16.759 16.759 0 0 0-2.263 2.105c-.223.25-.415.481-.575.688a6.193 6.193 0 0 0-.185.248.5.5 0 0 1-.755.08 7.52 7.52 0 0 0-.678-.542 14.49 14.49 0 0 0-2.06-1.238c-2.985-1.486-6.558-2.177-10.68-1.627-3.512.469-6.286 2.576-8.408 5.82-.22.336-.43.679-.628 1.026 5.919-.983 8.488-1.22 10.941-.962a70.76 70.76 0 0 1 7.12 1.135 75.09 75.09 0 0 1 4.122.986 54.505 54.505 0 0 1 1.322.374l.094-.07c.243-.18.524-.381.84-.597a31.497 31.497 0 0 1 2.994-1.804c3.184-1.686 6.38-2.684 9.39-2.64.368.005.732.027 1.09.064 2.116.223 5.11.307 8.349.284zm1.334-.015c6.655-.106 13.965-.636 16.728-1.348a.5.5 0 1 1 .25.968c-2.729.704-9.64 1.23-16.139 1.365.406.491.795.987 1.166 1.484.355.474.668.914.938 1.31.162.24.274.412.333.506a.5.5 0 0 1-.134.674l-.224.156a112.775 112.775 0 0 1-3 1.99 124.61 124.61 0 0 1-7.982 4.712c-3.17 1.71-6.248 3.172-9.162 4.308-2.856 1.113-5.495 1.89-7.875 2.284-.974.16-1.973.235-2.995.226-4.911-.04-10.14-1.947-15.36-5.095a53.227 53.227 0 0 1-5.085-3.486 44.535 44.535 0 0 1-1.429-1.152c-.248-.21-.421-.36-.512-.443a.5.5 0 0 1-.15-.49c.025-.104.076-.293.155-.554a24.163 24.163 0 0 1 1.085-2.852 640.117 640.117 0 0 0-3.277.57c-7.297 1.263-11.268 1.718-14.523 1.425a.5.5 0 0 1 .09-.996c3.135.282 7.057-.167 14.262-1.415.372-.065.752-.13 1.261-.22.977-.17 1.884-.327 2.729-.471.317-.607.665-1.205 1.045-1.785 2.269-3.466 5.275-5.75 9.113-6.263 4.33-.578 8.102.151 11.258 1.723.844.42 1.58.872 2.202 1.324.132.096.25.186.353.266.148-.185.317-.385.506-.597a17.753 17.753 0 0 1 2.398-2.23c2.823-2.18 6.13-3.423 9.874-3.24 3.626.175 7.237 2.346 10.696 5.84.485.49.953.994 1.405 1.506zm-.45 1.007c-3.61.046-6.995-.035-9.337-.281a11.134 11.134 0 0 0-1-.06c-2.815-.04-5.86.91-8.908 2.524a30.504 30.504 0 0 0-2.898 1.747 24.603 24.603 0 0 0-1.086.785.5.5 0 0 1-.462.086 53.504 53.504 0 0 0-1.533-.44 74.093 74.093 0 0 0-4.067-.971 69.77 69.77 0 0 0-7.018-1.12c-2.432-.255-5.082.012-11.428 1.081a22.86 22.86 0 0 0-1.333 3.347l-.063.213.258.22c.402.339.87.717 1.396 1.125a52.235 52.235 0 0 0 4.988 3.421c5.082 3.064 10.152 4.913 14.853 4.951.966.008 1.907-.062 2.824-.213 2.304-.38 4.879-1.139 7.675-2.229 2.872-1.12 5.914-2.564 9.05-4.256a123.622 123.622 0 0 0 10.706-6.519l-.052-.076c-.26-.384-.565-.813-.91-1.274a38.97 38.97 0 0 0-1.655-2.061zM16.611 59.139l-.03-.573-.176-3.168c-.275-4.994 2.613-8.113 7.08-8.777 3.948-.587 8.108.977 9.325 3.7 2.2 4.924 2.674 22.054-.262 27.966-1.355 2.727.34 20.46 1.546 24.1l.033.097c.213.615.53 1.277.922 1.958l.13.223a443.183 443.183 0 0 1-.244-16.176c.047-14.315.716-23.456 2.292-24.556 3.301-2.304 8.378-.364 13.937 5.179 2.334 2.329 3.48 9.333 3.792 19.717.154 5.12.086 10.6-.12 15.904a242.214 242.214 0 0 1-.186 3.957l3.387 2.252c1.656 1.1 3.07 5.026 4.376 11.037.524 2.41.99 4.991 1.393 7.572a147.95 147.95 0 0 1 .415 2.843c1.556-.35 3.803.065 6.779 1.735 2.634 1.478 12.088 11.545 29.84 31.322l.75.837c2.738 3.052 12.111 13.529 11.838 13.223a1732.35 1732.35 0 0 0 9.937 11.03c.108.075.273.195.489.36.42.322.886.71 1.387 1.167a29.7 29.7 0 0 1 4.184 4.743c3.797 5.329 6.075 11.904 6.075 19.775 0 8.968-9.05 16.415-21.715 18.404-13.757 2.16-28.632-2.393-39.874-13.548-2.123-2.107-18.79-19.714-19.334-20.283L53.469 200c-8.031-8.39-13.831-14.212-17.547-17.506a26.2 26.2 0 0 1-6.576-8.929c-2.098-4.642-2.62-7.988-3.056-15.137a48.284 48.284 0 0 0-.088-1.253c-.346-3.962-12.108-21.303-16.192-25.088-3.025-2.8-9.732-17.336-9.504-20.52.286-3.988 4.077-23.595 5.552-27.462.638-1.67.967-4.74 1.387-11.444l.068-1.083c.474-7.602.778-10.316 1.57-11.501 1.325-1.981 4.988-1.893 7.528-.939zm1.026.468c.064.035.127.071.188.108a.5.5 0 0 1-.136.914c.135 2.724.215 4.965.249 7.198.117 7.727-.404 13.299-1.843 16.56-.953 2.158-1.453 6.408-1.569 12.09-.069 3.375 0 6.993.16 10.541.04.908.083 1.74.127 2.478l.054.888 1.506 11.375a2003.644 2003.644 0 0 1 .776 1.34 1173.22 1173.22 0 0 1 8.783 15.484 760.259 760.259 0 0 1 1.794 3.245 20.502 20.502 0 0 1 1.526 3.562c1.106 3.414 1.357 6.3 1.347 11.16-.004 1.86.021 2.468.143 2.837.503 1.517 2.597 2.912 7.615 5.438l.69.347c5.256 2.64 7.251 3.862 8.37 5.552a.5.5 0 1 1-.834.552c-.975-1.474-2.94-2.677-7.984-5.21l-.691-.347c-5.342-2.69-7.486-4.118-8.115-6.018-.174-.525-.198-1.118-.194-3.153.01-4.76-.234-7.564-1.298-10.85a19.504 19.504 0 0 0-1.452-3.389 669.218 669.218 0 0 0-1.79-3.24 1172.184 1172.184 0 0 0-9.385-16.522l-.216-.372-.063-.185-1.522-11.505a178.054 178.054 0 0 1-.186-3.422c-.16-3.568-.23-7.207-.16-10.606.118-5.815.629-10.153 1.653-12.474 1.362-3.084 1.873-8.557 1.758-16.14a209.498 209.498 0 0 0-.27-7.597c-2.15-.938-5.712-1.17-6.753.388-.635.948-.955 3.813-1.404 11.007l-.068 1.084c-.43 6.854-.758 9.926-1.45 11.738-1.437 3.765-5.21 23.28-5.49 27.176-.204 2.86 6.371 17.109 9.186 19.715 4.251 3.94 16.136 21.462 16.509 25.736.03.347.057.733.09 1.278.429 7.03.938 10.29 2.97 14.786a25.202 25.202 0 0 0 6.328 8.593c3.743 3.318 9.555 9.153 17.606 17.562l1.108 1.159c.559.585 17.206 18.17 19.316 20.264 11.01 10.927 25.565 15.382 39.013 13.27 12.234-1.921 20.871-9.029 20.871-17.416 0-7.654-2.209-14.029-5.89-19.195a28.704 28.704 0 0 0-4.042-4.583c-.48-.437-.925-.808-1.323-1.114a9.608 9.608 0 0 0-.486-.354l-.093-.08c-2.52-2.764-5.54-6.12-9.983-11.082.273.306-9.1-10.171-11.837-13.223l-.75-.836c-17.514-19.512-27.108-29.728-29.586-31.118-2.881-1.617-4.923-1.951-6.214-1.596-.14.04-.221.073-.244.086a.5.5 0 0 1-.744-.372 146.954 146.954 0 0 0-.49-3.414c-.4-2.563-.863-5.125-1.382-7.514-1.237-5.692-2.62-9.53-3.953-10.416l-3.626-2.412a.5.5 0 0 1-.222-.447l.017-.293a241.216 241.216 0 0 0 .185-3.929c.205-5.283.273-10.74.12-15.835-.302-10.068-1.433-16.978-3.5-19.039-5.256-5.24-9.877-7.008-12.658-5.067-1.774 1.238-2.231 27.626-1.669 41.348.068.093.123.165.162.215a.5.5 0 0 1-.12.727c.147 3.176.354 5.556.617 6.603.313 1.251.953 2.19 1.826 2.874.445.349.924.609 1.402.791.283.108.497.165.608.185a.5.5 0 0 1 .404.413l.054.332a8376.343 8376.343 0 0 1 .686 4.29 10614.799 10614.799 0 0 1 1.663 10.426c1.037 6.53 1.787 11.306 2.13 13.588.082.54.138 1.102.173 1.699.058 1 .056 1.807.018 3.55-.13 6.024.508 8.188 4.08 10.055.49.256.952.519 1.385.788 2.15 1.34 3.538 2.79 4.299 4.265.493.958.652 1.762.628 2.321l-.002.04a.5.5 0 1 1-.997-.082c.017-.393-.108-1.025-.518-1.82-.675-1.31-1.936-2.628-3.938-3.875-.412-.256-.851-.506-1.32-.751-4.02-2.101-4.755-4.59-4.616-10.963.037-1.717.038-2.506-.018-3.47a17.64 17.64 0 0 0-.162-1.608c-.343-2.279-1.093-7.053-2.13-13.58l-.034-.217a10613.988 10613.988 0 0 0-2.165-13.56l-.15-.938c-.594-.164-1.345-.503-2.097-1.091-1.042-.816-1.81-1.944-2.18-3.419-.209-.835-.408-3.56-.564-7.294a19.709 19.709 0 0 1-1.071-1.653 12.587 12.587 0 0 1-1-2.13l-.038-.11c-1.284-3.873-3-21.828-1.493-24.86 2.795-5.627 2.33-22.448.245-27.113-1.007-2.252-4.717-3.646-8.265-3.119-3.98.592-6.473 3.284-6.229 7.733l.176 3.169.058 1.095zm233.059 28.356c.245-.686.51-1.385.775-2.036.718-1.763 1.434-3.224 2.15-4.31-2.082-6.626-4.43-22.475-3.553-27.594l-.125-.143a22.346 22.346 0 0 1-.765-.943 29.222 29.222 0 0 1-2.31-3.5c-2.22-3.945-3.5-8.24-3.357-12.73.023-.723.032-1.051.075-2.635.166-6.12.356-8.642 1.015-11.166.866-3.311 2.499-5.31 5.247-6.041 2.954-.786 4.932-.29 6.146 1.378.201.278.374.56.527.866.65-1.588 2.327-2.724 4.07-2.6 2.16.155 3.99 2.089 5.048 5.726.537 1.845.969 3.54 1.808 6.999l.133.55c2.062 8.503 3.184 12.061 4.969 14.564 1.267 1.776 3.7 5.743 7.632 12.354l.22.37c.681 1.148 4.217 7.117 5.063 8.536 1.637 2.746 2.584 4.293 2.96 4.82 1.483 2.082 2.397 9.979 1.994 14.015a19.385 19.385 0 0 1-.6 3.248 14.933 14.933 0 0 1-.488 1.476c-.08.202-.146.357-.195.462a140.156 140.156 0 0 1-.205 1.382c-.175 1.158-.377 2.449-.602 3.839a316.444 316.444 0 0 1-2.097 11.652c-1.413 7.015-2.798 12.245-4.113 15-1.067 2.234-1.81 5.099-2.288 8.504-.476 3.384-.593 5.668-.727 11.187-.032 1.34-.06 1.976-.114 2.419-.529 4.228-8.945 18.078-20.755 31.75-9.786 11.331-13.102 18.056-17.601 32.16-.335 1.048-.55 1.718-.777 2.411-.376 1.147-.718 2.15-1.063 3.115-4.194 11.706-16.426 18.43-32.481 19.4-16.425.992-31.884-12.633-28.3-24.48 2.605-8.613 5.522-13.66 10.604-19.743a182.079 182.079 0 0 1 1.202-1.424l.398-.47c5.124-6.037 7.42-9.6 9.707-16.23 1.918-5.563 4.618-10.243 7.9-14.114 2.421-2.854 5.016-5.107 7.614-6.822a26.685 26.685 0 0 1 2.522-1.484c.267-.137.505-.251.71-.345l.099-.652c.113-.738.245-1.56.397-2.444.432-2.53.927-5.058 1.478-7.42 1.08-4.63 2.232-8.04 3.472-9.781a10.96 10.96 0 0 1 1.457-1.675c1.826-1.697 3.75-2.241 5.42-2.109l-.025-.84a7891.892 7891.892 0 0 0-.524-17.651c-.159-5.087-.291-9.018-.388-11.445-.038-.939-.063-1.92-.077-2.94-.046-3.364.033-6.967.191-10.522a201.678 201.678 0 0 1 .191-3.568l-.103-.13a19.448 19.448 0 0 1-.603-.81 25.784 25.784 0 0 1-1.816-2.996c-1.976-3.812-2.997-7.938-2.543-12.184 1-9.355 3.771-14.08 9.57-15.696 4.137-1.15 6.02 1.348 6.684 6.44.067.516.123 1.055.176 1.676.021.243.041.491.064.798.01.115.047.621.058.754.166 2.159.87 4.154 2.358 7.246.079.164.74 1.525.925 1.913.34.717.596 1.288.81 1.825 1.345 3.37 3.832 15.167 4.756 22.838zm-.764 2.293c-.624-7.257-3.476-21.141-4.92-24.76a30.27 30.27 0 0 0-.786-1.767c-.182-.383-.842-1.74-.922-1.908-1.538-3.197-2.276-5.287-2.454-7.604-.165-2.136-.179-2.304-.292-3.175-.596-4.574-2.076-6.537-5.424-5.605-5.325 1.483-7.883 5.846-8.844 14.838-.431 4.029.543 7.967 2.435 11.617a24.789 24.789 0 0 0 1.746 2.88c.207.294.4.55.571.769.102.129.173.215.209.257a.5.5 0 0 1 .12.36 200.678 200.678 0 0 0-.203 3.743c-.157 3.538-.235 7.122-.19 10.464.014 1.012.039 1.984.076 2.914.097 2.431.23 6.364.389 11.454l.075 2.451a6897.307 6897.307 0 0 1 .45 15.203c.017.634.017.634.03 1.056l.01.374a.5.5 0 0 1-.622.499 2.069 2.069 0 0 0-.188-.033c-1.468-.201-3.234.223-4.945 1.814-.462.43-.904.935-1.323 1.522-1.14 1.598-2.264 4.924-3.313 9.427a127.342 127.342 0 0 0-1.467 7.362 142.796 142.796 0 0 0-.53 3.345.5.5 0 0 1-.309.395c-.157.062-.463.2-.897.423-.73.374-1.546.848-2.426 1.429-2.521 1.664-5.045 3.855-7.402 6.634-3.203 3.777-5.84 8.35-7.718 13.793-2.334 6.769-4.692 10.428-9.89 16.552l-.398.47a477.893 477.893 0 0 0-1.197 1.417c-5 5.985-7.851 10.918-10.414 19.391-3.351 11.08 11.476 24.147 27.282 23.192 15.697-.948 27.564-7.471 31.6-18.738.343-.956.681-1.95 1.054-3.09.227-.69.442-1.357.775-2.402 4.537-14.222 7.909-21.061 17.798-32.51 11.688-13.532 20.022-27.247 20.518-31.221.05-.395.076-1.018.108-2.32.134-5.558.253-7.865.736-11.3.49-3.499 1.258-6.456 2.375-8.797 1.268-2.655 2.64-7.833 4.035-14.766a315.473 315.473 0 0 0 2.09-11.615 356.57 356.57 0 0 0 .816-5.279l.047-.152a6.42 6.42 0 0 0 .197-.459c.154-.392.31-.853.455-1.377.259-.934.457-1.965.568-3.08.381-3.814-.509-11.503-1.814-13.335-.4-.56-1.346-2.106-3.004-4.888-.847-1.42-4.383-7.39-5.064-8.536l-.22-.37c-3.913-6.58-6.343-10.542-7.587-12.286-1.892-2.654-3.026-6.25-5.126-14.908l-.133-.55c-.836-3.445-1.265-5.13-1.796-6.956-.953-3.274-2.48-4.887-4.16-5.007-1.36-.097-2.71.87-3.14 2.164a.5.5 0 0 1-.491.342c.305.921.53 2.12.805 3.926.112.732.202 1.533.33 2.847l.128 1.315c.05.516.093.938.138 1.343.472 4.336 1.141 6.746 2.319 7.49a.5.5 0 0 1 .196.234c.024.06.069.172.131.332a61.628 61.628 0 0 1 1.379 3.959c.385 1.243.713 2.45.965 3.595.161.73.29 1.424.382 2.079.273 1.929.564 3.46.854 4.635.172.693.302 1.109.38 1.305.053.152.153.439.295.84.237.67.504 1.415.796 2.218a281.22 281.22 0 0 0 2.53 6.73c.292.74.576 1.452.852 2.13 1.605 3.94 2.874 6.56 3.574 7.269 1.299 1.313 1.687 4.162 1.524 8.488a86.748 86.748 0 0 1-.246 3.856c0-.008-.157 1.88-.192 2.338l-.179 2.329a598.742 598.742 0 0 0-.205 2.75c-.132 1.84-.24 3.508-.328 5.09-.149 2.692-.23 5.013-.23 6.944 0 .978-.08 2.04-.23 3.176-.22 1.64-.58 3.385-1.041 5.167a57.856 57.856 0 0 1-1.16 3.894 29 29 0 0 1-.08.236 187.666 187.666 0 0 1-.006 1.264 456.01 456.01 0 0 1-.035 3.558c-.05 3.68-.141 7.36-.283 10.797-.313 7.595-.82 12.88-1.591 14.96-.766 2.063-2.117 3.746-4.639 6.172-.131.127-1.397 1.33-1.75 1.675a24.276 24.276 0 0 0-1.52 1.595c-.809.947-1.3 1.774-1.497 2.571a.5.5 0 0 1-.97-.24c.24-.973.806-1.926 1.707-2.98.43-.504.93-1.025 1.582-1.662.358-.35 1.628-1.557 1.755-1.68 2.42-2.328 3.696-3.917 4.394-5.8.718-1.936 1.223-7.19 1.53-14.652.141-3.426.232-7.098.282-10.77a454.988 454.988 0 0 0 .04-4.894l.03-.17a45.294 45.294 0 0 0 .387-1.159c.291-.916.583-1.916.856-2.966.452-1.746.805-3.451 1.017-5.048.146-1.094.223-2.114.223-3.044 0-1.952.08-4.29.23-6.999.088-1.588.197-3.262.33-5.106.062-.864.127-1.73.205-2.755l.18-2.33c.034-.461.192-2.354.191-2.342.124-1.523.2-2.676.244-3.813.151-4.03-.214-6.714-1.236-7.747-.837-.846-2.117-3.49-3.79-7.595-.277-.681-.563-1.397-.855-2.143a282.193 282.193 0 0 1-2.54-6.753 317.083 317.083 0 0 1-1.089-3.05c-.087-.221-.23-.679-.412-1.415-.299-1.208-.597-2.773-.874-4.734a26.548 26.548 0 0 0-.368-2.004 44.146 44.146 0 0 0-.944-3.514 60.639 60.639 0 0 0-1.425-4.07c-1.464-1.049-2.143-3.58-2.64-8.133-.044-.41-.088-.835-.139-1.354l-.127-1.315c-.127-1.297-.215-2.084-.323-2.79-.458-3.011-.769-4.228-1.52-5.261-.945-1.3-2.494-1.689-5.08-1-4.278 1.137-5.205 4.683-5.52 16.267a468.743 468.743 0 0 1-.075 2.64c-.137 4.287 1.092 8.41 3.229 12.207a28.228 28.228 0 0 0 2.23 3.38c.266.345.512.646.732.9.13.152.221.253.268.302a.5.5 0 0 1 .126.446c-.935 4.488 1.278 19.798 3.264 26.657.495-.569.99-.946 1.487-1.107a.5.5 0 0 1 .308.952c-.432.14-.918.596-1.434 1.314.246.728.486 1.302.712 1.683a.5.5 0 1 1-.86.51 7.791 7.791 0 0 1-.527-1.137c-.538.932-1.096 2.104-1.648 3.458a57.272 57.272 0 0 0-1.454 4.058c.072.873.111 1.65.111 2.3 0 12.632 1 31.736 2.522 37.074 1.982 6.95 1.893 13.37-.377 16.943-.861 1.357-2.919 4.703-5.806 9.434l-.054.088a4912.753 4912.753 0 0 0-6.199 10.189.5.5 0 0 1-.855-.52 3098.007 3098.007 0 0 1 1.934-3.184c1.452-2.388 2.906-4.776 4.267-7.006l.054-.088c2.89-4.737 4.949-8.085 5.815-9.449 2.085-3.282 2.17-9.43.26-16.132-1.56-5.467-2.56-24.606-2.56-37.35l-.002-.164A.5.5 0 0 1 249.5 92c0-.218.167-.876.432-1.744zm-79.065 20.478a608.687 608.687 0 0 1-2.365-5.858 626.217 626.217 0 0 1-7.185-18.908c-6.554-18.174-10.515-32.217-10.584-39.602C150.516 22.473 172.657.5 197.812.5c16.135 0 27.754 5.449 37.546 15.505a.5.5 0 0 1-.716.697C225.029 6.831 213.662 1.5 197.812 1.5c-24.603 0-46.291 21.524-46.079 44.856.067 7.228 4.012 21.215 10.524 39.273a625.234 625.234 0 0 0 7.174 18.878 607.67 607.67 0 0 0 3.022 7.45l.233.56c.212.505-.425.934-.813.549a25.463 25.463 0 0 0-.931-.851 28.725 28.725 0 0 0-2.42-1.89c-1.729-1.202-3.424-2.073-4.99-2.47-1.51-.384-2.831-.307-3.937.285-1.312.703-2.414 2.345-4.505 6.285-.69 1.299-.691 1.303-.94 1.76-2.102 3.861-3.505 5.5-5.319 5.301-1.531-.168-3.106-1.357-5.056-3.549-.666-.748-1.305-1.526-2.3-2.777-4.03-5.07-5.433-6.409-6.746-5.886-2.13.849-4.238 2.112-6.276 3.68a37.54 37.54 0 0 0-4.844 4.47c-.178.2-.3.34-.36.412-.36.435-1.052.031-.852-.497l.133-.357c.11-.295.237-.642.38-1.04a199.9 199.9 0 0 0 1.354-3.9 249.124 249.124 0 0 0 4.114-13.486c2.153-7.848 3.834-15.516 4.864-22.71 1.562-10.907 1.536-20.11-.4-27.048-7.75-27.784-27.05-42.537-56.531-36.667-12.044 2.397-21.961 8.277-29.949 16.68a.5.5 0 1 1-.724-.688c8.122-8.547 18.22-14.533 30.478-16.973 30.041-5.981 49.808 9.129 57.69 37.38 1.98 7.096 2.006 16.425.426 27.457-1.036 7.24-2.727 14.948-4.89 22.834a250.118 250.118 0 0 1-4.13 13.54c-.369 1.097-.718 2.108-1.043 3.027a38.447 38.447 0 0 1 3.674-3.226c2.107-1.62 4.291-2.93 6.516-3.817 2.01-.8 3.376.504 7.899 6.193.984 1.237 1.614 2.004 2.264 2.734 1.793 2.016 3.212 3.088 4.418 3.22 1.197.132 2.456-1.34 4.331-4.785.247-.453.249-.457.935-1.75 2.209-4.161 3.347-5.857 4.917-6.699 1.348-.722 2.92-.813 4.655-.372 1.7.431 3.496 1.353 5.315 2.619.644.448 1.26.918 1.841 1.395l-.067-.166z"/>
</svg>
