<svg xmlns="http://www.w3.org/2000/svg" width="232" height="340" viewBox="0 0 232 340">
    <path fill="#1747FF" fill-rule="nonzero" d="M93.395 38.468c-2.604.965-4.179 1.133-5.468.56-.792-.351-1.415-1.21-1.932-2.436a6.847 6.847 0 0 1-.355 1.054 6.048 6.048 0 0 1-1.465 2.074c-1.02.942-1.776 2.786-2.265 5.174a27.343 27.343 0 0 0-.405 2.662 17.93 17.93 0 0 0-.098 1.361c0 .64-.52.665-.915.453a3.49 3.49 0 0 1-.569-.417c-.434-.371-1-.936-1.582-1.579-1.41-1.557-2.612-3.219-3.164-4.506-1.356-3.166-.876-6.226 1.575-7.657.244-.142.488-.27.734-.387-2.177.235-4.84 1.005-5.594 1.759-.339.339-.58 1.482-.662 3.085a32.615 32.615 0 0 0 .026 3.555.5.5 0 0 1-.657.508c-1.122-.374-4.41-7.13-4.042-9.152.451-2.486 7.374-4.58 10.791-3.512 3.187.996 9.22.672 11.496-.73 2.259-1.389 3.597-3.109 4.046-6.156.198.077.387.136.592.184a.5.5 0 0 0 .22.883l-.038.17a5.208 5.208 0 0 1-1.173-.32 27.424 27.424 0 0 1-3.246-1.513c-.523 2.63-2.337 3.333-7.191 3.76.128-.01-2.055.177-2.731.24-1.147.107-2.179.22-3.23.356-4.281.559-7.766-.718-10.661-3.528-2.157-2.094-3.72-4.626-5.666-8.657-.774-1.603-.879-3.54-.43-5.73.378-1.853 1.137-3.817 2.163-5.813A35.313 35.313 0 0 1 63.7.514c.1-.145.172-.247.212-.301a.5.5 0 0 1 .394-.205 119.136 119.136 0 0 1 7.14.148c4.226.204 8.51.597 12.66 1.224 4.178.63 6.68 2.105 8.022 4.557 1.043 1.905 1.316 3.758 1.518 8.317.055 1.233.093 2.03.136 2.706.25-.344.518-.684.803-1.009 1.742-1.988 3.608-2.912 5.47-2.036.455.214.926.514 1.413.893.966.752 1.98 1.802 3.02 3.076a40.576 40.576 0 0 1 2.146 2.903 41.24 41.24 0 0 1 .858 1.324c.287.474-.296.994-.734.655a35.967 35.967 0 0 0-2.325-1.632c-.346-.222-.68-.426-1-.61-1.388-.799-2.405-1.115-2.588-.931a46.858 46.858 0 0 1-5.85 4.945l.282.014c1.905.09 2.817.263 4.034.97a26.01 26.01 0 0 1 2.03 1.305c2.67 1.905 4.377 3.959 5.296 6.043a8.87 8.87 0 0 1 .66 2.187c.075.467.092.853.076 1.141l-.007.085a.5.5 0 0 1-.6.436 26.468 26.468 0 0 0-1.5-.247c-1.678-.226-3.394-.317-4.988-.197-1.182.09-2.231.293-3.115.622a272.479 272.479 0 0 0 2.288 5.78c1.918 4.688 3.981 9.4 6.112 13.832 2.03 4.224 3.48 9.419 4.46 15.24 7.465-.356 14.284-.163 20.47.49a414.096 414.096 0 0 1 6.002-8.86c2.191-2.817 4.986-5.173 8.27-7.142 2.433-1.458 5.005-2.634 7.777-3.646 1.495-.546 4.853-1.612 4.905-1.631.91-.33 2.259-.65 3.94-.955a82.32 82.32 0 0 1 3.654-.573 86.397 86.397 0 0 1-4.119-2.783 52.538 52.538 0 0 1-1.807-1.36c-1.93-1.523-3.16-2.766-3.544-3.723-.441-1.104-.438-2.279-.178-5.876.059-.815.09-1.288.117-1.8.148-2.796-.008-4.645-.636-5.963-.926-1.945-.656-3.166.717-3.351.818-.11 1.952.202 3.133.727 3.821 1.699 6.722 3.707 7.037 6.07.031.235.17 1.435.169 1.428.087.735.172 1.375.276 2.042.284 1.822.66 3.514 1.174 5.105 1.277 3.952 3.247 6.77 6.083 8.079 1.572.726 3.43 1.333 5.379 1.748.55 1.217 1.576 2.18 3.133 2.863 1.87.82 5.914 2.277 6.096 2.356 2.105.915 2.461 1.941 2.01 5.444-.19 1.465-.157 2.67.026 4.139.266 2.141.26 2.01-.131 2.41-.47.482-1.154.358-2.875-.287-1.637-.614-3.092-1.656-4.745-3.233-.455-.434-2.046-2.044-2.392-2.369-.74-.695-1.26-1.048-1.652-1.12-1.074-.195-1.78-1.25-2.502-3.146-.15-.394-.605-1.693-.686-1.907a4.497 4.497 0 0 0-.256-.582c-.029-.05-.041-.067.002-.06-.12-.03-.143-.013-.214.182-.157.43-.177 1.302-.018 2.655.07.601.216 1.122.482 1.837.545 1.461.54 1.447.578 1.985.084 1.165-.544 2.181-2.144 3.382-1.301.975-3.366 1.748-6 2.36a50.384 50.384 0 0 1-4.962.87 56.021 56.021 0 0 1-2.259.241.5.5 0 0 1-.505-.676c.023-.06.065-.18.12-.35.093-.29.187-.615.274-.97.311-1.263.463-2.542.371-3.722a6.765 6.765 0 0 0-.245-1.384c-.576-1.96-.504-2.988.146-4.092.061-.104.617-.961.785-1.263.099-.179.23-.356.392-.534.25-.274.573-.552.961-.832-2.984.923-5.96 1.99-8.743 3.19-4.463 1.925-8.008 4.014-10.286 6.233-1.808 1.761-4.497 5.294-7.445 9.598a88.126 88.126 0 0 1 8.508 1.795c2.634.698 4.873 1.446 6.725 2.196.51.207.963.402 1.358.583 16.161-3.84 27.603-4.307 33.254-1.634 19.133 9.043 34.542 32.9 40.874 61.395 5.434 24.453 5.788 38.749 2.651 55.96-.346 1.902-.725 3.83-1.268 6.487l-.219 1.066c1.18 1.1 1.848 2.645 1.848 4.596 0 2.043-.367 2.955-1.439 2.725-.342-.073-.688-.274-1.23-.668.03.023-.36-.27-.758-.563a.5.5 0 0 1-.567-.413l-.125-.088c-1.824-1.26-3.442-1.81-5.299-1.5-1.75.291-3.684 1.03-6.078 2.249-.908.462-1.806.95-3.135 1.694-5.222 2.924-6.647 3.63-8.771 4.054-2.074.415-3.986 5.405-5.578 12.896 1.882-.253 4.226.298 6.78 2.214 3.902 2.926 10.908 4.103 12.349 2.182.145-.194 1.062-1.396 1.335-1.762 1.167-1.57 1.899-2.754 2.331-3.9.42-1.113.5-2.092.21-2.962-.614-1.844-1.617-2.806-3.503-3.003.945 1.706 1.35 4.232.213 5.938-2.097 3.145-6.495 3.82-8.811 1.504-1.649-1.649-1.52-4.359-.217-6.063-3.07.757-5.004 1.552-6.923 2.877-1.917 1.323-3.225.705-2.368-1.13.685-1.467 2.504-3.317 4.827-4.71 4.42-2.653 10.798-3.822 15.339-3.065 2.604.434 3.798 1.675 3.72 3.43-.033.745-.295 1.518-.709 2.286a8.435 8.435 0 0 1-.703 1.09.502.502 0 0 1-.08.08c.058.144.112.294.164.45.37 1.112.271 2.319-.223 3.63-.473 1.255-1.246 2.506-2.465 4.144-.277.373-1.196 1.577-1.337 1.766-1.88 2.506-9.463 1.232-13.75-1.982-2.444-1.834-4.607-2.285-6.267-1.988a3.7 3.7 0 0 0-.13.025c-1.123 5.55-2.078 12.346-2.805 19.612-.242 2.422-.22 4.452-.015 8.361.25 4.791.238 6.497-.263 8.512-.668 2.68-2.237 4.493-5.044 5.546-4.672 1.752-8.304 2.29-11.453 1.923a15.813 15.813 0 0 1-2.004-.362 95.979 95.979 0 0 1-2.45.434 17.95 17.95 0 0 0-1.316 1.94c-.618 1.055-1.068 2.087-1.279 3.038-.3 1.348-.1 2.425.68 3.205l.173.172 3.045-5.076a.5.5 0 0 1 .429-.242h3a.5.5 0 0 1 .48.362l2 7a.5.5 0 0 1-.257.585l-4 2a.5.5 0 0 1-.447 0 6.449 6.449 0 0 1-.393-.222 15.91 15.91 0 0 1-1.049-.694 27.266 27.266 0 0 1-2.594-2.127l-1.898 3.164.045.007a7.624 7.624 0 0 1 1.922.525c1.03.44 1.842 1.102 2.347 2.015.271.181.527.378.767.59.598.528 1.01 1.061 1.272 1.523l3.505-2.628a.5.5 0 0 1 .788.291l2 9a.5.5 0 0 1-.33.583c-.137.046-.394.132-.755.255a261.529 261.529 0 0 0-7.167 2.556 23.338 23.338 0 0 1-.701 1.751 21.053 21.053 0 0 1 .4 1.562c.357 1.656.533 3.336.428 4.915-.178 2.668-1.144 4.738-3.106 5.915-2.991 1.795-5.871 2.742-8.663 2.643l-3.128 15.144-.072.092c-6.696 8.609-14.578 10.931-24.775 8.175-4.32-1.168-9.07-3.224-14.948-6.354-2.406-1.281-4.975-2.725-8.2-4.594-1.761-1.022-7.976-4.667-8.723-5.103a106.048 106.048 0 0 1-8.162-5.293c-.89.055-2.522.154-3.697.212-9.257.459-18.8.367-27.892-.669-12.953-1.475-22.736-4.68-28.116-10.06-5.7-5.7-8.02-11.531-7.636-17.875.292-4.81 1.75-8.88 5.325-16.4 1.828-3.844 1.967-4.142 2.603-5.61 5.56-12.828 6.954-23.165 4.731-39.463-.102-.748-1.058-7.945-1.313-9.726a130.637 130.637 0 0 0-.672-4.254c-.392-.295-.795-.59-1.21-.887-15.87-11.335-28.055-39.665-26.208-66.44.801-11.62 3.074-23.57 6.362-35.333a204.847 204.847 0 0 1 4.587-14.383 150.18 150.18 0 0 1 1.513-4.019 89.753 89.753 0 0 1 .57-1.41c.888-2.508 11.563-6.281 29.192-10.291-1.541-1.678-2.808-2.877-3.453-3.2-1.931-.965-5.98-1.36-9.47-.632-2.68.558-4.823-.883-6.693-3.68-.49-.733-.763-1.214-1.447-2.484-1.517-2.819-7.11-9.364-8.827-9.892-.998-.307-1.527-.944-1.6-1.772-.039-.444.056-.897.233-1.34a3.42 3.42 0 0 1 .244-.499.5.5 0 0 1 .852.524 2.482 2.482 0 0 0-.168.348c-.124.31-.188.616-.165.88.037.417.284.714.898.903 2.048.63 7.779 7.338 9.413 10.374.669 1.241.932 1.705 1.398 2.402 1.669 2.496 3.476 3.711 5.659 3.257 3.7-.772 7.977-.355 10.12.717.781.39 2.308 1.848 4.117 3.843a412.21 412.21 0 0 1 3.365-.74 76.8 76.8 0 0 1-3.017-2.898c-.384-.394-.688-.72-.922-.984a7.643 7.643 0 0 1-.276-.325.5.5 0 0 1-.097-.396l.049-.28a94.576 94.576 0 0 0 .526-3.49c.206-1.56.366-3.083.466-4.512.256-3.687.07-6.349-.628-7.395-.394-.59-.974-1.401-1.851-2.594-.385-.524-2.079-2.812-2.513-3.402L48 53.254c-2.83-3.86-4.32-6.095-4.659-7.198-.343-1.116-.243-2.01.19-3.441.346-1.144.404-1.439.309-1.82-.112-.45-.37-.95-.73-1.466a8.636 8.636 0 0 0-.827-1.004.5.5 0 0 1 .283-.849 19.45 19.45 0 0 0 1.14-.218c.86-.191 1.72-.438 2.52-.743 1.627-.622 2.771-1.404 3.226-2.314.816-1.632 1.31-3.055 1.362-4.169.06-1.29-.47-2.01-1.83-2.205-.483-.069-1.008-.033-1.572.1-1.124.268-2.351.911-3.603 1.817a19.847 19.847 0 0 0-2.332 1.988.5.5 0 0 1-.827-.168 8.4 8.4 0 0 0-.597-1.21c-.34-.565-.686-.94-.952-1.028-.028-.009-.144.038-.333.206-.245.218-.523.57-.81 1.015a13.071 13.071 0 0 0-.78 1.39.5.5 0 0 1-.777.166 3.76 3.76 0 0 0-.27-.202 6.704 6.704 0 0 0-.8-.476c-1.213-.614-2.537-.868-3.9-.565-1.094.243-2.103 1.036-2.997 2.217a11.563 11.563 0 0 0-1.377 2.379.5.5 0 0 1-.792.191 6.474 6.474 0 0 0-.4-.31 10.483 10.483 0 0 0-1.118-.71c-1.74-.956-3.507-1.315-5.125-.759a4.76 4.76 0 0 0-.421.168c-3.09 1.405-5.78 3.936-5.963 5.031-.05.3-.089.747-.116 1.296a38.346 38.346 0 0 0-.046 1.83.5.5 0 0 1-.402.49c-.09.019-.251.052-.459.098-.345.077-.69.16-1.012.246a9.136 9.136 0 0 0-.974.306c-.186.075-.352.265-.485.553-.128.276-.196.56-.218.734a.5.5 0 0 1-.796.338.923.923 0 0 0-.175-.086c-.684-.27-1.6-.14-2.766.757-.64.493-1.142 1.244-1.513 2.189a10.068 10.068 0 0 0-.551 2.076 8.838 8.838 0 0 0-.106.934.5.5 0 0 1-.29.432 7.263 7.263 0 0 0-1.196.73c-.578.436-.959.889-1.062 1.301-.14.558-.069 1.233.166 1.67.206.382.447.48.814.296.648-.324 1.223-.048 1.12.673-.02.15-.068.32-.152.572-.023.07-.18.524-.227.667-.176.535-.281.958-.323 1.358-.056.534.015.965.228 1.299.297.467.825.628 1.588.521.432-.06.906-.204 1.39-.407a8.447 8.447 0 0 0 .903-.444.5.5 0 0 1 .755.386c.007.08.026.232.062.43.06.33.143.658.254.961.376 1.026.882 1.41 1.691 1.064.62-.266 1.44-.802 2.404-1.551.348-.27.71-.565 1.082-.88a52.283 52.283 0 0 0 2.943-2.698.5.5 0 0 1 .776.085 9.98 9.98 0 0 0 .64.88c.155.19.304.353.44.481.08.076.153.136.212.179.019-.06.04-.131.062-.216.037-.138.186-.77.224-.922.11-.437.222-.804.359-1.16.42-1.093 1.033-1.921 1.953-2.447.938-.537 1.674-.497 2.813-.103.692.24.877.277 1.081.203.295-.108.61-.55.935-1.476l.013-.043c.565-1.625.648-2.757.507-4.326-.132-1.462-.099-1.822.49-2.312.489-.408.984-.294 1.338.18.099.13.443.718.533.85.52.756 1.155 1.033 2.38.727 1.318-.33 2.404-.366 4.333-.267 1.944.1 2.5.035 2.819-.392.409-.545.702-1.13.897-1.716.115-.346.172-.61.189-.748a.5.5 0 0 1 .325-.408 7.013 7.013 0 0 0 1.281-.65c1.017-.659 1.393-1.317.991-2.006a25.093 25.093 0 0 0-2.116-3.07 9.835 9.835 0 0 0-.192-.23.5.5 0 0 1 .091-.741l.23-.16a491.834 491.834 0 0 0 2.454-1.713l.069-.048c1.257-.886 2.137-1.52 2.455-1.773.303-.243.624-.912.657-1.396.024-.339.014-.346-.476-.123a3.727 3.727 0 0 0-.38.202c-.529.32-1.107.813-1.704 1.432a18.174 18.174 0 0 0-1.597 1.914.5.5 0 1 1-.818-.576 19.157 19.157 0 0 1 1.695-2.031c.652-.678 1.292-1.224 1.908-1.595a4.72 4.72 0 0 1 .482-.256c1.182-.537 1.963.01 1.888 1.102-.052.751-.498 1.681-1.03 2.107-.341.273-1.225.91-2.504 1.81l-.07.049a441.914 441.914 0 0 1-2.243 1.567 26.084 26.084 0 0 1 2.065 3.025c.752 1.289.097 2.437-1.31 3.35a7.995 7.995 0 0 1-1.212.64 7.036 7.036 0 0 1-1.225 2.641c-.622.831-1.317.912-3.67.792-1.836-.094-2.844-.06-4.039.238-1.651.413-2.7-.045-3.446-1.13-.107-.156-.37-.602-.475-.766-.151.17-.154.427-.067 1.391.153 1.7.06 2.967-.546 4.701l-.013.043c-.426 1.226-.904 1.895-1.55 2.13-.515.187-.81.128-1.75-.197-.892-.309-1.36-.334-1.99.026-.694.397-1.172 1.042-1.516 1.937-.12.314-.22.645-.322 1.047-.035.14-.186.78-.227.933-.19.718-.369 1.046-.885 1.046-.353 0-.68-.197-1.042-.537a6.114 6.114 0 0 1-.527-.575 10.427 10.427 0 0 1-.364-.473 56.762 56.762 0 0 1-2.576 2.335c-.382.323-.755.627-1.114.906-1.025.798-1.909 1.374-2.624 1.68-1.46.627-2.477-.144-3.024-1.638a6.594 6.594 0 0 1-.26-.927 9.426 9.426 0 0 1-.389.173 6.705 6.705 0 0 1-1.638.475c-1.112.155-2.028-.123-2.57-.975-.348-.548-.456-1.199-.379-1.94.05-.484.172-.97.368-1.566.036-.11.127-.375.183-.54-.693.14-1.302-.203-1.668-.883C0 54.772-.097 53.841.1 53.05c.171-.684.685-1.295 1.428-1.857a8.247 8.247 0 0 1 1.113-.705c.02-.227.052-.48.096-.75.124-.777.32-1.554.607-2.285.432-1.1 1.032-1.998 1.834-2.615 1.333-1.026 2.53-1.26 3.502-.978.042-.127.093-.26.156-.394.23-.498.56-.876 1.02-1.06.28-.112.649-.227 1.088-.344a26.154 26.154 0 0 1 1.134-.274l.003-.182c.007-.44.02-.88.041-1.292.03-.584.07-1.063.129-1.41.25-1.498 3.173-4.249 6.535-5.777a5.76 5.76 0 0 1 .51-.203c1.932-.665 3.968-.251 5.932.828.428.235.82.486 1.171.738l.116-.229a12.55 12.55 0 0 1 1.12-1.786c1.024-1.354 2.212-2.287 3.577-2.59 1.615-.36 3.166-.062 4.57.648.296.15.552.301.765.44.178-.33.37-.658.57-.969.333-.514.66-.93.985-1.218.429-.381.867-.557 1.314-.407.557.185 1.038.705 1.493 1.461.134.222.258.455.373.69l.167-.154a20.836 20.836 0 0 1 1.773-1.441c1.348-.976 2.684-1.676 3.957-1.98.68-.16 1.33-.205 1.945-.117 1.897.271 2.77 1.459 2.688 3.241-.06 1.288-.593 2.823-1.467 4.57-.594 1.189-1.923 2.097-3.763 2.8a19.161 19.161 0 0 1-2.99.858c.114.144.227.294.335.45.425.606.736 1.21.882 1.796.16.637.088.998-.322 2.353-.38 1.255-.461 1.98-.191 2.857.289.94 1.786 3.187 4.51 6.9.162.223.162.223.326.445.433.588 2.126 2.877 2.513 3.402.886 1.206 1.472 2.025 1.877 2.633.87 1.305 1.066 4.093.793 8.018a75.563 75.563 0 0 1-.471 4.574 95.57 95.57 0 0 1-.542 3.586l.097.112c.222.25.516.565.889.947.875.897 2.03 2.004 3.504 3.34 9.09-1.933 19.698-3.896 31.517-5.776a197.027 197.027 0 0 1 15.672-1.877 50.603 50.603 0 0 0-.747-4.103c-.695-3.033-2.178-7.528-4.258-13.088-.371-.99-.758-2.008-1.16-3.048a439.045 439.045 0 0 0-4.04-10.066 448.066 448.066 0 0 0-1.382-3.293zm.933-.361a368.196 368.196 0 0 1 1.372 3.27 440.026 440.026 0 0 1 4.05 10.09c.403 1.043.791 2.064 1.163 3.058 2.095 5.599 3.589 10.127 4.296 13.215.298 1.3.553 2.715.772 4.251 1.023-.073 2.035-.137 3.035-.19-.966-5.69-2.383-10.758-4.355-14.859-2.14-4.45-4.211-9.181-6.136-13.887a273.476 273.476 0 0 1-2.281-5.763c-.69.306-1.327.578-1.916.815zm10.789 34.951c-4.948.383-10.163 1-15.65 1.872-11.464 1.824-21.822 3.742-30.744 5.624l.12.107c1.602 1.424 2.974 3.089 4.483 5.358.662.997 6.179 10.216 8.604 13.821 2.852 4.24 3.6 8.234 2.64 11.462-.775 2.603-2.754 4.423-4.007 3.587-1.027-.684-1.362-1.593-4.703-11.637-.504-1.517-.904-2.69-1.29-3.777a79.794 79.794 0 0 0-.951-2.55c-1.415-3.584-6.733-10.601-10.73-15.1-17.58 3.962-28.313 7.632-29.026 9.77-.445 1.335 4.21 7.502 10.233 12.843 7.776 6.896 16.423 11.621 24.348 12.502 9.449 1.05 17.948.836 25.13-.155a62.41 62.41 0 0 0 3.492-.575 35.633 35.633 0 0 0 1.07-.227l.351-.343c.37-.36.805-.776 1.303-1.244a176.178 176.178 0 0 1 4.904-4.433c5.257-4.585 11.051-9.169 17.213-13.448 12.058-8.374 24.012-14.537 35.353-17.562 1.318-.351 2.61-.683 3.873-.994a38.623 38.623 0 0 0-.117-.048c-1.814-.734-4.013-1.47-6.606-2.156a87.625 87.625 0 0 0-8.873-1.848c-2.34 3.459-4.812 7.35-7.116 11.189-1.287 2.144-2.705 3.025-3.952 2.583-1.067-.378-1.649-1.691-1.322-2.813.475-1.627 2.576-5.26 5.877-10.375a280.795 280.795 0 0 1 .851-1.31c-5.966-.602-12.526-.775-19.69-.439.863 5.481 1.325 11.487 1.478 17.74.095 3.904-.623 5.598-2.205 4.94-.85-.355-1.669-1.379-2.623-2.905-.384-.615-.535-2.088-.727-5.899l-.12-2.463a322.694 322.694 0 0 0-.142-2.706c-.123-2.15-.261-4.027-.438-5.813a87.004 87.004 0 0 0-.291-2.578zm.998-.074c.105.818.201 1.67.288 2.554.178 1.8.318 3.69.441 5.853.048.831.091 1.666.143 2.715.004.093.094 1.96.12 2.462.173 3.452.336 5.034.576 5.419.825 1.318 1.588 2.273 2.16 2.511.497.208.9-.74.82-3.991-.152-6.249-.618-12.252-1.484-17.714-1.01.053-2.03.117-3.064.19zm-13.113-35.44l-.061-.14a.5.5 0 1 1 .918-.396l.076.177a63.215 63.215 0 0 0 2.384-1.022c1.085-.488 2.395-.772 3.883-.885 1.673-.126 3.456-.032 5.196.203.35.047.674.096.969.147-.048-.625-.235-1.426-.645-2.354-.845-1.917-2.435-3.83-4.962-5.633a25.01 25.01 0 0 0-1.951-1.254c-1.04-.605-1.823-.753-3.58-.836-.665-.032-1.151-.068-1.565-.132-.642 2.705-2.07 4.4-4.296 5.77-2.547 1.569-8.875 1.909-12.318.833-2.92-.913-9.19.983-9.51 2.736-.22 1.213 1.565 5.253 2.662 7.097a31.42 31.42 0 0 1 .03-2.24c.096-1.867.366-3.152.952-3.74 1.233-1.232 5.785-2.316 8.207-2.096.592.054.728.068.857.094a.728.728 0 0 1 .182.056c.225.107.402.344.257.672a.484.484 0 0 1-.283.277c-.04.018-.082.033-.133.049-.076.023-.534.143-.677.183-.834.234-1.59.529-2.338.965-1.944 1.134-2.338 3.648-1.16 6.4.5 1.163 1.643 2.746 2.986 4.228.499.551.984 1.04 1.366 1.38.073-.91.24-2.207.482-3.39.528-2.577 1.35-4.586 2.567-5.708a5.05 5.05 0 0 0 1.225-1.734c.475-1.105.565-2.288.43-3.341a3.772 3.772 0 0 0-.048-.305l.98-.198c.028.152.085.426.174.78.148.59.329 1.18.541 1.726.453 1.166.989 1.96 1.534 2.202.986.438 2.359.278 4.669-.57zm.91-18.966c.195 2.173.193 3.977-.006 5.501a41.128 41.128 0 0 0 1.66-1.205 45.87 45.87 0 0 0 4.571-3.988c.686-.686 1.94-.295 3.794.77a24.995 24.995 0 0 1 1.223.754 37.44 37.44 0 0 0-1.442-1.894c-.995-1.22-1.96-2.22-2.858-2.919a6.644 6.644 0 0 0-1.225-.777c-1.337-.63-2.811.1-4.292 1.79a13.457 13.457 0 0 0-1.425 1.968zm-1.01-.073c-.112-1.202-.159-2.034-.255-4.206-.195-4.398-.454-6.162-1.396-7.881-1.177-2.15-3.402-3.461-7.295-4.05-4.114-.62-8.364-1.01-12.56-1.213a118.16 118.16 0 0 0-6.818-.151l-.054.077a34.322 34.322 0 0 0-2.136 3.59c-.987 1.92-1.715 3.804-2.073 5.555-.408 1.994-.315 3.715.351 5.095 4.21 8.72 8.166 12.559 15.297 11.629a88.241 88.241 0 0 1 3.267-.361c.68-.064 2.868-.251 2.736-.24 5.272-.464 6.327-1.086 6.445-4.386l.002-.06c1.108.761 2.567 1.522 4.446 2.266l.03.012c.224-1.518.227-3.364.014-5.662l-.002-.014zm42.161 54.318c3.088-4.533 5.927-8.278 7.843-10.144 2.381-2.321 6.021-4.467 10.587-6.435 2.939-1.268 6.085-2.386 9.23-3.346a95.575 95.575 0 0 1 3.894-1.099l.306-.076c.603-.146.88.72.303.95-.165.066-.458.19-.836.36-.63.285-1.26.596-1.846.922-.966.536-1.71 1.058-2.134 1.523-.112.124-.199.24-.257.346-.188.338-.753 1.21-.797 1.284-.5.848-.551 1.593-.049 3.303.147.498.24 1.03.283 1.588.102 1.301-.062 2.681-.397 4.04-.06.243-.123.474-.186.69.445-.044.935-.1 1.458-.167a49.413 49.413 0 0 0 4.863-.852c2.51-.583 4.463-1.314 5.626-2.186 1.355-1.017 1.802-1.741 1.747-2.51-.028-.394-.028-.392-.518-1.708-.292-.784-.456-1.374-.538-2.069-.35-2.968.121-4.262 1.504-3.915.409.101.603.444.91 1.247.088.231.541 1.53.685 1.907.595 1.56 1.165 2.413 1.747 2.519.641.116 1.283.553 2.157 1.374.363.34 1.958 1.955 2.398 2.375 1.564 1.491 2.92 2.462 4.406 3.02 1.236.463 1.774.56 1.807.526.034-.035.024-.235-.145-1.59-.192-1.545-.227-2.83-.025-4.39.4-3.11.197-3.697-1.416-4.399-.142-.061-4.19-1.519-6.1-2.357-1.606-.706-2.73-1.69-3.412-2.906-1.847-.425-3.605-1.015-5.117-1.713-3.136-1.448-5.26-4.487-6.615-8.68-.533-1.646-.92-3.388-1.211-5.258a56.14 56.14 0 0 1-.281-2.078c0-.002-.137-1.19-.167-1.413-.247-1.849-2.999-3.754-6.453-5.29-1.018-.452-2.015-.727-2.592-.649-.53.071-.626.507.052 1.93.721 1.514.888 3.492.732 6.446-.027.52-.06.998-.119 1.82-.244 3.38-.247 4.54.11 5.432.294.734 1.446 1.897 3.235 3.31.542.428 1.136.873 1.773 1.333a85.421 85.421 0 0 0 3.606 2.453 91.775 91.775 0 0 0 1.638 1.032.5.5 0 0 1-.202.924l-.427.052a92.006 92.006 0 0 0-4.557.69c-1.63.296-2.934.604-3.778.91-.078.029-3.434 1.095-4.903 1.63-2.716.993-5.233 2.143-7.605 3.566-3.185 1.909-5.886 4.186-7.98 6.878a429.845 429.845 0 0 0-5.691 8.39c1.174.137 2.326.29 3.454.46zm-.622.918a104.159 104.159 0 0 0-3.449-.441 314.71 314.71 0 0 0-1.127 1.733c-3.233 5.009-5.323 8.622-5.757 10.113-.186.635.153 1.399.695 1.59.696.247 1.69-.37 2.76-2.155a252.238 252.238 0 0 1 6.878-10.84zm-80.446 7.837c4.059 4.61 9.135 11.385 10.554 14.98.304.77.622 1.625.963 2.582.389 1.094.79 2.274 1.297 3.796 3.023 9.089 3.598 10.648 4.308 11.121.471.314 1.882-.983 2.494-3.04.871-2.93.18-6.617-2.51-10.619-2.445-3.633-7.964-12.856-8.608-13.826-1.464-2.202-2.784-3.803-4.314-5.163a153.71 153.71 0 0 1-.668-.597c-1.2.256-2.372.512-3.516.766zm-2.717 85.2a39.326 39.326 0 0 1-2.452 5.696c-1.185 2.229-2.457 4.046-3.732 5.482-.449.506-.867.93-1.244 1.273-.23.21-.4.35-.495.421a.5.5 0 1 1-.6-.8c.07-.053.215-.171.421-.36.352-.32.745-.718 1.17-1.197 1.224-1.379 2.45-3.13 3.597-5.288a37.08 37.08 0 0 0 1.819-3.99c-.206.126-.424.25-.653.37-2.084 1.092-4.553 1.618-7.36 1.269-5.994-.745-12.38 6.095-10.808 11.858.947 3.471 2.598 5.188 4.76 5.58 1.335.243 2.795-.031 4.235-.644.38-.162.728-.334 1.036-.507.182-.102.309-.18.371-.221a.5.5 0 0 1 .726.197l.244.49a91.57 91.57 0 0 0 2.856 5.234c.505.85.995 1.627 1.462 2.318 1.48 2.187 2.688 3.354 3.134 3.186a.5.5 0 1 1 .352.937c-1.141.428-2.507-.893-4.314-3.563a48.371 48.371 0 0 1-1.493-2.367 92.57 92.57 0 0 1-2.898-5.311c-.326.18-.69.36-1.084.527-1.605.683-3.248.992-4.806.709-2.567-.467-4.503-2.48-5.545-6.302-1.765-6.468 5.214-13.943 11.895-13.114 2.594.323 4.86-.16 6.773-1.162.524-.274.979-.568 1.363-.86.158-.12.28-.221.36-.293 3.12-9.356-4.399-21.135-13.238-19.315-3.8.782-6.352 3.665-7.881 8.028-.644 1.838-1.06 3.813-1.29 5.789a29.08 29.08 0 0 0-.162 1.91 15.71 15.71 0 0 0-.023.711.5.5 0 0 1-1 0c0-.142.006-.401.024-.762.03-.596.084-1.26.167-1.975.239-2.044.669-4.09 1.34-6.003 1.634-4.663 4.422-7.813 8.623-8.677 9.728-2.004 17.791 10.693 14.35 20.726zm-12.8 47.857c.165.993.327 2.057.492 3.207.256 1.787 1.213 8.989 1.314 9.733 2.248 16.478.828 27-4.804 39.996-.643 1.484-.783 1.782-2.618 5.641-3.521 7.407-4.949 11.391-5.23 16.031-.366 6.052 1.843 11.605 7.345 17.108 5.178 5.177 14.775 8.322 27.522 9.773 9.029 1.029 18.522 1.12 27.73.664.729-.036 1.656-.09 2.47-.138-22.666-16.65-41.81-43.228-41.81-62.213 0-13.755-.47-20.125-2.227-25.726-1.728-5.506-4.782-9.774-10.184-14.076zm-1.438-2.346c-.628-3.195-1.337-5.614-2.345-8.05-1.378-3.329-3.355-6.668-6.434-10.867-8.25-11.248-7.673-38.278-.264-48.404 6.49-8.869 15.116-7.165 28.762 4.328l.286.241c7.815 6.594 8.765 7.36 11.893 9.306 9.17 5.704 16.534 4.499 24.855-6.161.5-.64 1.004-1.29 1.517-1.953 3.875-5.013 16.509-21.898 18.73-24.786 6.524-8.483 10.95-13.573 14.495-16.393 8.088-6.436 20.4-12.398 31.936-15.358 13.051-3.349 23.694-2.616 29.388 2.888a.5.5 0 1 1-.695.719c-5.378-5.2-15.696-5.91-28.444-2.639-11.403 2.926-23.587 8.826-31.563 15.173-3.459 2.752-7.85 7.8-14.325 16.22-2.215 2.88-14.85 19.767-18.731 24.787-.513.664-1.02 1.316-1.52 1.957-8.639 11.068-16.572 12.366-26.171 6.395-3.189-1.984-4.143-2.753-12.01-9.39l-.285-.241c-13.264-11.17-21.273-12.753-27.31-4.502-7.158 9.78-7.723 36.332.262 47.222 3.123 4.258 5.14 7.665 6.552 11.075 1.147 2.772 1.914 5.512 2.605 9.313 6.1 4.654 9.509 9.24 11.392 15.243 1.798 5.73 2.273 12.167 2.273 26.025 0 18.88 19.523 45.689 42.38 62.118l.347-.02a.5.5 0 0 1 .487.613 104.303 104.303 0 0 0 7.538 4.857c.75.437 6.962 4.08 8.721 5.1 3.215 1.864 5.774 3.303 8.168 4.578 5.817 3.097 10.504 5.126 14.74 6.27 9.783 2.645 17.23.472 23.653-7.732l3.056-14.795c-3.449-.44-6.763-2.54-9.985-6.682a68.945 68.945 0 0 0-2.006-2.454 108.43 108.43 0 0 0-4.998-5.424 176.328 176.328 0 0 0-8.198-7.803 180.43 180.43 0 0 0-3.457-3.019l-.266-.223c-.39-.325-.105-.956.396-.879.157.025.45.07.86.137.683.111 1.444.238 2.263.38 2.34.406 4.682.849 6.868 1.313 3.564.758 6.361 1.497 8.118 2.2.755.302 1.621.69 2.898 1.29a672.271 672.271 0 0 0 3.423 1.61 76.89 76.89 0 0 0 3.68 1.6c4.365 1.746 7.56 2.327 9.628 1.5a142.813 142.813 0 0 1 2.634-1.022 43.731 43.731 0 0 0 1.067-3.635c.502-2.008.51-2.957.144-3.95-.021-.057-.844-1.903-1.134-2.77a3.347 3.347 0 0 0-.138-.349c-2.17-1.333-5.49-1.627-10.256-.327-10.083 2.75-11.743 3.119-15.03 3.055-1.904-.038-3.824-.367-6.239-1.057-6.515-1.861-7.66-1.976-8.509-1.127a.5.5 0 1 1-.707-.707c1.242-1.242 2.545-1.112 9.491.873 2.337.668 4.174.982 5.984 1.018 3.146.061 4.786-.303 14.747-3.02 3.304-.9 6-1.069 8.147-.652-.41-.14-.84-.24-1.27-.3a5.733 5.733 0 0 0-.745-.065.5.5 0 0 1-.429-.758l2.426-4.043a38.572 38.572 0 0 1-.35-.346c-1.054-1.053-1.317-2.476-.95-4.129.237-1.066.726-2.19 1.392-3.326.333-.569.689-1.104 1.045-1.592.214-.294.383-.508.482-.626a.5.5 0 0 1 .308-.175c.124-.019.358-.056.685-.112a8.703 8.703 0 0 1-2.28-1.216c-.956-.717-1.522-1.444-1.776-1.954a.5.5 0 0 1 .326-.708 13.526 13.526 0 0 0 1.52-.486c.523-.204.926-.411 1.145-.598.132-.113.12-.06.102-.078-.392-.392-.608-.592-.92-.832-1.536-1.182-3.569-1.643-6.628-1.031-.968.193-1.887.501-3.049.983a55.51 55.51 0 0 0-.569.24l-.547.235c-.436.186-.742.31-1.033.417-.773.283-1.365.406-1.904.357-1.329-.12-2.092-1.257-2.49-3.64-1.38-8.286-.442-17.674 3.27-19.53 4.563-2.28 7.724-.7 7.724 4.448 0 .42-.005.757-.02 1.531l-.008.384c-.056 3.075.101 4.58.793 5.8.868 1.53 2.604 2.172 5.673 1.788a63.694 63.694 0 0 0 4.215-.674c.3-.058 4.073-.84 4.992-.985 1.605-.252 2.82-.274 4.013-.024a8.482 8.482 0 0 1 2.065.732c4.156 2.078 4.512 7.419 1.13 10.801-1.248 1.248-4.023 2.364-7.92 3.394-.953.252-1.942.49-2.947.712 2.837.206 6.132-.35 10.338-1.928 4.471-1.676 5.12-4.28 4.66-13.068-.208-3.959-.23-6.026.018-8.513 1.883-18.832 4.984-33.557 9.4-34.44 1.972-.395 3.38-1.091 8.478-3.947a87.735 87.735 0 0 1 3.17-1.713c2.477-1.26 4.498-2.032 6.368-2.344 2.067-.344 3.855.22 5.774 1.49a794.066 794.066 0 0 1 .855-4.185c-2.595-1.976-7.536-1.936-13.344.646a36.005 36.005 0 0 0-5.749 3.205c-2.121 1.455-3.9 3.013-5.348 4.569a22.785 22.785 0 0 0-1.283 1.496c-.209.267-.344.455-.407.55a.5.5 0 0 1-.832-.555c.077-.115.226-.323.45-.61.369-.473.815-.998 1.34-1.562 1.496-1.608 3.33-3.215 5.515-4.713a37.004 37.004 0 0 1 5.908-3.294c5.812-2.584 10.977-2.733 13.974-.82l.12-.585a301.3 301.3 0 0 0 1.264-6.466c3.112-17.079 2.762-31.24-2.643-55.564-6.271-28.22-21.511-51.815-40.325-60.708-5.294-2.504-16.222-2.102-31.699 1.493a.5.5 0 0 1-.73.545c-.08-.044-.248-.131-.505-.254-1.658.397-3.367.83-5.124 1.299-11.213 2.99-23.07 9.103-35.04 17.416-6.13 4.257-11.896 8.819-17.127 13.38a175.18 175.18 0 0 0-4.876 4.408 112.5 112.5 0 0 0-1.733 1.666.5.5 0 0 1-.232.132 36.615 36.615 0 0 1-1.25.27c-1.015.198-2.201.398-3.549.584-7.26 1.001-15.842 1.217-25.377.158-8.165-.908-16.985-5.727-24.902-12.748-4.974-4.412-8.972-9.227-10.191-12.046a150.187 150.187 0 0 0-1.462 3.887 203.852 203.852 0 0 0-4.564 14.313c-3.27 11.7-5.531 23.586-6.327 35.131-1.824 26.441 10.216 54.433 25.791 65.559l.36.259zm178.073 6.278c-.76.04-1.629.16-2.626.36l-1.183.236a202.897 202.897 0 0 0-1.665.343.498.498 0 0 1-.208.194c-1.882.94-2.53 4.008-.91 5.627 1.85 1.85 5.51 1.288 7.27-1.352.788-1.18.759-2.662.086-4.14a6.636 6.636 0 0 0-.764-1.268zm-1.173-.892a.5.5 0 0 1 .268-.923c.498 0 1.013.308 1.476.812 2.198.018 3.614.741 4.529 2.263.132-.196.265-.412.389-.642.348-.648.565-1.286.59-1.857.054-1.209-.748-2.042-2.885-2.398-4.31-.719-10.446.406-14.661 2.935-2.162 1.298-3.841 3.005-4.435 4.275-.33.708-.311.717.894-.115 2.543-1.756 5.082-2.622 9.866-3.61.34-.071.7-.144 1.136-.232l1.184-.237a22.493 22.493 0 0 1 1.65-.271zm13.033-11.61c.43.317.876.65.834.62.43.311.695.465.853.499.043.01.01.028.056-.086.11-.275.173-.818.173-1.661 0-1.355-.39-2.484-1.1-3.365l-.213 1.03a728.003 728.003 0 0 0-.603 2.964zm-66.011-2.928c.739 2.589-.792 5.753-4.486 7.23-4.19 1.677-8.59-1.964-7.577-7.029.357-1.788 1.321-2.995 2.693-3.701a5.69 5.69 0 0 1 .237-.115c-2.742-.298-5.602-.03-8.703.646-.378.082-.745.166-1.205.276a415.874 415.874 0 0 0-1.025.243c-.751.174-1.178.25-1.507.25-.023 0-.061.144.091.753.201.804.718 1.932 1.454 3.156 1.722 2.859 4.208 5.597 6.72 7.167 3.014 1.883 5.8 3.04 8.32 3.61 1.709.385 3.075.459 4.063.357a3.16 3.16 0 0 0 .254-.034.5.5 0 1 1 .196.98 4 4 0 0 1-.347.049c-3.084.317-7.533-.688-13.016-4.114-2.658-1.662-5.25-4.515-7.047-7.5-.783-1.3-1.339-2.515-1.567-3.428-.287-1.15-.065-1.996.879-1.996.225 0 .608-.068 1.282-.224l.482-.114.537-.128c.466-.11.838-.196 1.223-.28 4.117-.898 7.845-1.1 11.446-.254a.499.499 0 0 1 .285.07 20.467 20.467 0 0 1 4.997 1.998c2.64 1.47 4.303 3.615 5.131 6.244.739 2.343.76 4.824.357 7.14a14.43 14.43 0 0 1-.184.896l2.245 2.246c.116-.349.232-.736.341-1.16.93-3.598.915-7.437-.667-11.023-1.499-3.397-4.317-6.273-8.699-8.464-1.872-.936-3.889-1.584-6.03-1.964-5.078-.903-10.538-.292-15.864 1.281-1.256.371-2.403.768-3.418 1.165a29.785 29.785 0 0 0-1.253.524.5.5 0 0 1-.423-.906c.062-.03.179-.082.346-.154.278-.12.6-.252.965-.395a43.423 43.423 0 0 1 3.5-1.193c5.461-1.613 11.068-2.24 16.322-1.307 2.233.397 4.341 1.074 6.302 2.054 4.587 2.294 7.572 5.34 9.167 8.955 1.685 3.821 1.7 7.88.72 11.677-.14.546-.291 1.037-.443 1.467a9.338 9.338 0 0 1-.208.546.5.5 0 0 1-.813.156l-3-3a.5.5 0 0 1-.126-.494 13.436 13.436 0 0 0 .235-1.08c.378-2.17.358-4.498-.325-6.666-.544-1.726-1.477-3.215-2.857-4.413zm-1.879-1.298a19.384 19.384 0 0 0-4.81-1.891l-.184.014a6.295 6.295 0 0 0-.547.073c-.52.092-1.024.25-1.492.49-1.11.572-1.875 1.53-2.17 3.01-.858 4.284 2.771 7.286 6.224 5.904 4.087-1.634 5.058-5.45 2.98-7.6zm21.464-5.928l-.489.163-.148-.494a7.983 7.983 0 0 0-.231-.627 16.742 16.742 0 0 0-.822-1.718c-.976-1.788-2.305-3.579-4.04-5.25-2.74-2.643-6.233-4.735-10.575-6.07-3.077-.947-6.78-1.61-11.033-2.034-4.975-.496-9.2-.611-16.302-.611-2.308 0-3.08-.006-3.771-.042-.462-.024-.759-.06-.95-.126-.64-.223-.525-.86-.02-1.113 1.997-.998 6.832-2.486 11.894-3.296 7.653-1.225 15.317-.971 22.478 1.266 4.954 1.548 8.915 3.816 12.11 6.668a29.35 29.35 0 0 1 3.915 4.267c.443.587.853 1.17 1.291 1.823.223.332.864 1.312.95 1.442 1.193 1.788.217 3.391-1.955 4.684-.504.3-1.041.563-1.578.789-.322.135-.575.23-.724.279zm.337-1.201c.496-.209.993-.452 1.453-.726 1.746-1.04 2.403-2.119 1.636-3.27-.09-.136-.731-1.114-.95-1.44a37.754 37.754 0 0 0-1.258-1.777 28.357 28.357 0 0 0-3.783-4.124c-3.09-2.758-6.926-4.954-11.742-6.46-6.999-2.186-14.51-2.435-22.022-1.233-3.966.635-7.787 1.693-10.134 2.578.587.01 1.419.012 2.823.012 7.135 0 11.383.116 16.401.616 4.314.43 8.08 1.104 11.228 2.073 4.494 1.383 8.123 3.556 10.975 6.305 1.812 1.746 3.201 3.618 4.224 5.492a17.737 17.737 0 0 1 .955 2.034l.194-.08zm-.317 73.507c3.722-.983 6.391-2.057 7.468-3.134 2.93-2.93 2.63-7.45-.87-9.2a7.485 7.485 0 0 0-1.823-.647c-1.057-.222-2.157-.202-3.652.033-.891.14-4.638.917-4.959.979a64.682 64.682 0 0 1-4.28.685c-3.436.43-5.574-.362-6.667-2.287-.814-1.435-.982-3.051-.922-6.312l.007-.385c.015-.768.02-1.1.02-1.512 0-4.353-2.339-5.522-6.277-3.553-3.13 1.565-4.037 10.63-2.73 18.47.331 1.987.837 2.74 1.593 2.81.644.058.304.183 3.58-1.177 1.217-.506 2.193-.832 3.236-1.04 3.34-.669 5.667-.141 7.434 1.218.355.274.597.497 1.017.918.499.498.368 1.097-.16 1.546-.325.277-.813.528-1.432.769-.308.12-.634.23-.961.331.292.368.666.738 1.13 1.085.624.469 1.363.86 2.228 1.148.577.193 1.094.35 1.59.48a83.464 83.464 0 0 0 5.43-1.225zm-9.993 31.684c-2.385.954-5.778.337-10.37-1.5a77.84 77.84 0 0 1-3.728-1.622 670.78 670.78 0 0 1-3.43-1.612c-1.26-.592-2.111-.973-2.843-1.266-1.69-.676-4.443-1.405-7.954-2.15a187.215 187.215 0 0 0-6.832-1.306c-.469-.081-.918-.158-1.345-.23.733.634 1.534 1.338 2.387 2.103a177.31 177.31 0 0 1 8.245 7.848 109.412 109.412 0 0 1 5.045 5.475 69.939 69.939 0 0 1 2.034 2.489c5.78 7.43 11.673 7.883 18.349 3.878 1.638-.983 2.464-2.753 2.622-5.125.098-1.473-.069-3.065-.408-4.637a20.056 20.056 0 0 0-.299-1.21 10.89 10.89 0 0 0-.133-.441.5.5 0 0 1 .028-.382 19.965 19.965 0 0 0 .437-1.018c-.628.24-1.23.476-1.805.706zm4.412-9.882c.445 1.205.435 2.351-.112 4.539a46.896 46.896 0 0 1-.833 2.942 251.63 251.63 0 0 1 6.762-2.394l-1.734-7.804-3.38 2.535a.5.5 0 0 1-.775-.242 2.879 2.879 0 0 0-.25-.501 4.672 4.672 0 0 0-.213-.324c.266.631.514 1.192.535 1.249zm-.682-7.864a14.92 14.92 0 0 0 1.096.717l3.394-1.697-1.782-6.238h-2.34l-3.017 5.028a26.628 26.628 0 0 0 2.65 2.19zM32.911 40.328a.5.5 0 0 1-.924.25 11.142 11.142 0 0 1-.655-1.287c-.34-.794-.571-1.586-.64-2.341a4.792 4.792 0 0 1-.018-.573c.033-1.155.35-2.105.993-2.614.799-.632 1.909-.472 3.225.462 1.043.74 1.178 1.799.608 2.974-.272.56-.69 1.133-1.254 1.772-.166.188-.338.374-.546.594l-.465.489c-.146.154-.241.26-.303.34-.017.021-.024.034-.021-.066zm-.405-.96l.468-.491c.201-.212.365-.39.522-.568.51-.577.88-1.083 1.104-1.547.376-.774.309-1.3-.286-1.722-.994-.704-1.641-.798-2.027-.493-.36.285-.588.97-.613 1.86-.005.145 0 .296.014.453.058.636.26 1.332.563 2.039.074.172.15.339.23.497l.025-.028zm-8.009 2.752a.5.5 0 0 1-.454.742 558.85 558.85 0 0 0-3.293-.104c-1.403-.041-2.437-.065-2.939-.065-.625 0-.986-.426-.919-1.013.041-.358.235-.784.542-1.258.561-.864 1.42-1.757 2.012-2.053 1.257-.629 3.916 1.706 5.051 3.75zM21.6 40.205c-.814-.714-1.499-1.045-1.706-.941-.404.201-1.147.975-1.62 1.703-.19.293-.317.55-.366.727.542.002 1.54.025 2.872.064a496.45 496.45 0 0 1 2.329.072 11.457 11.457 0 0 0-1.51-1.625zm-6.765 9.963a.5.5 0 0 1-.4.8l-.306.005c-.248.006-.525.018-.824.035a22.13 22.13 0 0 0-2.493.277c-1.08.19-1.956.455-2.542.797-1.297.757-2.346.081-2.14-1.227.18-1.13 1.2-2.288 2.72-2.879 1.931-.75 3.596-.247 4.975 1.038.396.37.64.661 1.01 1.154zm-1.692-.422c-1.122-1.046-2.4-1.433-3.93-.838-1.203.468-1.974 1.342-2.095 2.103-.072.459.065.547.648.207.709-.413 1.686-.71 2.873-.918a23.1 23.1 0 0 1 2.764-.299 6.293 6.293 0 0 0-.26-.255zm165.742.038c8.114 1.714 15.215-.096 17.88-5.776.932-1.984 1.688-4.299 2.282-6.878.7-3.036 1.145-6.292 1.386-9.57.088-1.19.142-2.31.17-3.34.016-.553.022-1.012.023-1.366a50.008 50.008 0 0 0-1.38-.748 59.499 59.499 0 0 0-4.145-1.964c-2.31-.986-4.562-1.764-6.67-2.258-2.22-.52-4.204-.704-5.886-.504-7.12.847-13.06 6.786-13.406 13.199-.375 6.924 2.69 13.93 6.658 14.387 1.026.119 1.964.146 2.83.075-.04.18-.078.357-.11.534-.296 1.622-.204 3.029.326 4.2l.042.009zm6.737-9.218c.47-.688.981-1.25 1.53-1.695 1.53-1.24 3.165-1.473 4.626-1.12.058.014.113.028.163.042a16.882 16.882 0 0 0 1.056-1.148c.304-.368.564-.723.764-1.053.318-.524.464-.953.427-1.224-.033-.235-.232-.396-.775-.482-4.103-.648-9.362.81-11.4 3.866-1.59 2.387-2.85 4.942-3.386 7.289 2.94-.242 5.052-1.626 6.995-4.475zm-8.193 5.511a17.448 17.448 0 0 1-1.747-.118c-4.654-.536-7.94-8.049-7.542-15.434.374-6.912 6.697-13.235 14.286-14.138 1.813-.216 3.908-.021 6.232.523 2.172.508 4.477 1.306 6.835 2.313a60.49 60.49 0 0 1 5.439 2.656c.215.12.366.207.446.254a.5.5 0 0 1 .246.424l.001.064a48.6 48.6 0 0 1-.021 1.627 74.42 74.42 0 0 1-.173 3.385c-.245 3.325-.698 6.63-1.41 9.721-.609 2.644-1.386 5.025-2.35 7.08-2.91 6.197-10.478 8.127-18.993 6.328a29.802 29.802 0 0 1-.516-.114c-.72-1.283-.948-2.825-.733-4.57zm9.02-4.948c.415-.61.861-1.1 1.332-1.481 1.262-1.023 2.581-1.21 3.762-.925.168.04.283.08.333.1a.5.5 0 0 0 .534-.093 16.608 16.608 0 0 0 1.357-1.447c.333-.403.62-.796.85-1.173.425-.702.637-1.325.561-1.877-.099-.724-.667-1.186-1.61-1.335-4.448-.702-10.095.863-12.386 4.3-1.782 2.672-3.165 5.547-3.649 8.197-.042.231-.076.458-.104.682 3.91.057 6.632-1.446 9.02-4.948zM172.96 37.02a6.252 6.252 0 0 0 .66.827c.412.434.81.701 1.117.736a.483.483 0 0 0 .356-.094c.175-.125.368-.357.583-.707.253-.412 2.34-5.05 3.323-6.681.132-.22.267-.434.403-.644.325-.499.64-.904.961-1.232 1.24-1.267 2.01-1.375 5.289-1.168 1.64.104 2.792.127 4.26.043 2.077-.119 3.254-.361 3.743-.69.238-.16.257-.254.184-.731-.082-.534-.082-.796.091-1.143.017-.034-.24-.21-1.089-.373-.96-.184-2.324-.237-3.576-.148-.771.055-1.134.01-3.39-.347-3.443-.547-5.521-.519-7.798.481l-.006.003c-1.786.786-3.22 3.187-4.181 6.515-.662 2.29-1.037 5.193-.93 5.353zm-.031-5.63c1.038-3.59 2.604-6.214 4.74-7.153l.006-.003c2.5-1.098 4.738-1.128 8.357-.554 2.144.34 2.505.385 3.162.338 1.333-.095 2.782-.039 3.835.163 1.442.276 2.274.846 1.796 1.802-.049.097-.049.212.002.544.126.82.034 1.278-.615 1.714-.683.458-1.995.73-4.244.858-1.514.086-2.702.062-4.38-.044-2.988-.189-3.552-.11-4.51.87-.271.277-.547.63-.837 1.077-.13.2-.259.406-.385.615-.942 1.562-3.03 6.205-3.328 6.689-.279.453-.552.78-.854.996a1.482 1.482 0 0 1-1.049.275c-.598-.068-1.169-.451-1.73-1.04a7.237 7.237 0 0 1-.772-.97c-.344-.534.047-3.552.806-6.177zM89.41 21.998c.023-.643.029-.772.123-2.626.067-1.311.103-2.137.127-3.008.18-6.374-.576-9.746-3.314-10.062-.541-.063-1.052-.154-1.845-.32-3.243-.677-4.218-.64-5.136.89-.668 1.113-.208 1.97 1.092 2.829.34.225 1.673 1.001 1.823 1.093.779.479 1.336.9 1.772 1.374 1.386 1.505 1.516 2.726 1.002 4.86-.383 1.59-.43 1.988-.105 2.638.661 1.323 2.013 2.649 4.295 3.92.092-.466.144-.992.166-1.588zm-.876-2.676c.067-1.305.103-2.124.127-2.986.162-5.773-.52-8.82-2.43-9.04-.578-.068-1.114-.164-1.934-.335-2.796-.584-3.485-.558-4.074.426-.315.525-.127.877.785 1.48.313.206 1.624.97 1.796 1.075.85.523 1.474.995 1.984 1.549 1.657 1.8 1.822 3.346 1.238 5.771-.313 1.297-.35 1.62-.183 1.957.439.877 1.257 1.78 2.57 2.683.021-.6.03-.778.121-2.58zM66.575 5.816a.5.5 0 0 1 .602-.325l2.928.78a.5.5 0 0 1 .342.315 31.352 31.352 0 0 0 .566 1.406c.458 1.06.977 2.12 1.547 3.107 1.258 2.18 2.575 3.675 3.844 4.169 1.508.586 2.67 1.945 3.552 3.826.407.871.728 1.8.973 2.728a16.744 16.744 0 0 1 .277 1.25.5.5 0 0 1-.164.455l-1.562 1.367a.5.5 0 0 1-.536.079l-.394-.182a230.823 230.823 0 0 1-5.284-2.56c-1.414-.706-2.605-2.062-3.608-3.872a19.761 19.761 0 0 1-1.304-2.92c-.124-.348-.23-.672-.317-.963a9.568 9.568 0 0 1-.112-.396l-.06-.287a222.308 222.308 0 0 1-.743-3.744c-.476-2.528-.674-3.854-.548-4.233zm.988.812c.083.641.278 1.835.542 3.237l.11.574a215.135 215.135 0 0 0 .63 3.151l.054.262a19.04 19.04 0 0 0 .397 1.25c.338.947.75 1.893 1.237 2.773.914 1.65 1.98 2.862 3.18 3.462a229.827 229.827 0 0 0 5.258 2.547l.094.044 1.104-.966a14.142 14.142 0 0 0-.207-.885 15.232 15.232 0 0 0-.912-2.559c-.782-1.67-1.785-2.843-3.009-3.318-1.54-.6-2.984-2.239-4.348-4.602a31.236 31.236 0 0 1-1.598-3.21 32.347 32.347 0 0 1-.497-1.217l-2.035-.543z"/>
</svg>
