<svg xmlns="http://www.w3.org/2000/svg" width="354" height="265" viewBox="0 0 354 265">
    <path fill="#1747FF" fill-rule="nonzero" d="M293.014 195.772c39.454 3.286 60.913 10.96 60.913 24.878 0 26.376-79.549 44.06-181.583 44.06-51.253 0-87.3-1.576-115.933-6.062C19.704 252.898 0 242.628 0 226.428c0-16.064 28.74-25.148 79.495-29.304a.506.506 0 0 1 .047-.002 138.884 138.884 0 0 0-2.567-3.888c-3.785-5.532-4.946-9.472-4.312-13.713.2-1.345.567-2.713 1.182-4.56.158-.473 1.394-4.004 1.775-5.172a65.63 65.63 0 0 0 1.088-3.678c2.127-8.08 1.442-11.996-2.13-16.67a5.63 5.63 0 0 0-.458.915.5.5 0 1 1-.933-.36c.174-.453.423-.916.737-1.381-.197-.241-.401-.484-.612-.73-.116-.136-.64-.743-.781-.909-3.932-4.587-3.092-13.491 2.378-24.43 2.396-4.791 3.46-13.336 4.908-34.244l.306-4.43c.118-1.704.218-3.115.316-4.468 1.014-13.933 2.01-22.892 3.605-30.268 2.781-12.86 14.367-25.542 33.34-34.446C140.237 3.963 172.35-.885 213.135 1.664c20.787 1.3 37.602 9.85 50.751 24.562 11.107 12.426 19.302 28.906 24.892 48.251 4.386 15.177 6.938 31.364 7.868 46.53.349 5.68.434 10.854.291 14.74-.061 1.673-.164 3.014-.293 3.888-.066.446-.139.77-.225.981-.193.47-.718.729-1.081.188-4.274-6.367-10.917-4.843-18.806 2.442-2.932 2.707-5.835 6.069-8.23 9.382-1.811 2.506-3.178 4.888-3.126 5.045.141.424-.133.759-.531.824-.19.032-.429.013-.74-.045-.517-.097-1.268-.313-2.243-.64-1.688-.565-4.018-1.453-6.83-2.588l-1.008-.408a421.473 421.473 0 0 1-8.698-3.665.5.5 0 0 1-.298-.502l2.523-28.276a71.732 71.732 0 0 0-2.368-1.654 83.615 83.615 0 0 0-6.637-4.013c-4.185-2.268-8.28-3.993-12.109-4.96-1.903-.48-3.71-.765-5.408-.835a.5.5 0 1 1 .042-1c1.77.074 3.645.369 5.611.865 3.92.99 8.088 2.747 12.34 5.05a84.606 84.606 0 0 1 8.654 5.402c.34.244.576.418.7.513a.5.5 0 0 1 .196.442l-2.516 28.195a346.355 346.355 0 0 0 2.326.999 420.485 420.485 0 0 0 7.024 2.92c2.795 1.128 5.109 2.01 6.774 2.567.934.313 1.648.518 2.109.605.06.01.114.02.163.027.58-2.333 6.388-10.17 11.601-14.984 7.98-7.368 15.056-9.19 19.796-2.99l.006-.034c.123-.83.222-2.138.283-3.778.142-3.851.057-8.993-.29-14.643-.925-15.096-3.467-31.211-7.83-46.312-5.552-19.213-13.682-35.562-24.677-47.863-12.979-14.52-29.551-22.947-50.068-24.23-40.63-2.539-72.577 2.284-95.265 12.933-18.708 8.78-30.077 21.225-32.786 33.753-1.582 7.316-2.575 16.24-3.585 30.128-.098 1.352-.198 2.762-.317 4.466l-.306 4.43c-1.461 21.113-2.525 29.65-5.01 34.622-5.31 10.617-6.114 19.132-2.517 23.328l.003.003c.14.165.664.772.78.908.163.189.32.376.474.562 1.6-1.91 4.233-3.757 7.312-4.94 5.228-2.006 11.214-2.034 17.276.407 14.16 5.701 18.897 12.383 16.602 25.334-2.288 12.91-9.235 18.954-18.911 20.605a.5.5 0 0 1-.168-.986c9.283-1.584 15.885-7.327 18.094-19.793 2.204-12.435-2.233-18.693-15.99-24.232-5.824-2.345-11.549-2.318-16.545-.4-3.022 1.16-5.574 2.988-7.03 4.8 3.915 5.02 4.739 9.235 2.492 17.775a66.62 66.62 0 0 1-1.105 3.733c-.385 1.181-1.622 4.717-1.777 5.18-.6 1.796-.951 3.114-1.142 4.39-.593 3.968.496 7.663 4.149 13.002a133.178 133.178 0 0 1 6.202 9.954l.5-.04a.5.5 0 1 1 .034 1 124.537 124.537 0 0 1 2.113 4.008c.426-.04.854-.078 1.285-.116a.5.5 0 0 1 .088.997l-.894.08c2.77 5.612 5.11 11.415 7.198 17.68a.504.504 0 0 1 .018.071c5.782.564 12.6 1.018 20.39 1.361a.5.5 0 1 1-.044 1c-29.02-1.28-44.239-3.885-44.239-8.845 0-2.683 5.974-4.4 17.492-5.68a.5.5 0 0 1 .11.995c-10.707 1.189-16.602 2.883-16.602 4.685 0 2.792 7.621 4.928 21.808 6.376-2.087-6.216-4.426-11.973-7.198-17.546-28.818 2.686-44.917 7.508-44.917 14.623 0 7.113 10.364 12.285 30.021 15.658 16.685 2.863 39.428 4.377 68.876 4.944a.5.5 0 1 1-.02 1c-29.494-.568-52.278-2.085-69.025-4.959-20.142-3.456-30.852-8.8-30.852-16.643 0-7.944 16.141-12.827 45.434-15.582a123.62 123.62 0 0 0-2.135-4.017c-40.971 3.412-64.129 10.37-64.129 21.594 0 5.55 3.687 10.222 10.91 14.102a.5.5 0 1 1-.473.881c-7.516-4.037-11.437-9.006-11.437-14.983 0-12.048 23.21-19.07 64.59-22.552a128.212 128.212 0 0 0-2.915-4.885.5.5 0 0 1-.414.29c-50.102 4.102-78.576 13.103-78.576 28.308 0 15.481 19.325 25.553 55.565 31.23 28.568 4.476 64.575 6.05 115.779 6.05 101.304 0 180.583-17.623 180.583-43.06 0-13.15-21.315-20.703-60.488-23.92-1.57 2.585-3.225 5.057-4.902 7.294-.832 1.108-2 2.2-3.39 3.224 19.314 2.35 29.634 6.377 29.634 12.755 0 15.157-61.365 25.15-140.387 25.15l-3.402-.002a.5.5 0 1 1 .001-1l3.4.002c78.058 0 139.388-9.987 139.388-24.15 0-5.698-10.435-9.63-29.875-11.895-2.319 1.511-5.083 2.831-7.869 3.78 11.787 1.79 18.01 4.501 18.01 8.54 0 6.722-17.49 11.886-47.827 15.15a.5.5 0 1 1-.107-.994c29.57-3.182 46.933-8.309 46.933-14.156 0-3.494-6.701-6.145-19.273-7.854-4.004 1.061-7.814 1.241-10.146-.007-4.782-2.56-4.16-12.195-.94-20.247a.5.5 0 1 1 .929.371c-3.034 7.588-3.629 16.793.483 18.994 1.636.876 4.143.953 6.947.472a.5.5 0 0 1 .367-.892c.787.094 1.555.191 2.303.292a36.133 36.133 0 0 0 8.583-3.63l-.704-.076a.5.5 0 0 1 .105-.995c.662.07 1.314.142 1.957.216 1.706-1.143 3.134-2.387 4.08-3.648a88.938 88.938 0 0 0 4.584-6.785 420.48 420.48 0 0 0-1.704-.132.5.5 0 0 1 .075-.997c.743.056 1.48.114 2.21.172 5.902-9.846 10.542-21.21 10.542-27.141 0-.808.007-1.48.028-2.821.146-9.442-.653-12.406-5.347-14.572-.545-.252-2.596-1.222-3.08-1.444-1.083-.498-1.897-.835-2.647-1.085-1.757-.585-3.12-.66-4.427-.175-1.469.544-2.926 1.83-4.526 4.07a71.113 71.113 0 0 0-7.018 12.298c2.193.991 4.425 2.502 6.424 4.301 2.634 2.37 3.01 9.079 1.49 16.99-1.142 5.934-9.05 7.87-16.024 6.795-1.148-.176-1.498-1.13-1.198-2.482.222-1 .792-2.286 1.643-3.804.3-.537.633-1.096.99-1.67a62.127 62.127 0 0 1 2.654-3.91c.67-1.488 1.2-3.365 1.603-5.537.384-2.077.632-4.306.77-6.537.048-.78.079-1.506.096-2.156.01-.389.014-.666.014-.811l.033-.18a18.034 18.034 0 0 1 .188-.466 12.381 12.381 0 0 0-2.53-.696.5.5 0 1 1 .153-.988c.894.137 1.825.399 2.771.764a72.103 72.103 0 0 1 7.127-12.492c1.707-2.39 3.309-3.803 4.992-4.427 1.548-.573 3.136-.487 5.091.164.791.264 1.636.614 2.749 1.125.49.225 2.542 1.196 3.081 1.445 2.886 1.332 4.54 3.374 5.325 6.282.596 2.21.681 4.148.603 9.213a168.48 168.48 0 0 0-.028 2.806c0 6.055-4.565 17.348-10.43 27.232zm-186.755-42.07a.5.5 0 0 1 .737-.526c2.533 1.424 5.042 4.954 6.66 8.326a.5.5 0 0 1-.582.7 6.383 6.383 0 0 0-.66-.127c-2.161-.324-4.808-.132-7.688.96-.568.216-2.595.997-2.907 1.116a95.098 95.098 0 0 1-3.813 1.384c-3.646 1.221-6.507 1.785-8.942 1.605-3.108-.23-6.135-2.187-7.576-4.204.013.183.029.37.048.557.262 2.57 1.02 4.825 2.326 6.2 4.246 4.467 9.612 5.728 16.193 1.947 3.48-2 6.159-3.664 8.137-5.009.69-.469 1.242-.863 1.67-1.186.252-.191.405-.314.471-.371a.5.5 0 1 1 .65.76c-.081.07-.25.205-.52.408a42.87 42.87 0 0 1-1.709 1.216c-2 1.36-4.7 3.038-8.2 5.05-7.016 4.03-12.875 2.653-17.417-2.127-1.49-1.569-2.314-4.016-2.596-6.787-.098-.955-.117-1.878-.07-2.521.024-.342.057-.544.143-.69.286-.486.81-.267.943.104.032.087.05.192.064.333.199 1.986 3.807 5.048 7.517 5.323 2.272.168 5.02-.374 8.55-1.556a94.19 94.19 0 0 0 3.774-1.37c.31-.119 2.338-.9 2.91-1.117 2.942-1.116 5.667-1.346 7.938-1.05-1.383-2.635-3.297-5.261-5.192-6.612.043 2.173-1.853 5.82-4.75 7.061-3.818 1.636-9.641.686-11.633-2.03-2.03-2.77-2.152-7.784-.12-9.816l1.322-1.322c-6.002.034-8.732 2.331-9.646 6.534a.5.5 0 1 1-.977-.212c1.156-5.317 5.045-7.947 13.505-7.192a.5.5 0 0 1-.09.996c-.499-.044-.98-.077-1.444-.098a.5.5 0 0 1-.096.134l-1.867 1.867c-1.65 1.65-1.54 6.117.22 8.517 1.687 2.302 7.009 3.17 10.433 1.703 2.657-1.138 4.392-4.77 4.117-6.417a.5.5 0 0 1 .167-.461zm38.366 2.222c-.682-7.124 2.11-14.81 6.973-17.702 2.01-1.196 3.898-1.786 5.906-1.901 2.148-.123 2.21-.112 8.55 1.232 1.585.336 2.873.575 4.23.769 4.429.632 8.131.01 15.512-2.081 4.104-1.163 5.468-1.519 7.484-1.885a.5.5 0 1 1 .179.983c-1.973.36-3.32.711-7.39 1.864-7.512 2.128-11.315 2.767-15.926 2.108a62.881 62.881 0 0 1-4.297-.78c-6.204-1.316-6.271-1.327-8.285-1.212-1.845.106-3.577.648-5.452 1.762-4.525 2.692-7.15 10.034-6.483 16.804 1.016-.18 2.016-.793 3.14-1.85.936-.878 4.56-5.05 4.508-4.992 3.02-3.304 5.768-5.348 9.307-6.443 9.272-2.87 24.215-1.28 31.114 2.458a90.035 90.035 0 0 1 6.691 3.984c.667.44 1.245.838 1.732 1.187.294.21.493.358.596.437a.5.5 0 1 1-.61.793 22.857 22.857 0 0 0-.568-.417 54.952 54.952 0 0 0-1.7-1.165 89.04 89.04 0 0 0-6.617-3.94c-6.665-3.61-21.33-5.17-30.342-2.382-3.34 1.034-5.954 2.978-8.865 6.162.085-.093-3.582 4.128-4.56 5.047-1.275 1.197-2.465 1.913-3.703 2.118.396 2.665 1.322 5.199 2.867 7.273 5.343 7.171 15.069 15.168 21.838 18.881a.5.5 0 1 1-.48.877c-6.889-3.778-16.725-11.866-22.16-19.16-1.664-2.235-2.656-4.958-3.067-7.815a5.266 5.266 0 0 1-1.133-.19c-2.824-.785-5.574-4.589-8.262-10.475-1.04-2.275-1.995-4.71-2.847-7.143a90.83 90.83 0 0 1-.788-2.354 49.17 49.17 0 0 1-.28-.897.5.5 0 0 1 .195-.553c.039-.027.112-.076.22-.144.177-.112.391-.24.644-.385.715-.41 1.597-.865 2.653-1.354 3.004-1.392 6.805-2.781 11.47-4.077 4.37-1.213 9.292-2.283 14.795-3.17 10.793-1.74 21.175-.585 30.568 2.402a59.948 59.948 0 0 1 5.894 2.207c.602.264 1.129.509 1.577.73.271.133.457.23.604.313l18.789 13.222a.5.5 0 0 1 .056.772 86.503 86.503 0 0 1-1.798 1.627 87.234 87.234 0 0 1-4.325 3.572 56.297 56.297 0 0 1-3.114 2.245c-3.777 2.516-6.635 3.603-8.38 2.731a.5.5 0 1 1 .447-.895c1.282.641 3.913-.36 7.379-2.668a55.313 55.313 0 0 0 3.058-2.206 86.252 86.252 0 0 0 4.275-3.53 85.51 85.51 0 0 0 1.321-1.186l-18.234-12.836c-.086-.046-.26-.137-.52-.264a38.916 38.916 0 0 0-1.536-.712 58.953 58.953 0 0 0-5.796-2.169c-9.254-2.943-19.482-4.081-30.106-2.368-5.466.882-10.352 1.944-14.686 3.147-4.613 1.28-8.364 2.652-11.318 4.02-1.03.477-1.886.92-2.576 1.315-.197.112-.359.208-.487.287a89.84 89.84 0 0 0 .944 2.847c.841 2.408 1.786 4.815 2.811 7.059 2.563 5.612 5.195 9.252 7.621 9.926.252.07.5.117.743.14zm.188 73.528a.5.5 0 1 1 .013-1c8.854.114 18.315.161 29.362.161 60.217 0 108.285-4.375 108.285-10.215 0-1.484-4.173-2.889-11.953-3.874a.5.5 0 1 1 .126-.993c8.465 1.073 12.827 2.541 12.827 4.867 0 3.701-11.863 6.418-33.618 8.398-19.942 1.815-47.063 2.817-75.667 2.817-11.051 0-20.516-.047-29.375-.16zm-79.338 2.156a.5.5 0 1 1 .316-.95c9.642 3.206 26.134 5.125 50.099 6.158a.5.5 0 0 1-.043.999c-24.056-1.037-40.613-2.964-50.372-6.207zm57.748 6.712a.5.5 0 1 1 .035-1c12.637.451 29.063.61 50.68.61a.5.5 0 0 1 0 1c-21.628 0-38.063-.159-50.715-.61zm197.28-30.869a.5.5 0 1 1-.31.95c-7.415-2.43-17.523-4.232-30.144-5.485a.5.5 0 0 1 .099-.995c12.687 1.26 22.86 3.074 30.356 5.53zM112.45 254.265a.5.5 0 0 1 .046-.998c17.5.796 36.632 1.109 60.33 1.109 8.847 0 17.653-.138 26.33-.412 43.964-1.39 82.567-6.195 107.093-13.52a.5.5 0 0 1 .286.96c-24.623 7.352-63.304 12.168-107.348 13.56a837.37 837.37 0 0 1-26.362.412c-23.711 0-42.858-.313-60.375-1.11zm45.862-40.093a62.383 62.383 0 0 0-.796-1.916 59.894 59.894 0 0 0-2.888-5.813c-2.387-4.175-4.853-7.032-7.232-7.957-2.74-1.065-4.372-.037-5.301 2.444-.247.66-.42 1.373-.528 2.087a9.314 9.314 0 0 0-.102.94.5.5 0 0 1-1-.043 12.191 12.191 0 0 1 .113-1.048c.119-.777.307-1.555.58-2.286 1.106-2.954 3.274-4.32 6.6-3.026 2.656 1.033 5.245 4.031 7.738 8.393a60.872 60.872 0 0 1 2.937 5.91c.306.705.577 1.36.81 1.948.14.354.235.607.286.744a.5.5 0 0 1-.019.388l-3.827 8.003a.5.5 0 0 1-.665.236 38.835 38.835 0 0 0-1.425-.615 51.445 51.445 0 0 0-3.769-1.365c-3.598-1.148-7.178-1.873-10.51-1.97-2.413-.07-4.61.197-6.54.84-1.369.457-2.556.942-3.571 1.452-2.086 1.046-3.369 2.146-4.016 3.234-.404.68-.503 1.24-.445 1.637l.004.032a.5.5 0 0 1-.765.543 119.523 119.523 0 0 1-2.487-1.78 113.921 113.921 0 0 1-5.465-4.27 68.21 68.21 0 0 1-3.238-2.869c-3.75-3.565-5.53-6.276-4.632-8.07.302-.605 2.06-3.788 2.575-4.804 2.678-5.285 3.886-10.181 3.29-16.148-.281-2.809-.183-6.25.233-10.186.318-3.013.812-6.217 1.434-9.5a152.982 152.982 0 0 1 1.667-7.7c.075-.303.13-.515.15-.588.009-.052.025-.171.04-.36.111-1.264.046-3.105-.33-5.542-.548-3.564-1.675-7.765-3.513-12.623-2.132-5.636-8.478-9.381-17.727-11.3-7.229-1.5-15.928-1.73-22.1-.907a.5.5 0 0 1-.133-.991c6.281-.838 15.094-.604 22.436.919 9.55 1.98 16.177 5.892 18.46 11.925 3.286 8.686 4.233 14.836 3.904 18.607a4.886 4.886 0 0 1-.061.485 120.786 120.786 0 0 0-.565 2.335c-.424 1.836-.85 3.834-1.245 5.926-.617 3.258-1.107 6.436-1.423 9.42-.41 3.874-.506 7.25-.232 9.98.618 6.18-.635 11.259-3.393 16.7-.526 1.038-2.283 4.218-2.573 4.799-.594 1.189 1.037 3.677 4.427 6.898.952.904 2.022 1.85 3.19 2.826 1.723 1.44 3.57 2.873 5.417 4.232.612.45 1.182.862 1.697 1.227.081-.417.254-.876.544-1.364.753-1.266 2.18-2.49 4.426-3.617 1.06-.532 2.291-1.036 3.703-1.506 2.051-.684 4.363-.964 6.887-.891 3.436.1 7.104.842 10.784 2.017a52.44 52.44 0 0 1 3.842 1.39c.381.156.723.301 1.022.433l3.524-7.37a43.2 43.2 0 0 0-.204-.525zm29.487-64.482l.329.118a55.661 55.661 0 0 1 3.463 1.392c.829.371 1.556.732 2.154 1.077.868.5 1.448.954 1.717 1.403a.5.5 0 1 1-.857.515c-.156-.26-.632-.632-1.36-1.051a23.15 23.15 0 0 0-2.063-1.031 49.752 49.752 0 0 0-2.942-1.198c-.04.955-.395 2.54-1.188 4.988-1.557 4.816-7.59 6.54-11.43 4.518-1.776-.935-3.48-2.956-4.063-5.127-.631-2.348.007-4.692 2.075-6.793-.3.049-.611.1-.935.156-1.967.335-3.935.716-5.77 1.136-4.033.923-6.857 1.908-7.785 2.837a59.897 59.897 0 0 1-3.255 3.027 43.318 43.318 0 0 1-1.323 1.093.5.5 0 0 1-.237.099 12.927 12.927 0 0 0-1.577.326c-.564.156-.993.332-1.202.5-.102.08-.098.011.022.118.337.3.799.527 1.356.684a7.303 7.303 0 0 0 2.148.249l.06-.003a.5.5 0 1 1 .06.999l-.088.003a8.251 8.251 0 0 1-2.451-.286c-.692-.195-1.287-.487-1.75-.899-.596-.53-.555-1.188.018-1.647.343-.275.875-.493 1.561-.682a13.898 13.898 0 0 1 1.57-.333c.061-.048.14-.11.236-.189.277-.224.593-.488.944-.79a58.899 58.899 0 0 0 3.201-2.976c1.119-1.12 4.027-2.134 8.27-3.105 1.854-.424 3.84-.809 5.824-1.147a120.408 120.408 0 0 1 2.65-.42c.509-.073.782.578.374.891-2.785 2.138-3.671 4.509-3.03 6.892.509 1.893 2.026 3.693 3.562 4.502 3.333 1.754 8.665.23 10.014-3.94.999-3.087 1.25-4.665 1.122-5.145-.268-.365.09-.93.576-.76zm4.96 8.67a.5.5 0 1 1 .795.606c-4.026 5.284-14.33 8.37-26.647 5.617-7.64-1.707-9.898-.516-7.985 1.92 1.709 2.174 3.776 4.187 6.487 5.844 3.986 2.436 8.449 3.42 13.393 2.46a.5.5 0 1 1 .191.982c-5.204 1.01-9.917-.03-14.105-2.589-2.83-1.729-4.976-3.82-6.753-6.08-1.179-1.501-1.203-2.995.264-3.769 1.47-.776 4.365-.718 8.726.256 11.956 2.673 21.86-.294 25.634-5.247zm82.214 7.52l-.083.205c0 .165-.005.416-.013.743a62.66 62.66 0 0 1-.098 2.191c-.14 2.268-.392 4.536-.785 6.657-.42 2.27-.979 4.237-1.697 5.818l-.055.092-.225.306a61.144 61.144 0 0 0-2.414 3.577c-.35.563-.674 1.108-.967 1.63-.806 1.44-1.343 2.65-1.539 3.533-.191.861-.064 1.21.374 1.277 6.495 1 13.892-.81 14.89-5.997 1.456-7.573 1.094-14.013-1.177-16.057-1.922-1.729-4.066-3.18-6.15-4.124l-.06.149z"/>
</svg>
